%TF.GenerationSoftware,KiCad,Pcbnew,8.0.1*%
%TF.CreationDate,2024-04-15T13:45:33+02:00*%
%TF.ProjectId,zx81-external-eprom,7a783831-2d65-4787-9465-726e616c2d65,rev?*%
%TF.SameCoordinates,Original*%
%TF.FileFunction,Copper,L2,Bot*%
%TF.FilePolarity,Positive*%
%FSLAX46Y46*%
G04 Gerber Fmt 4.6, Leading zero omitted, Abs format (unit mm)*
G04 Created by KiCad (PCBNEW 8.0.1) date 2024-04-15 13:45:33*
%MOMM*%
%LPD*%
G01*
G04 APERTURE LIST*
%TA.AperFunction,EtchedComponent*%
%ADD10C,0.000000*%
%TD*%
%TA.AperFunction,ConnectorPad*%
%ADD11R,1.778000X7.620000*%
%TD*%
%TA.AperFunction,ComponentPad*%
%ADD12C,1.600000*%
%TD*%
%TA.AperFunction,ComponentPad*%
%ADD13O,1.600000X1.600000*%
%TD*%
%TA.AperFunction,ComponentPad*%
%ADD14R,1.600000X1.600000*%
%TD*%
%TA.AperFunction,ComponentPad*%
%ADD15R,1.050000X1.500000*%
%TD*%
%TA.AperFunction,ComponentPad*%
%ADD16O,1.050000X1.500000*%
%TD*%
%TA.AperFunction,ViaPad*%
%ADD17C,0.600000*%
%TD*%
%TA.AperFunction,Conductor*%
%ADD18C,0.200000*%
%TD*%
G04 APERTURE END LIST*
D10*
%TA.AperFunction,EtchedComponent*%
%TO.C,G200*%
G36*
X80047775Y-43679829D02*
G01*
X80038717Y-43688888D01*
X80029658Y-43679829D01*
X80038717Y-43670771D01*
X80047775Y-43679829D01*
G37*
%TD.AperFunction*%
%TA.AperFunction,EtchedComponent*%
G36*
X82620386Y-43679829D02*
G01*
X82611327Y-43688888D01*
X82602269Y-43679829D01*
X82611327Y-43670771D01*
X82620386Y-43679829D01*
G37*
%TD.AperFunction*%
%TA.AperFunction,EtchedComponent*%
G36*
X85156762Y-43679829D02*
G01*
X85147704Y-43688888D01*
X85138645Y-43679829D01*
X85147704Y-43670771D01*
X85156762Y-43679829D01*
G37*
%TD.AperFunction*%
%TA.AperFunction,EtchedComponent*%
G36*
X80608078Y-43692348D02*
G01*
X80607607Y-43718942D01*
X80601772Y-43765210D01*
X80591284Y-43788531D01*
X80578752Y-43811171D01*
X80573167Y-43853010D01*
X80572136Y-43875656D01*
X80560135Y-43900481D01*
X80526851Y-43906291D01*
X80525423Y-43906291D01*
X80495509Y-43904091D01*
X80491250Y-43890838D01*
X80509052Y-43856470D01*
X80522245Y-43830558D01*
X80547629Y-43771995D01*
X80572162Y-43707005D01*
X80606754Y-43607361D01*
X80608078Y-43692348D01*
G37*
%TD.AperFunction*%
%TA.AperFunction,EtchedComponent*%
G36*
X83206631Y-43464892D02*
G01*
X83212874Y-43508769D01*
X83216851Y-43581725D01*
X83218246Y-43679829D01*
X83218246Y-43906291D01*
X83134636Y-43906291D01*
X83097075Y-43905990D01*
X83067584Y-43902231D01*
X83063224Y-43890315D01*
X83077374Y-43865528D01*
X83101338Y-43819264D01*
X83130291Y-43744593D01*
X83156207Y-43660967D01*
X83174856Y-43582253D01*
X83182012Y-43522317D01*
X83182344Y-43509177D01*
X83188551Y-43469386D01*
X83200129Y-43453367D01*
X83206631Y-43464892D01*
G37*
%TD.AperFunction*%
%TA.AperFunction,EtchedComponent*%
G36*
X84760321Y-43638625D02*
G01*
X84780633Y-43656981D01*
X84803550Y-43688934D01*
X84796234Y-43712440D01*
X84790128Y-43722747D01*
X84780218Y-43763828D01*
X84776306Y-43819330D01*
X84776306Y-43906291D01*
X84701754Y-43906291D01*
X84675750Y-43906159D01*
X84644110Y-43902956D01*
X84639127Y-43891109D01*
X84654291Y-43864950D01*
X84667328Y-43840910D01*
X84690819Y-43786020D01*
X84713241Y-43722530D01*
X84716850Y-43711094D01*
X84733917Y-43660344D01*
X84746578Y-43637967D01*
X84760321Y-43638625D01*
G37*
%TD.AperFunction*%
%TA.AperFunction,EtchedComponent*%
G36*
X85935792Y-43453362D02*
G01*
X85999202Y-43462426D01*
X86004289Y-43684359D01*
X86009375Y-43906291D01*
X85800437Y-43906291D01*
X85591499Y-43906291D01*
X85627768Y-43838621D01*
X85636383Y-43822149D01*
X85656145Y-43780400D01*
X85664038Y-43757027D01*
X85668379Y-43746830D01*
X85689539Y-43711351D01*
X85724306Y-43657973D01*
X85768210Y-43593701D01*
X85786951Y-43566879D01*
X85829029Y-43508419D01*
X85858852Y-43472946D01*
X85882519Y-43455352D01*
X85906133Y-43450527D01*
X85935792Y-43453362D01*
G37*
%TD.AperFunction*%
%TA.AperFunction,EtchedComponent*%
G36*
X90537504Y-41532730D02*
G01*
X90537504Y-41786130D01*
X89920861Y-41790897D01*
X89304217Y-41795664D01*
X89957095Y-42606599D01*
X90609972Y-43417535D01*
X90609972Y-43661913D01*
X90609972Y-43906291D01*
X89504836Y-43906291D01*
X88399701Y-43906291D01*
X88399701Y-43652869D01*
X88399701Y-43399447D01*
X89089590Y-43394702D01*
X89779478Y-43389958D01*
X89125824Y-42586522D01*
X88472169Y-41783087D01*
X88472169Y-41531208D01*
X88472169Y-41279330D01*
X89504836Y-41279330D01*
X90537504Y-41279330D01*
X90537504Y-41532730D01*
G37*
%TD.AperFunction*%
%TA.AperFunction,EtchedComponent*%
G36*
X83779872Y-43543952D02*
G01*
X83779872Y-43942525D01*
X83662112Y-43942525D01*
X83544351Y-43942525D01*
X83544351Y-43661264D01*
X83544351Y-43380002D01*
X83494530Y-43360768D01*
X83462347Y-43353225D01*
X83400643Y-43347801D01*
X83331477Y-43348487D01*
X83218246Y-43355441D01*
X83218246Y-43250410D01*
X83218248Y-43242450D01*
X83219385Y-43186954D01*
X83225541Y-43158066D01*
X83240999Y-43147103D01*
X83270044Y-43145378D01*
X83305741Y-43151439D01*
X83364660Y-43171043D01*
X83428567Y-43199500D01*
X83482114Y-43226380D01*
X83522660Y-43246197D01*
X83539822Y-43253851D01*
X83539873Y-43253850D01*
X83543038Y-43237848D01*
X83544351Y-43199729D01*
X83544351Y-43145378D01*
X83662112Y-43145378D01*
X83779872Y-43145378D01*
X83779872Y-43543952D01*
G37*
%TD.AperFunction*%
%TA.AperFunction,EtchedComponent*%
G36*
X86316249Y-43543952D02*
G01*
X86316249Y-43942525D01*
X86198488Y-43942525D01*
X86080728Y-43942525D01*
X86080728Y-43661264D01*
X86080728Y-43380002D01*
X86030906Y-43360768D01*
X85998724Y-43353225D01*
X85937020Y-43347801D01*
X85867854Y-43348487D01*
X85754622Y-43355441D01*
X85754622Y-43250410D01*
X85754625Y-43242450D01*
X85755762Y-43186954D01*
X85761918Y-43158066D01*
X85777376Y-43147103D01*
X85806420Y-43145378D01*
X85842117Y-43151439D01*
X85901036Y-43171043D01*
X85964944Y-43199500D01*
X86018491Y-43226380D01*
X86059036Y-43246197D01*
X86076199Y-43253851D01*
X86076249Y-43253850D01*
X86079414Y-43237848D01*
X86080728Y-43199729D01*
X86080728Y-43145378D01*
X86198488Y-43145378D01*
X86316249Y-43145378D01*
X86316249Y-43543952D01*
G37*
%TD.AperFunction*%
%TA.AperFunction,EtchedComponent*%
G36*
X85283581Y-41514851D02*
G01*
X85283581Y-41750371D01*
X85066177Y-41750371D01*
X84848774Y-41750371D01*
X84849261Y-42452404D01*
X84849307Y-42531124D01*
X84849265Y-42695766D01*
X84848850Y-42829871D01*
X84847866Y-42937459D01*
X84846114Y-43022547D01*
X84843399Y-43089156D01*
X84839525Y-43141304D01*
X84834294Y-43183011D01*
X84827511Y-43218295D01*
X84818977Y-43251176D01*
X84808498Y-43285673D01*
X84805818Y-43294170D01*
X84785313Y-43355571D01*
X84771306Y-43386819D01*
X84761082Y-43392265D01*
X84751923Y-43376258D01*
X84742918Y-43353083D01*
X84683387Y-43231997D01*
X84612710Y-43142993D01*
X84526673Y-43082971D01*
X84421066Y-43048831D01*
X84291677Y-43037472D01*
X84178446Y-43036677D01*
X84178446Y-42393524D01*
X84178446Y-41750371D01*
X83961042Y-41750371D01*
X83743638Y-41750371D01*
X83743638Y-41514851D01*
X83743638Y-41279330D01*
X84513610Y-41279330D01*
X85283581Y-41279330D01*
X85283581Y-41514851D01*
G37*
%TD.AperFunction*%
%TA.AperFunction,EtchedComponent*%
G36*
X84287198Y-43429609D02*
G01*
X84311712Y-43450482D01*
X84338874Y-43489964D01*
X84359505Y-43548551D01*
X84361369Y-43603572D01*
X84342491Y-43642697D01*
X84340331Y-43644561D01*
X84291704Y-43665327D01*
X84224964Y-43670075D01*
X84153401Y-43659293D01*
X84090304Y-43633467D01*
X84045072Y-43611385D01*
X83988709Y-43601278D01*
X83947402Y-43615296D01*
X83927803Y-43652654D01*
X83920291Y-43684946D01*
X83905157Y-43715157D01*
X83900008Y-43724819D01*
X83891808Y-43764531D01*
X83888574Y-43819330D01*
X83887509Y-43848639D01*
X83880972Y-43890036D01*
X83870457Y-43906291D01*
X83863576Y-43892851D01*
X83857525Y-43846769D01*
X83853684Y-43771497D01*
X83852340Y-43670771D01*
X83853765Y-43568340D01*
X83858743Y-43487802D01*
X83867294Y-43443309D01*
X83879421Y-43434852D01*
X83895126Y-43462426D01*
X83903881Y-43474587D01*
X83939922Y-43487945D01*
X83989149Y-43484421D01*
X84038676Y-43463886D01*
X84060160Y-43453698D01*
X84114719Y-43437561D01*
X84178755Y-43426092D01*
X84206100Y-43423046D01*
X84256012Y-43421201D01*
X84287198Y-43429609D01*
G37*
%TD.AperFunction*%
%TA.AperFunction,EtchedComponent*%
G36*
X81116677Y-43027618D02*
G01*
X81116677Y-43145378D01*
X81171028Y-43145378D01*
X81197867Y-43146396D01*
X81216890Y-43155599D01*
X81224191Y-43182339D01*
X81225379Y-43235963D01*
X81224768Y-43280696D01*
X81219246Y-43312401D01*
X81203202Y-43324569D01*
X81171028Y-43326548D01*
X81116677Y-43326548D01*
X81116677Y-43569737D01*
X81116675Y-43581636D01*
X81116273Y-43676827D01*
X81114393Y-43743616D01*
X81109924Y-43789092D01*
X81101756Y-43820346D01*
X81088779Y-43844465D01*
X81069882Y-43868539D01*
X81064165Y-43874996D01*
X81015995Y-43915409D01*
X80965709Y-43940763D01*
X80951651Y-43944530D01*
X80838920Y-43958319D01*
X80713574Y-43949014D01*
X80683006Y-43943362D01*
X80656961Y-43931398D01*
X80647135Y-43905332D01*
X80645603Y-43854099D01*
X80645571Y-43770414D01*
X80740047Y-43770414D01*
X80787382Y-43767962D01*
X80828284Y-43755725D01*
X80855316Y-43728385D01*
X80871248Y-43680686D01*
X80878849Y-43607373D01*
X80880889Y-43503189D01*
X80881156Y-43326548D01*
X80763396Y-43326548D01*
X80645635Y-43326548D01*
X80645635Y-43235963D01*
X80645635Y-43145378D01*
X80763396Y-43145378D01*
X80881156Y-43145378D01*
X80881156Y-43027618D01*
X80881156Y-42909858D01*
X80998916Y-42909858D01*
X81116677Y-42909858D01*
X81116677Y-43027618D01*
G37*
%TD.AperFunction*%
%TA.AperFunction,EtchedComponent*%
G36*
X91379943Y-42636992D02*
G01*
X91379943Y-44718636D01*
X91334651Y-44767369D01*
X91331309Y-44770904D01*
X91290080Y-44807706D01*
X91253125Y-44831123D01*
X91253076Y-44831141D01*
X91232045Y-44832157D01*
X91175981Y-44833138D01*
X91086064Y-44834085D01*
X90963474Y-44834995D01*
X90809392Y-44835866D01*
X90624996Y-44836697D01*
X90411467Y-44837485D01*
X90169986Y-44838230D01*
X89901733Y-44838929D01*
X89607887Y-44839580D01*
X89289628Y-44840182D01*
X88948138Y-44840733D01*
X88584595Y-44841232D01*
X88200181Y-44841676D01*
X87796075Y-44842063D01*
X87373457Y-44842393D01*
X86933507Y-44842663D01*
X86477406Y-44842871D01*
X86006333Y-44843016D01*
X85521469Y-44843096D01*
X85023994Y-44843109D01*
X84515088Y-44843054D01*
X83995931Y-44842928D01*
X83467702Y-44842730D01*
X75718514Y-44839316D01*
X75659286Y-44780087D01*
X75600058Y-44720859D01*
X75600058Y-44630970D01*
X75808403Y-44630970D01*
X83490001Y-44630970D01*
X91171598Y-44630970D01*
X91171598Y-42638103D01*
X91171598Y-40645236D01*
X83490001Y-40645236D01*
X75808403Y-40645236D01*
X75808403Y-42638103D01*
X75808403Y-44630970D01*
X75600058Y-44630970D01*
X75600058Y-42638103D01*
X75600058Y-40555348D01*
X75659286Y-40496119D01*
X75718515Y-40436891D01*
X83490001Y-40436891D01*
X91261486Y-40436891D01*
X91320715Y-40496119D01*
X91379943Y-40555348D01*
X91379943Y-40645236D01*
X91379943Y-42636992D01*
G37*
%TD.AperFunction*%
%TA.AperFunction,EtchedComponent*%
G36*
X79565005Y-43681665D02*
G01*
X79530158Y-43789141D01*
X79471390Y-43870353D01*
X79388298Y-43926122D01*
X79353969Y-43940274D01*
X79276857Y-43957538D01*
X79199804Y-43949601D01*
X79110222Y-43916006D01*
X79109429Y-43915637D01*
X79056483Y-43891756D01*
X79028306Y-43882861D01*
X79017109Y-43888227D01*
X79015107Y-43907125D01*
X79015090Y-43909055D01*
X79010704Y-43926928D01*
X78993252Y-43937029D01*
X78955018Y-43941510D01*
X78888289Y-43942525D01*
X78761470Y-43942525D01*
X78761470Y-43725566D01*
X79013917Y-43725566D01*
X79060984Y-43743461D01*
X79068769Y-43746167D01*
X79129144Y-43757533D01*
X79195033Y-43758761D01*
X79246480Y-43749230D01*
X79265770Y-43735413D01*
X79294780Y-43689472D01*
X79315308Y-43624724D01*
X79323096Y-43552119D01*
X79320930Y-43506872D01*
X79298512Y-43416949D01*
X79252607Y-43353734D01*
X79184241Y-43318301D01*
X79094435Y-43311728D01*
X79024166Y-43317490D01*
X79019041Y-43521528D01*
X79013917Y-43725566D01*
X78761470Y-43725566D01*
X78761470Y-43389958D01*
X78761470Y-42837390D01*
X78888289Y-42837390D01*
X79015107Y-42837390D01*
X79015107Y-43008698D01*
X79015107Y-43180005D01*
X79092105Y-43152289D01*
X79152367Y-43136971D01*
X79246411Y-43134672D01*
X79246911Y-43134738D01*
X79360838Y-43165641D01*
X79452354Y-43224204D01*
X79519850Y-43308418D01*
X79561714Y-43416278D01*
X79576336Y-43545778D01*
X79576339Y-43547106D01*
X79575917Y-43552119D01*
X79565005Y-43681665D01*
G37*
%TD.AperFunction*%
%TA.AperFunction,EtchedComponent*%
G36*
X76504768Y-43249551D02*
G01*
X76535343Y-43344129D01*
X76569784Y-43443851D01*
X76601280Y-43528158D01*
X76627931Y-43592239D01*
X76647837Y-43631280D01*
X76659099Y-43640469D01*
X76661338Y-43636813D01*
X76675300Y-43605401D01*
X76697972Y-43548626D01*
X76726763Y-43473098D01*
X76759080Y-43385428D01*
X76846187Y-43145378D01*
X76972561Y-43145378D01*
X76974828Y-43145379D01*
X77040142Y-43146443D01*
X77076458Y-43150821D01*
X77090794Y-43160403D01*
X77090168Y-43177083D01*
X77088836Y-43181332D01*
X77076455Y-43215917D01*
X77053605Y-43277154D01*
X77022375Y-43359527D01*
X76984851Y-43457523D01*
X76943120Y-43565627D01*
X76929938Y-43599736D01*
X76890073Y-43704098D01*
X76855691Y-43795903D01*
X76828731Y-43869858D01*
X76811133Y-43920670D01*
X76804836Y-43943047D01*
X76804953Y-43944661D01*
X76813459Y-43973782D01*
X76832784Y-44024694D01*
X76859187Y-44087461D01*
X76863398Y-44097085D01*
X76888817Y-44156687D01*
X76906749Y-44201286D01*
X76913538Y-44221846D01*
X76913241Y-44222556D01*
X76892616Y-44227484D01*
X76845931Y-44230876D01*
X76782190Y-44232035D01*
X76650842Y-44231673D01*
X76437802Y-43702114D01*
X76410892Y-43635111D01*
X76360799Y-43509753D01*
X76316181Y-43397272D01*
X76278661Y-43301811D01*
X76249864Y-43227512D01*
X76231411Y-43178516D01*
X76224928Y-43158966D01*
X76224951Y-43158718D01*
X76242662Y-43151988D01*
X76286980Y-43147201D01*
X76348604Y-43145378D01*
X76472114Y-43145378D01*
X76504768Y-43249551D01*
G37*
%TD.AperFunction*%
%TA.AperFunction,EtchedComponent*%
G36*
X84326788Y-43142868D02*
G01*
X84447655Y-43170895D01*
X84545401Y-43225152D01*
X84622244Y-43306646D01*
X84648480Y-43347561D01*
X84667126Y-43391734D01*
X84677154Y-43445741D01*
X84682224Y-43522770D01*
X84683678Y-43580456D01*
X84680343Y-43642868D01*
X84668552Y-43692484D01*
X84646058Y-43742996D01*
X84639619Y-43754854D01*
X84572500Y-43838893D01*
X84481942Y-43903642D01*
X84377732Y-43941844D01*
X84376262Y-43942148D01*
X84291447Y-43951650D01*
X84192843Y-43951152D01*
X84096863Y-43941495D01*
X84019922Y-43923519D01*
X84016093Y-43922163D01*
X83984850Y-43908698D01*
X83968442Y-43890051D01*
X83962097Y-43855874D01*
X83961042Y-43795817D01*
X83962081Y-43748033D01*
X83965632Y-43705338D01*
X83970834Y-43688888D01*
X83972845Y-43689314D01*
X83996671Y-43702533D01*
X84034193Y-43728491D01*
X84101050Y-43760276D01*
X84196171Y-43775936D01*
X84200684Y-43776261D01*
X84260776Y-43779002D01*
X84299711Y-43773319D01*
X84331568Y-43754526D01*
X84370425Y-43717935D01*
X84385183Y-43703063D01*
X84414050Y-43669989D01*
X84428253Y-43638980D01*
X84431785Y-43597302D01*
X84428636Y-43532223D01*
X84423592Y-43472632D01*
X84413730Y-43426170D01*
X84395067Y-43392897D01*
X84362848Y-43360393D01*
X84321613Y-43331740D01*
X84240241Y-43307988D01*
X84149206Y-43315348D01*
X84054307Y-43353942D01*
X84026052Y-43369829D01*
X83986756Y-43390802D01*
X83968251Y-43399016D01*
X83964995Y-43387295D01*
X83962141Y-43348145D01*
X83961042Y-43291013D01*
X83961042Y-43183009D01*
X84038039Y-43159772D01*
X84095029Y-43148384D01*
X84172053Y-43140612D01*
X84251805Y-43138293D01*
X84326788Y-43142868D01*
G37*
%TD.AperFunction*%
%TA.AperFunction,EtchedComponent*%
G36*
X78018674Y-43942525D02*
G01*
X77902423Y-43942525D01*
X77845714Y-43940338D01*
X77799938Y-43933985D01*
X77780134Y-43924926D01*
X77776376Y-43920991D01*
X77746202Y-43919888D01*
X77692568Y-43932773D01*
X77671295Y-43939194D01*
X77594095Y-43956137D01*
X77527433Y-43956083D01*
X77454156Y-43939519D01*
X77448073Y-43937559D01*
X77379668Y-43899993D01*
X77312395Y-43839744D01*
X77256693Y-43767841D01*
X77223003Y-43695314D01*
X77213252Y-43649130D01*
X77204676Y-43549722D01*
X77204902Y-43542200D01*
X77457048Y-43542200D01*
X77457061Y-43546419D01*
X77467390Y-43641872D01*
X77497955Y-43709814D01*
X77550260Y-43753656D01*
X77576262Y-43763534D01*
X77630779Y-43774557D01*
X77690367Y-43779431D01*
X77741605Y-43777322D01*
X77771075Y-43767395D01*
X77774679Y-43755275D01*
X77779053Y-43712735D01*
X77782044Y-43647944D01*
X77783153Y-43569135D01*
X77783151Y-43561847D01*
X77782445Y-43479396D01*
X77779489Y-43425041D01*
X77772860Y-43391202D01*
X77761134Y-43370298D01*
X77742888Y-43354751D01*
X77724723Y-43345012D01*
X77665428Y-43329972D01*
X77597521Y-43327059D01*
X77539386Y-43337802D01*
X77522193Y-43347896D01*
X77488410Y-43392743D01*
X77465490Y-43460501D01*
X77457048Y-43542200D01*
X77204902Y-43542200D01*
X77207791Y-43446198D01*
X77222616Y-43357758D01*
X77254940Y-43280653D01*
X77316842Y-43205787D01*
X77397198Y-43156337D01*
X77490017Y-43134548D01*
X77589307Y-43142668D01*
X77689075Y-43182941D01*
X77698862Y-43188515D01*
X77740453Y-43209396D01*
X77766072Y-43217846D01*
X77771328Y-43209088D01*
X77777481Y-43170591D01*
X77781631Y-43107782D01*
X77783153Y-43027618D01*
X77783153Y-42837390D01*
X77900913Y-42837390D01*
X78018674Y-42837390D01*
X78018674Y-43389958D01*
X78018674Y-43569135D01*
X78018674Y-43942525D01*
G37*
%TD.AperFunction*%
%TA.AperFunction,EtchedComponent*%
G36*
X79993247Y-41150358D02*
G01*
X80159896Y-41186317D01*
X80299676Y-41245781D01*
X80412293Y-41328610D01*
X80497453Y-41434664D01*
X80554863Y-41563803D01*
X80571779Y-41625388D01*
X80585871Y-41692455D01*
X80591284Y-41740957D01*
X80594180Y-41794895D01*
X80602607Y-41856809D01*
X80613931Y-41913424D01*
X80747543Y-41913424D01*
X80881156Y-41913424D01*
X80881156Y-42130828D01*
X80881156Y-42348232D01*
X80745279Y-42348232D01*
X80609401Y-42348232D01*
X80609401Y-42754794D01*
X80609401Y-42758492D01*
X80608561Y-42896648D01*
X80606207Y-43009981D01*
X80602460Y-43095643D01*
X80597444Y-43150784D01*
X80591284Y-43172554D01*
X80579476Y-43191267D01*
X80573167Y-43230692D01*
X80572578Y-43250961D01*
X80567146Y-43260975D01*
X80551545Y-43246485D01*
X80520476Y-43204895D01*
X80473569Y-43151069D01*
X80381249Y-43087021D01*
X80265890Y-43049139D01*
X80125744Y-43036677D01*
X79975307Y-43036677D01*
X79975307Y-42692454D01*
X79975307Y-42348232D01*
X79739787Y-42348232D01*
X79504266Y-42348232D01*
X79504266Y-42130828D01*
X79504266Y-41913424D01*
X79751369Y-41913424D01*
X79998471Y-41913424D01*
X79987471Y-41820548D01*
X79979345Y-41770570D01*
X79952180Y-41693454D01*
X79906663Y-41639504D01*
X79838996Y-41606357D01*
X79745382Y-41591648D01*
X79622026Y-41593013D01*
X79591145Y-41595090D01*
X79515628Y-41601577D01*
X79454319Y-41608760D01*
X79418210Y-41615430D01*
X79415846Y-41616145D01*
X79399671Y-41619654D01*
X79388828Y-41614909D01*
X79382249Y-41596314D01*
X79378871Y-41558273D01*
X79377625Y-41495189D01*
X79377447Y-41401468D01*
X79377447Y-41175157D01*
X79430920Y-41164463D01*
X79452176Y-41161158D01*
X79509745Y-41154789D01*
X79586246Y-41148101D01*
X79670970Y-41142093D01*
X79800022Y-41138044D01*
X79993247Y-41150358D01*
G37*
%TD.AperFunction*%
%TA.AperFunction,EtchedComponent*%
G36*
X80527712Y-43438680D02*
G01*
X80533974Y-43515621D01*
X80530750Y-43626054D01*
X80502270Y-43735166D01*
X80446026Y-43821671D01*
X80360966Y-43887090D01*
X80246043Y-43932946D01*
X80225872Y-43937986D01*
X80125094Y-43951266D01*
X80010358Y-43952175D01*
X79897711Y-43941220D01*
X79803196Y-43918911D01*
X79798709Y-43917351D01*
X79759513Y-43901736D01*
X79738678Y-43882839D01*
X79729504Y-43849689D01*
X79725295Y-43791317D01*
X79723881Y-43747615D01*
X79725049Y-43705263D01*
X79729266Y-43688888D01*
X79736676Y-43691159D01*
X79769146Y-43705843D01*
X79816226Y-43729651D01*
X79833577Y-43738310D01*
X79887198Y-43757794D01*
X79950126Y-43767671D01*
X80035674Y-43770414D01*
X80086644Y-43770148D01*
X80140502Y-43767276D01*
X80175459Y-43758616D01*
X80201956Y-43740997D01*
X80230431Y-43711248D01*
X80242759Y-43696457D01*
X80271720Y-43651474D01*
X80283296Y-43616134D01*
X80282704Y-43607046D01*
X80277098Y-43596178D01*
X80261215Y-43588718D01*
X80229863Y-43584027D01*
X80177851Y-43581467D01*
X80099989Y-43580400D01*
X79991084Y-43580186D01*
X79698872Y-43580186D01*
X79711583Y-43467842D01*
X79719289Y-43410560D01*
X79719878Y-43408075D01*
X79957190Y-43408075D01*
X79957552Y-43411937D01*
X79967374Y-43423580D01*
X79995155Y-43430705D01*
X80046975Y-43434274D01*
X80128913Y-43435250D01*
X80300636Y-43435250D01*
X80280910Y-43391955D01*
X80248367Y-43350815D01*
X80195684Y-43322445D01*
X80133051Y-43309819D01*
X80069176Y-43312502D01*
X80012768Y-43330062D01*
X79972536Y-43362064D01*
X79957190Y-43408075D01*
X79719878Y-43408075D01*
X79735439Y-43342463D01*
X79760979Y-43289491D01*
X79800931Y-43238771D01*
X79848837Y-43194400D01*
X79910908Y-43160808D01*
X79989364Y-43142784D01*
X80093551Y-43137079D01*
X80190812Y-43142469D01*
X80305344Y-43170741D01*
X80398176Y-43224705D01*
X80473064Y-43306034D01*
X80493402Y-43336962D01*
X80515554Y-43383828D01*
X80526952Y-43435250D01*
X80527712Y-43438680D01*
G37*
%TD.AperFunction*%
%TA.AperFunction,EtchedComponent*%
G36*
X83100322Y-43438680D02*
G01*
X83106585Y-43515621D01*
X83103360Y-43626054D01*
X83074881Y-43735166D01*
X83018636Y-43821671D01*
X82933577Y-43887090D01*
X82818653Y-43932946D01*
X82798482Y-43937986D01*
X82697704Y-43951266D01*
X82582969Y-43952175D01*
X82470322Y-43941220D01*
X82375807Y-43918911D01*
X82371320Y-43917351D01*
X82332124Y-43901736D01*
X82311288Y-43882839D01*
X82302114Y-43849689D01*
X82297905Y-43791317D01*
X82296492Y-43747615D01*
X82297660Y-43705263D01*
X82301877Y-43688888D01*
X82309286Y-43691159D01*
X82341756Y-43705843D01*
X82388836Y-43729651D01*
X82406188Y-43738310D01*
X82459808Y-43757794D01*
X82522736Y-43767671D01*
X82608284Y-43770414D01*
X82659255Y-43770148D01*
X82713112Y-43767276D01*
X82748070Y-43758616D01*
X82774566Y-43740997D01*
X82803042Y-43711248D01*
X82815370Y-43696457D01*
X82844331Y-43651474D01*
X82855906Y-43616134D01*
X82855315Y-43607046D01*
X82849709Y-43596178D01*
X82833826Y-43588718D01*
X82802474Y-43584027D01*
X82750462Y-43581467D01*
X82672599Y-43580400D01*
X82563695Y-43580186D01*
X82271483Y-43580186D01*
X82284193Y-43467842D01*
X82291900Y-43410560D01*
X82292489Y-43408075D01*
X82529801Y-43408075D01*
X82530163Y-43411937D01*
X82539984Y-43423580D01*
X82567766Y-43430705D01*
X82619586Y-43434274D01*
X82701524Y-43435250D01*
X82873247Y-43435250D01*
X82853520Y-43391955D01*
X82820977Y-43350815D01*
X82768295Y-43322445D01*
X82705662Y-43309819D01*
X82641786Y-43312502D01*
X82585378Y-43330062D01*
X82545147Y-43362064D01*
X82529801Y-43408075D01*
X82292489Y-43408075D01*
X82308050Y-43342463D01*
X82333590Y-43289491D01*
X82373541Y-43238771D01*
X82421448Y-43194400D01*
X82483519Y-43160808D01*
X82561974Y-43142784D01*
X82666162Y-43137079D01*
X82763422Y-43142469D01*
X82877954Y-43170741D01*
X82970786Y-43224705D01*
X83045674Y-43306034D01*
X83066012Y-43336962D01*
X83088164Y-43383828D01*
X83099562Y-43435250D01*
X83100322Y-43438680D01*
G37*
%TD.AperFunction*%
%TA.AperFunction,EtchedComponent*%
G36*
X85636699Y-43438680D02*
G01*
X85642961Y-43515621D01*
X85639737Y-43626054D01*
X85611257Y-43735166D01*
X85555013Y-43821671D01*
X85469954Y-43887090D01*
X85355030Y-43932946D01*
X85334859Y-43937986D01*
X85234081Y-43951266D01*
X85119346Y-43952175D01*
X85006698Y-43941220D01*
X84912183Y-43918911D01*
X84907696Y-43917351D01*
X84868501Y-43901736D01*
X84847665Y-43882839D01*
X84838491Y-43849689D01*
X84834282Y-43791317D01*
X84832868Y-43747615D01*
X84834037Y-43705263D01*
X84838253Y-43688888D01*
X84845663Y-43691159D01*
X84878133Y-43705843D01*
X84925213Y-43729651D01*
X84942564Y-43738310D01*
X84996185Y-43757794D01*
X85059113Y-43767671D01*
X85144661Y-43770414D01*
X85195631Y-43770148D01*
X85249489Y-43767276D01*
X85284446Y-43758616D01*
X85310943Y-43740997D01*
X85339418Y-43711248D01*
X85351746Y-43696457D01*
X85380708Y-43651474D01*
X85392283Y-43616134D01*
X85391691Y-43607046D01*
X85386085Y-43596178D01*
X85370202Y-43588718D01*
X85338850Y-43584027D01*
X85286839Y-43581467D01*
X85208976Y-43580400D01*
X85100071Y-43580186D01*
X84807860Y-43580186D01*
X84820570Y-43467842D01*
X84828276Y-43410560D01*
X84828865Y-43408075D01*
X85066177Y-43408075D01*
X85066539Y-43411937D01*
X85076361Y-43423580D01*
X85104142Y-43430705D01*
X85155962Y-43434274D01*
X85237900Y-43435250D01*
X85409623Y-43435250D01*
X85389897Y-43391955D01*
X85357354Y-43350815D01*
X85304672Y-43322445D01*
X85242038Y-43309819D01*
X85178163Y-43312502D01*
X85121755Y-43330062D01*
X85081523Y-43362064D01*
X85066177Y-43408075D01*
X84828865Y-43408075D01*
X84844426Y-43342463D01*
X84869966Y-43289491D01*
X84909918Y-43238771D01*
X84957824Y-43194400D01*
X85019895Y-43160808D01*
X85098351Y-43142784D01*
X85202538Y-43137079D01*
X85299799Y-43142469D01*
X85414331Y-43170741D01*
X85507163Y-43224705D01*
X85582051Y-43306034D01*
X85602389Y-43336962D01*
X85624541Y-43383828D01*
X85635939Y-43435250D01*
X85636699Y-43438680D01*
G37*
%TD.AperFunction*%
%TA.AperFunction,EtchedComponent*%
G36*
X82149344Y-43707005D02*
G01*
X82149340Y-43708742D01*
X82134422Y-43802533D01*
X82090367Y-43874912D01*
X82016795Y-43926508D01*
X81996286Y-43935057D01*
X81899139Y-43953849D01*
X81796871Y-43944197D01*
X81702458Y-43906910D01*
X81662832Y-43884077D01*
X81635926Y-43872910D01*
X81625619Y-43880336D01*
X81623952Y-43906291D01*
X81623917Y-43909176D01*
X81619425Y-43927087D01*
X81601962Y-43937139D01*
X81563780Y-43941548D01*
X81497133Y-43942525D01*
X81370314Y-43942525D01*
X81370314Y-43649746D01*
X81623952Y-43649746D01*
X81624045Y-43664588D01*
X81628057Y-43713340D01*
X81641713Y-43740636D01*
X81670097Y-43758448D01*
X81675198Y-43760601D01*
X81727631Y-43773998D01*
X81787440Y-43779473D01*
X81814171Y-43778467D01*
X81857900Y-43766085D01*
X81888314Y-43734180D01*
X81904013Y-43707631D01*
X81907583Y-43679517D01*
X81888903Y-43644494D01*
X81878157Y-43631265D01*
X81826146Y-43596026D01*
X81754048Y-43571475D01*
X81673774Y-43562170D01*
X81652913Y-43562889D01*
X81633238Y-43571382D01*
X81625377Y-43597182D01*
X81623952Y-43649746D01*
X81370314Y-43649746D01*
X81370314Y-43641804D01*
X81370355Y-43610574D01*
X81372014Y-43484862D01*
X81377280Y-43389005D01*
X81387760Y-43317781D01*
X81405061Y-43265966D01*
X81430787Y-43228335D01*
X81466547Y-43199666D01*
X81513945Y-43174734D01*
X81530525Y-43167407D01*
X81575697Y-43151941D01*
X81626783Y-43142962D01*
X81693860Y-43139162D01*
X81787005Y-43139230D01*
X81842478Y-43140655D01*
X81924049Y-43145007D01*
X81990624Y-43151225D01*
X82031584Y-43158472D01*
X82053042Y-43165910D01*
X82075500Y-43182238D01*
X82086314Y-43212917D01*
X82091411Y-43268889D01*
X82093082Y-43304658D01*
X82093534Y-43346401D01*
X82091411Y-43362586D01*
X82083168Y-43360623D01*
X82048449Y-43350758D01*
X81997000Y-43335411D01*
X81922422Y-43317852D01*
X81833028Y-43308932D01*
X81751714Y-43312793D01*
X81685249Y-43328429D01*
X81640405Y-43354829D01*
X81623952Y-43390985D01*
X81624457Y-43402393D01*
X81628957Y-43417133D01*
X81632448Y-43417452D01*
X81662927Y-43420965D01*
X81717471Y-43427535D01*
X81787480Y-43436132D01*
X81826895Y-43441515D01*
X81949837Y-43467664D01*
X82040980Y-43505361D01*
X82102898Y-43556533D01*
X82138161Y-43623106D01*
X82145680Y-43679517D01*
X82149344Y-43707005D01*
G37*
%TD.AperFunction*%
%TA.AperFunction,EtchedComponent*%
G36*
X86589503Y-41686353D02*
G01*
X86593924Y-41692795D01*
X86667283Y-41799170D01*
X86733859Y-41894813D01*
X86790931Y-41975881D01*
X86835773Y-42038531D01*
X86865662Y-42078920D01*
X86877875Y-42093206D01*
X86877957Y-42093192D01*
X86890554Y-42077866D01*
X86920415Y-42036360D01*
X86964849Y-41972570D01*
X87021166Y-41890392D01*
X87086676Y-41793724D01*
X87158688Y-41686462D01*
X87430443Y-41279889D01*
X87816498Y-41279609D01*
X87937797Y-41279897D01*
X88041298Y-41281241D01*
X88114865Y-41283846D01*
X88161807Y-41287905D01*
X88185438Y-41293610D01*
X88189067Y-41301150D01*
X88184417Y-41308091D01*
X88161021Y-41342019D01*
X88120265Y-41400687D01*
X88064371Y-41480906D01*
X87995566Y-41579488D01*
X87916073Y-41693246D01*
X87828117Y-41818989D01*
X87733922Y-41953531D01*
X87292262Y-42584091D01*
X87742914Y-43222545D01*
X87801020Y-43304895D01*
X87892928Y-43435270D01*
X87977235Y-43555013D01*
X88051723Y-43660963D01*
X88114174Y-43749961D01*
X88162369Y-43818847D01*
X88194090Y-43864462D01*
X88207117Y-43883645D01*
X88204936Y-43891320D01*
X88184847Y-43897325D01*
X88143040Y-43901594D01*
X88075887Y-43904357D01*
X87979763Y-43905846D01*
X87851041Y-43906291D01*
X87481411Y-43906291D01*
X87191165Y-43470492D01*
X86900919Y-43034693D01*
X86649347Y-43419709D01*
X86397775Y-43804724D01*
X86388717Y-43434288D01*
X86379658Y-43063852D01*
X86266427Y-43058458D01*
X86212703Y-43054857D01*
X86169689Y-43049683D01*
X86153196Y-43044418D01*
X86156762Y-43037512D01*
X86177329Y-43005325D01*
X86213119Y-42951870D01*
X86260602Y-42882392D01*
X86316249Y-42802135D01*
X86349933Y-42753621D01*
X86401223Y-42678680D01*
X86442240Y-42617383D01*
X86469446Y-42575049D01*
X86479302Y-42557000D01*
X86476908Y-42552482D01*
X86457261Y-42522854D01*
X86419628Y-42468496D01*
X86366221Y-42392532D01*
X86299249Y-42298084D01*
X86220923Y-42188274D01*
X86133453Y-42066226D01*
X86039049Y-41935061D01*
X85994760Y-41873634D01*
X85902449Y-41745480D01*
X85817571Y-41627484D01*
X85742422Y-41522850D01*
X85679299Y-41434779D01*
X85630499Y-41366474D01*
X85598319Y-41321139D01*
X85585056Y-41301976D01*
X85587177Y-41294290D01*
X85607207Y-41288288D01*
X85648953Y-41284023D01*
X85716040Y-41281262D01*
X85812097Y-41279774D01*
X85940752Y-41279330D01*
X86310190Y-41279330D01*
X86589503Y-41686353D01*
G37*
%TD.AperFunction*%
%TA.AperFunction,EtchedComponent*%
G36*
X82131260Y-41892828D02*
G01*
X82301263Y-41957136D01*
X82473971Y-42057356D01*
X82584152Y-42132178D01*
X82584152Y-42022801D01*
X82584152Y-41913424D01*
X82901199Y-41913424D01*
X83218246Y-41913424D01*
X83218246Y-42483040D01*
X83217832Y-42630257D01*
X83216310Y-42778662D01*
X83213723Y-42898018D01*
X83210126Y-42986530D01*
X83205576Y-43042407D01*
X83200129Y-43063852D01*
X83188851Y-43080266D01*
X83182012Y-43118203D01*
X83178047Y-43147518D01*
X83163895Y-43172554D01*
X83152086Y-43191267D01*
X83145778Y-43230692D01*
X83145189Y-43250961D01*
X83139757Y-43260975D01*
X83124155Y-43246485D01*
X83093086Y-43204895D01*
X83057837Y-43163030D01*
X82965369Y-43093613D01*
X82850709Y-43051105D01*
X82716472Y-43036677D01*
X82584152Y-43036677D01*
X82584152Y-42754861D01*
X82584152Y-42473046D01*
X82479979Y-42425308D01*
X82396402Y-42395458D01*
X82292798Y-42374612D01*
X82188689Y-42367456D01*
X82095122Y-42374676D01*
X82023142Y-42396956D01*
X81981473Y-42422888D01*
X81945504Y-42459040D01*
X81918822Y-42508233D01*
X81899213Y-42576264D01*
X81884466Y-42668931D01*
X81872367Y-42792032D01*
X81852287Y-43036677D01*
X81735692Y-43036677D01*
X81665364Y-43039206D01*
X81557437Y-43057343D01*
X81470880Y-43095070D01*
X81403956Y-43154878D01*
X81354927Y-43239260D01*
X81322058Y-43350707D01*
X81303610Y-43491711D01*
X81297846Y-43664763D01*
X81297553Y-43762302D01*
X81296102Y-43829348D01*
X81292639Y-43871566D01*
X81286306Y-43894660D01*
X81276249Y-43904334D01*
X81261612Y-43906291D01*
X81261152Y-43906291D01*
X81246699Y-43904214D01*
X81236770Y-43894308D01*
X81230518Y-43870893D01*
X81227099Y-43828287D01*
X81225668Y-43760810D01*
X81225379Y-43662781D01*
X81225381Y-43657994D01*
X81226804Y-43560643D01*
X81230561Y-43482834D01*
X81236257Y-43430125D01*
X81243496Y-43408075D01*
X81254774Y-43391661D01*
X81261612Y-43353724D01*
X81265577Y-43324409D01*
X81279729Y-43299373D01*
X81287823Y-43282783D01*
X81295059Y-43238662D01*
X81297846Y-43178847D01*
X81297181Y-43132166D01*
X81292502Y-43090436D01*
X81280741Y-43069223D01*
X81258902Y-43059334D01*
X81256008Y-43058565D01*
X81242845Y-43053450D01*
X81233599Y-43042985D01*
X81227829Y-43022028D01*
X81225092Y-42985434D01*
X81224947Y-42928060D01*
X81226953Y-42844762D01*
X81230668Y-42730395D01*
X81231092Y-42717959D01*
X81236483Y-42590095D01*
X81243172Y-42490808D01*
X81251937Y-42413046D01*
X81263558Y-42349754D01*
X81278810Y-42293881D01*
X81282164Y-42283566D01*
X81343421Y-42148021D01*
X81428516Y-42039193D01*
X81538146Y-41956545D01*
X81673009Y-41899542D01*
X81833802Y-41867649D01*
X81964171Y-41864494D01*
X82131260Y-41892828D01*
G37*
%TD.AperFunction*%
%TA.AperFunction,EtchedComponent*%
G36*
X78435364Y-41884297D02*
G01*
X78572492Y-41915433D01*
X78750004Y-41983512D01*
X78903350Y-42077870D01*
X79031411Y-42197147D01*
X79133068Y-42339984D01*
X79207203Y-42505023D01*
X79252697Y-42690905D01*
X79268431Y-42896270D01*
X79268745Y-43036677D01*
X79197759Y-43036677D01*
X79187104Y-43036791D01*
X79134663Y-43040363D01*
X79098875Y-43047382D01*
X79096026Y-43048343D01*
X79082988Y-43045956D01*
X79074549Y-43025675D01*
X79069264Y-42981385D01*
X79065688Y-42906975D01*
X79060400Y-42755863D01*
X78897347Y-42755863D01*
X78887776Y-42755865D01*
X78813845Y-42756408D01*
X78768162Y-42759270D01*
X78743489Y-42766391D01*
X78732591Y-42779706D01*
X78728231Y-42801156D01*
X78720719Y-42833448D01*
X78705585Y-42863660D01*
X78705530Y-42863719D01*
X78701118Y-42886217D01*
X78697164Y-42940165D01*
X78693823Y-43020836D01*
X78691247Y-43123502D01*
X78689589Y-43243437D01*
X78689002Y-43375912D01*
X78689002Y-43870954D01*
X78640821Y-43889273D01*
X78638235Y-43890222D01*
X78594162Y-43902812D01*
X78528738Y-43917922D01*
X78455122Y-43932491D01*
X78439295Y-43935280D01*
X78342564Y-43949119D01*
X78252505Y-43957032D01*
X78173997Y-43959236D01*
X78111918Y-43955952D01*
X78071144Y-43947396D01*
X78056554Y-43933790D01*
X78073025Y-43915350D01*
X78078758Y-43902360D01*
X78085226Y-43858339D01*
X78089560Y-43790481D01*
X78091142Y-43705936D01*
X78091142Y-43507718D01*
X78195314Y-43507320D01*
X78211557Y-43507058D01*
X78328566Y-43490098D01*
X78424431Y-43445190D01*
X78502417Y-43370180D01*
X78565791Y-43262913D01*
X78574130Y-43244175D01*
X78588834Y-43204041D01*
X78598494Y-43160577D01*
X78604134Y-43105560D01*
X78606775Y-43030767D01*
X78607440Y-42927975D01*
X78607424Y-42916134D01*
X78603476Y-42775026D01*
X78591565Y-42662769D01*
X78570220Y-42573020D01*
X78537972Y-42499437D01*
X78493351Y-42435676D01*
X78492135Y-42434241D01*
X78415660Y-42370733D01*
X78318860Y-42329241D01*
X78211176Y-42311355D01*
X78102048Y-42318665D01*
X78000917Y-42352761D01*
X77979099Y-42364557D01*
X77909376Y-42415414D01*
X77855494Y-42481819D01*
X77812868Y-42570646D01*
X77776917Y-42688772D01*
X77766169Y-42730192D01*
X77747459Y-42797207D01*
X77732124Y-42845826D01*
X77722715Y-42867633D01*
X77718099Y-42879736D01*
X77712764Y-42920366D01*
X77710685Y-42976924D01*
X77710166Y-43021730D01*
X77706262Y-43054453D01*
X77695804Y-43063336D01*
X77675642Y-43055431D01*
X77646961Y-43046913D01*
X77591013Y-43039521D01*
X77524327Y-43036677D01*
X77450080Y-43040015D01*
X77394551Y-43052649D01*
X77346927Y-43077871D01*
X77338028Y-43084120D01*
X77272000Y-43146407D01*
X77219344Y-43222553D01*
X77190039Y-43298523D01*
X77179292Y-43352023D01*
X77156462Y-43286079D01*
X77154899Y-43281480D01*
X77142827Y-43218101D01*
X77154082Y-43153499D01*
X77164381Y-43113713D01*
X77162631Y-43084668D01*
X77143679Y-43064302D01*
X77140612Y-43061892D01*
X77126705Y-43042823D01*
X77118216Y-43009511D01*
X77113978Y-42954642D01*
X77112825Y-42870904D01*
X77113921Y-42814643D01*
X77137092Y-42619235D01*
X77190576Y-42443282D01*
X77274650Y-42286057D01*
X77389592Y-42146831D01*
X77513169Y-42045757D01*
X77666808Y-41962246D01*
X77840305Y-41903225D01*
X78029201Y-41869813D01*
X78229041Y-41863131D01*
X78435364Y-41884297D01*
G37*
%TD.AperFunction*%
%TD*%
D11*
%TO.P,J1,A3,+5Vcc*%
%TO.N,+5V*%
X49689982Y-83680000D03*
%TO.P,J1,A4,+9Vcc*%
%TO.N,unconnected-(J1-+9Vcc-PadA4)*%
X52229982Y-83680000D03*
%TO.P,J1,A6,GND*%
%TO.N,GND*%
X57309982Y-83680000D03*
%TO.P,J1,A7,GND*%
X59849982Y-83680000D03*
%TO.P,J1,A8,CLOCK*%
%TO.N,unconnected-(J1-CLOCK-PadA8)*%
X62389982Y-83680000D03*
%TO.P,J1,A9,A0*%
%TO.N,A0*%
X64929982Y-83680000D03*
%TO.P,J1,A10,A1*%
%TO.N,A1*%
X67469982Y-83680000D03*
%TO.P,J1,A11,A2*%
%TO.N,A2*%
X70009982Y-83680000D03*
%TO.P,J1,A12,A3*%
%TO.N,A3*%
X72549982Y-83680000D03*
%TO.P,J1,A13,A15*%
%TO.N,A15*%
X75089982Y-83680000D03*
%TO.P,J1,A14,A14*%
%TO.N,A14*%
X77629982Y-83680000D03*
%TO.P,J1,A15,A13*%
%TO.N,A13*%
X80169982Y-83680000D03*
%TO.P,J1,A16,A12*%
%TO.N,A12*%
X82709982Y-83680000D03*
%TO.P,J1,A17,A11*%
%TO.N,A11*%
X85249982Y-83680000D03*
%TO.P,J1,A18,A10*%
%TO.N,A10*%
X87789982Y-83680000D03*
%TO.P,J1,A19,A9*%
%TO.N,A9*%
X90329982Y-83680000D03*
%TO.P,J1,A20,A8*%
%TO.N,A8*%
X92869982Y-83680000D03*
%TO.P,J1,A21,A7*%
%TO.N,A7*%
X95409982Y-83680000D03*
%TO.P,J1,A22,A6*%
%TO.N,A6*%
X97949982Y-83680000D03*
%TO.P,J1,A23,A5*%
%TO.N,A5*%
X100489982Y-83680000D03*
%TO.P,J1,A24,A4*%
%TO.N,A4*%
X103029982Y-83680000D03*
%TO.P,J1,A25,~{ROMCS}*%
%TO.N,Net-(J1-~{ROMCS})*%
X105569982Y-83680000D03*
%TD*%
D12*
%TO.P,R1,1*%
%TO.N,Net-(U1-A13)*%
X98670000Y-58020000D03*
D13*
%TO.P,R1,2*%
%TO.N,+5V*%
X98670000Y-68180000D03*
%TD*%
D14*
%TO.P,SW1,1*%
%TO.N,GND*%
X95320000Y-49240000D03*
D13*
%TO.P,SW1,2*%
X97860000Y-49240000D03*
%TO.P,SW1,3*%
X100400000Y-49240000D03*
%TO.P,SW1,4*%
%TO.N,Net-(U1-A15)*%
X100400000Y-41620000D03*
%TO.P,SW1,5*%
%TO.N,Net-(U1-A14)*%
X97860000Y-41620000D03*
%TO.P,SW1,6*%
%TO.N,Net-(U1-A13)*%
X95320000Y-41620000D03*
%TD*%
D12*
%TO.P,R2,1*%
%TO.N,Net-(U1-A14)*%
X101945000Y-58040000D03*
D13*
%TO.P,R2,2*%
%TO.N,+5V*%
X101945000Y-68200000D03*
%TD*%
D12*
%TO.P,C2,1*%
%TO.N,+5V*%
X71400000Y-46500000D03*
%TO.P,C2,2*%
%TO.N,GND*%
X71400000Y-44000000D03*
%TD*%
D14*
%TO.P,U2,1,A0*%
%TO.N,A13*%
X67865000Y-41450000D03*
D13*
%TO.P,U2,2,A1*%
%TO.N,A14*%
X65325000Y-41450000D03*
%TO.P,U2,3,A2*%
%TO.N,A15*%
X62785000Y-41450000D03*
%TO.P,U2,4,E1*%
%TO.N,Net-(J1-~{MREQ})*%
X60245000Y-41450000D03*
%TO.P,U2,5,E2*%
%TO.N,Net-(J1-~{RD})*%
X57705000Y-41450000D03*
%TO.P,U2,6,E3*%
%TO.N,Net-(J1-~{RFSH})*%
X55165000Y-41450000D03*
%TO.P,U2,7,O7*%
%TO.N,unconnected-(U2-O7-Pad7)*%
X52625000Y-41450000D03*
%TO.P,U2,8,GND*%
%TO.N,GND*%
X50085000Y-41450000D03*
%TO.P,U2,9,O6*%
%TO.N,unconnected-(U2-O6-Pad9)*%
X50085000Y-49070000D03*
%TO.P,U2,10,O5*%
%TO.N,unconnected-(U2-O5-Pad10)*%
X52625000Y-49070000D03*
%TO.P,U2,11,O4*%
%TO.N,unconnected-(U2-O4-Pad11)*%
X55165000Y-49070000D03*
%TO.P,U2,12,O3*%
%TO.N,unconnected-(U2-O3-Pad12)*%
X57705000Y-49070000D03*
%TO.P,U2,13,O2*%
%TO.N,unconnected-(U2-O2-Pad13)*%
X60245000Y-49070000D03*
%TO.P,U2,14,O1*%
%TO.N,unconnected-(U2-O1-Pad14)*%
X62785000Y-49070000D03*
%TO.P,U2,15,O0*%
%TO.N,Net-(U1-~{CE})*%
X65325000Y-49070000D03*
%TO.P,U2,16,VCC*%
%TO.N,+5V*%
X67865000Y-49070000D03*
%TD*%
D14*
%TO.P,U1,1,A15*%
%TO.N,Net-(U1-A15)*%
X83025000Y-52625000D03*
D13*
%TO.P,U1,2,A12*%
%TO.N,A12*%
X80485000Y-52625000D03*
%TO.P,U1,3,A7*%
%TO.N,A7*%
X77945000Y-52625000D03*
%TO.P,U1,4,A6*%
%TO.N,A6*%
X75405000Y-52625000D03*
%TO.P,U1,5,A5*%
%TO.N,A5*%
X72865000Y-52625000D03*
%TO.P,U1,6,A4*%
%TO.N,A4*%
X70325000Y-52625000D03*
%TO.P,U1,7,A3*%
%TO.N,A3*%
X67785000Y-52625000D03*
%TO.P,U1,8,A2*%
%TO.N,A2*%
X65245000Y-52625000D03*
%TO.P,U1,9,A1*%
%TO.N,A1*%
X62705000Y-52625000D03*
%TO.P,U1,10,A0*%
%TO.N,A0*%
X60165000Y-52625000D03*
%TO.P,U1,11,D0*%
%TO.N,D0*%
X57625000Y-52625000D03*
%TO.P,U1,12,D1*%
%TO.N,D1*%
X55085000Y-52625000D03*
%TO.P,U1,13,D2*%
%TO.N,D2*%
X52545000Y-52625000D03*
%TO.P,U1,14,GND*%
%TO.N,GND*%
X50005000Y-52625000D03*
%TO.P,U1,15,D3*%
%TO.N,D3*%
X50005000Y-67865000D03*
%TO.P,U1,16,D4*%
%TO.N,D4*%
X52545000Y-67865000D03*
%TO.P,U1,17,D5*%
%TO.N,D5*%
X55085000Y-67865000D03*
%TO.P,U1,18,D6*%
%TO.N,D6*%
X57625000Y-67865000D03*
%TO.P,U1,19,D7*%
%TO.N,D7*%
X60165000Y-67865000D03*
%TO.P,U1,20,~{CE}*%
%TO.N,Net-(U1-~{CE})*%
X62705000Y-67865000D03*
%TO.P,U1,21,A10*%
%TO.N,A10*%
X65245000Y-67865000D03*
%TO.P,U1,22,~{OE/Vpp}*%
%TO.N,Net-(J1-~{RD})*%
X67785000Y-67865000D03*
%TO.P,U1,23,A11*%
%TO.N,A11*%
X70325000Y-67865000D03*
%TO.P,U1,24,A9*%
%TO.N,A9*%
X72865000Y-67865000D03*
%TO.P,U1,25,A8*%
%TO.N,A8*%
X75405000Y-67865000D03*
%TO.P,U1,26,A13*%
%TO.N,Net-(U1-A13)*%
X77945000Y-67865000D03*
%TO.P,U1,27,A14*%
%TO.N,Net-(U1-A14)*%
X80485000Y-67865000D03*
%TO.P,U1,28,VCC*%
%TO.N,+5V*%
X83025000Y-67865000D03*
%TD*%
D15*
%TO.P,Q1,1,C*%
%TO.N,+5V*%
X91930000Y-66180000D03*
D16*
%TO.P,Q1,2,B*%
%TO.N,Net-(J1-~{RFSH})*%
X93200000Y-66180000D03*
%TO.P,Q1,3,E*%
%TO.N,Net-(J1-~{ROMCS})*%
X94470000Y-66180000D03*
%TD*%
D12*
%TO.P,C1,1*%
%TO.N,+5V*%
X86650000Y-61625000D03*
%TO.P,C1,2*%
%TO.N,GND*%
X86650000Y-59125000D03*
%TD*%
%TO.P,R3,1*%
%TO.N,Net-(U1-A15)*%
X105245000Y-58070000D03*
D13*
%TO.P,R3,2*%
%TO.N,+5V*%
X105245000Y-68230000D03*
%TD*%
D17*
%TO.N,D1*%
X57288400Y-77347000D03*
%TO.N,D6*%
X58117200Y-72763900D03*
%TO.N,A14*%
X69601800Y-51169000D03*
X74012800Y-72378600D03*
%TO.N,A13*%
X71607800Y-67252400D03*
X71607800Y-69021500D03*
%TO.N,A4*%
X83949300Y-62029700D03*
%TO.N,D0*%
X58129000Y-79189600D03*
%TO.N,A12*%
X76570500Y-72505100D03*
%TO.N,A3*%
X66954300Y-72071800D03*
%TO.N,D2*%
X54526300Y-72247600D03*
%TO.N,A10*%
X83306000Y-77496100D03*
%TO.N,+5V*%
X51100100Y-59574200D03*
%TD*%
D18*
%TO.N,Net-(U1-~{CE})*%
X64223300Y-49528000D02*
X64223300Y-49070000D01*
X61594300Y-52157000D02*
X64223300Y-49528000D01*
X61594300Y-53314300D02*
X61594300Y-52157000D01*
X62705000Y-54425000D02*
X61594300Y-53314300D01*
X62705000Y-67865000D02*
X62705000Y-54425000D01*
X65325000Y-49070000D02*
X64223300Y-49070000D01*
%TO.N,Net-(U1-A14)*%
X97860000Y-41620000D02*
X97860000Y-42721700D01*
X101945000Y-46806700D02*
X101945000Y-58040000D01*
X97860000Y-42721700D02*
X101945000Y-46806700D01*
%TO.N,Net-(U1-A13)*%
X96448500Y-43850200D02*
X95320000Y-42721700D01*
X96448500Y-55798500D02*
X96448500Y-43850200D01*
X98670000Y-58020000D02*
X96448500Y-55798500D01*
X95320000Y-41620000D02*
X95320000Y-42721700D01*
%TO.N,Net-(J1-~{RD})*%
X57705000Y-41450000D02*
X58806700Y-41450000D01*
X67785000Y-55141100D02*
X67785000Y-67865000D01*
X66595000Y-53951100D02*
X67785000Y-55141100D01*
X66595000Y-48749500D02*
X66595000Y-53951100D01*
X61665700Y-43820200D02*
X66595000Y-48749500D01*
X60948600Y-43820200D02*
X61665700Y-43820200D01*
X58806700Y-41678300D02*
X60948600Y-43820200D01*
X58806700Y-41450000D02*
X58806700Y-41678300D01*
%TO.N,D1*%
X56186700Y-76245300D02*
X57288400Y-77347000D01*
X56186700Y-54828400D02*
X56186700Y-76245300D01*
X55085000Y-53726700D02*
X56186700Y-54828400D01*
X55085000Y-52625000D02*
X55085000Y-53726700D01*
%TO.N,D6*%
X57625000Y-67865000D02*
X57625000Y-68966700D01*
X58117200Y-69458900D02*
X58117200Y-72763900D01*
X57625000Y-68966700D02*
X58117200Y-69458900D01*
%TO.N,A9*%
X72865000Y-67865000D02*
X73966700Y-67865000D01*
X90330000Y-83680000D02*
X90330000Y-79568300D01*
X73966700Y-67994100D02*
X73966700Y-67865000D01*
X82867000Y-76894400D02*
X73966700Y-67994100D01*
X83708000Y-76894400D02*
X82867000Y-76894400D01*
X85043300Y-78229700D02*
X83708000Y-76894400D01*
X88991400Y-78229700D02*
X85043300Y-78229700D01*
X90330000Y-79568300D02*
X88991400Y-78229700D01*
%TO.N,A14*%
X77630000Y-75995800D02*
X74012800Y-72378600D01*
X77630000Y-83680000D02*
X77630000Y-75995800D01*
X69601800Y-47118400D02*
X69601800Y-51169000D01*
X65325000Y-42841600D02*
X69601800Y-47118400D01*
X65325000Y-41450000D02*
X65325000Y-42841600D01*
%TO.N,Net-(J1-~{RFSH})*%
X55165000Y-41450000D02*
X56266700Y-41450000D01*
X93200000Y-66180000D02*
X93200000Y-65128300D01*
X56266700Y-41312300D02*
X56266700Y-41450000D01*
X57246900Y-40332100D02*
X56266700Y-41312300D01*
X69304200Y-40332100D02*
X57246900Y-40332100D01*
X74482300Y-45510200D02*
X69304200Y-40332100D01*
X74482300Y-45865200D02*
X74482300Y-45510200D01*
X79181100Y-50564000D02*
X74482300Y-45865200D01*
X80046300Y-50564000D02*
X79181100Y-50564000D01*
X81896500Y-52414200D02*
X80046300Y-50564000D01*
X81896500Y-55957900D02*
X81896500Y-52414200D01*
X86455100Y-60516500D02*
X81896500Y-55957900D01*
X88588200Y-60516500D02*
X86455100Y-60516500D01*
X93200000Y-65128300D02*
X88588200Y-60516500D01*
%TO.N,A2*%
X70010000Y-78589900D02*
X70010000Y-83680000D01*
X66346700Y-74926600D02*
X70010000Y-78589900D01*
X66346700Y-54828400D02*
X66346700Y-74926600D01*
X65245000Y-53726700D02*
X66346700Y-54828400D01*
X65245000Y-52625000D02*
X65245000Y-53726700D01*
%TO.N,A13*%
X67865100Y-42551700D02*
X67865000Y-42551700D01*
X67865100Y-44691800D02*
X67865100Y-42551700D01*
X71607800Y-48434500D02*
X67865100Y-44691800D01*
X71607800Y-67252400D02*
X71607800Y-48434500D01*
X67865000Y-41450000D02*
X67865000Y-42551700D01*
X71607800Y-69122700D02*
X71607800Y-69021500D01*
X80170000Y-77684900D02*
X71607800Y-69122700D01*
X80170000Y-83680000D02*
X80170000Y-77684900D01*
%TO.N,A8*%
X90746700Y-77445000D02*
X92870000Y-79568300D01*
X85949000Y-77445000D02*
X90746700Y-77445000D01*
X76506700Y-68002700D02*
X85949000Y-77445000D01*
X76506700Y-67865000D02*
X76506700Y-68002700D01*
X75405000Y-67865000D02*
X76506700Y-67865000D01*
X92870000Y-83680000D02*
X92870000Y-79568300D01*
%TO.N,A7*%
X77945000Y-52625000D02*
X76843300Y-52625000D01*
X95410000Y-83680000D02*
X95410000Y-79568300D01*
X76843300Y-52487300D02*
X76843300Y-52625000D01*
X75857600Y-51501600D02*
X76843300Y-52487300D01*
X74942900Y-51501600D02*
X75857600Y-51501600D01*
X74295000Y-52149500D02*
X74942900Y-51501600D01*
X74295000Y-60934700D02*
X74295000Y-52149500D01*
X79215000Y-65854700D02*
X74295000Y-60934700D01*
X79215000Y-68181500D02*
X79215000Y-65854700D01*
X87676700Y-76643200D02*
X79215000Y-68181500D01*
X92484900Y-76643200D02*
X87676700Y-76643200D01*
X95410000Y-79568300D02*
X92484900Y-76643200D01*
%TO.N,A15*%
X75090000Y-78947300D02*
X75090000Y-83680000D01*
X68995700Y-72853000D02*
X75090000Y-78947300D01*
X68995700Y-48624700D02*
X68995700Y-72853000D01*
X62922700Y-42551700D02*
X68995700Y-48624700D01*
X62785000Y-42551700D02*
X62922700Y-42551700D01*
X62785000Y-41450000D02*
X62785000Y-42551700D01*
%TO.N,A4*%
X101487900Y-79568300D02*
X103030000Y-79568300D01*
X83949300Y-62029700D02*
X101487900Y-79568300D01*
X103030000Y-83680000D02*
X103030000Y-79568300D01*
%TO.N,A1*%
X62705000Y-52625000D02*
X62705000Y-53726700D01*
X67470000Y-83680000D02*
X67470000Y-79568300D01*
X64013000Y-76111300D02*
X67470000Y-79568300D01*
X64012900Y-76111300D02*
X64013000Y-76111300D01*
X64012900Y-55034600D02*
X64012900Y-76111300D01*
X62705000Y-53726700D02*
X64012900Y-55034600D01*
%TO.N,D0*%
X57625000Y-52625000D02*
X57625000Y-53726700D01*
X58726700Y-78591900D02*
X58129000Y-79189600D01*
X58726700Y-54828400D02*
X58726700Y-78591900D01*
X57625000Y-53726700D02*
X58726700Y-54828400D01*
%TO.N,A6*%
X75405000Y-52625000D02*
X75405000Y-53726700D01*
X97950000Y-83680000D02*
X97950000Y-79568300D01*
X75405000Y-57023300D02*
X97950000Y-79568300D01*
X75405000Y-53726700D02*
X75405000Y-57023300D01*
%TO.N,A12*%
X76570500Y-73428800D02*
X82710000Y-79568300D01*
X76570500Y-72505100D02*
X76570500Y-73428800D01*
X82710000Y-83680000D02*
X82710000Y-79568300D01*
%TO.N,A11*%
X70325000Y-67865000D02*
X71426700Y-67865000D01*
X85250000Y-83680000D02*
X85250000Y-79568300D01*
X84515600Y-79568300D02*
X85250000Y-79568300D01*
X76465300Y-71518000D02*
X84515600Y-79568300D01*
X74959900Y-71518000D02*
X76465300Y-71518000D01*
X71426700Y-67984800D02*
X74959900Y-71518000D01*
X71426700Y-67865000D02*
X71426700Y-67984800D01*
%TO.N,A3*%
X72550000Y-77667500D02*
X66954300Y-72071800D01*
X72550000Y-83680000D02*
X72550000Y-77667500D01*
%TO.N,D2*%
X52545000Y-52625000D02*
X52545000Y-53726700D01*
X53646700Y-71368000D02*
X54526300Y-72247600D01*
X53646700Y-54828400D02*
X53646700Y-71368000D01*
X52545000Y-53726700D02*
X53646700Y-54828400D01*
%TO.N,Net-(J1-~{ROMCS})*%
X105570000Y-77280000D02*
X105570000Y-83680000D01*
X95296700Y-67006700D02*
X105570000Y-77280000D01*
X95296700Y-66180000D02*
X95296700Y-67006700D01*
X94470000Y-66180000D02*
X95296700Y-66180000D01*
%TO.N,A5*%
X79097900Y-58176200D02*
X100490000Y-79568300D01*
X79097900Y-52158700D02*
X79097900Y-58176200D01*
X78002900Y-51063700D02*
X79097900Y-52158700D01*
X74426300Y-51063700D02*
X78002900Y-51063700D01*
X72865000Y-52625000D02*
X74426300Y-51063700D01*
X100490000Y-83680000D02*
X100490000Y-79568300D01*
%TO.N,A10*%
X87056400Y-78834700D02*
X87790000Y-79568300D01*
X84644600Y-78834700D02*
X87056400Y-78834700D01*
X83306000Y-77496100D02*
X84644600Y-78834700D01*
X87790000Y-83680000D02*
X87790000Y-79568300D01*
%TO.N,A0*%
X64930000Y-78992300D02*
X64930000Y-83680000D01*
X61266700Y-75329000D02*
X64930000Y-78992300D01*
X61266700Y-54828400D02*
X61266700Y-75329000D01*
X60165000Y-53726700D02*
X61266700Y-54828400D01*
X60165000Y-52625000D02*
X60165000Y-53726700D01*
%TO.N,+5V*%
X91930000Y-66180000D02*
X91103300Y-66180000D01*
X91103300Y-66078300D02*
X86650000Y-61625000D01*
X91103300Y-66180000D02*
X91103300Y-66078300D01*
X49690000Y-69650400D02*
X49690000Y-83680000D01*
X48901200Y-68861600D02*
X49690000Y-69650400D01*
X48901200Y-61773100D02*
X48901200Y-68861600D01*
X51100100Y-59574200D02*
X48901200Y-61773100D01*
%TO.N,GND*%
X86650000Y-59011700D02*
X86650000Y-59125000D01*
X95320000Y-50341700D02*
X86650000Y-59011700D01*
X95320000Y-49240000D02*
X95320000Y-50341700D01*
X51424900Y-73683200D02*
X57310000Y-79568300D01*
X51424900Y-64064700D02*
X51424900Y-73683200D01*
X51716500Y-63773100D02*
X51424900Y-64064700D01*
X51716500Y-55438200D02*
X51716500Y-63773100D01*
X50005000Y-53726700D02*
X51716500Y-55438200D01*
X50005000Y-52625000D02*
X50005000Y-53726700D01*
X58491600Y-79903700D02*
X57310000Y-79903700D01*
X58827000Y-79568300D02*
X58491600Y-79903700D01*
X59850000Y-79568300D02*
X58827000Y-79568300D01*
X57310000Y-83680000D02*
X57310000Y-79903700D01*
X57310000Y-79903700D02*
X57310000Y-79568300D01*
X59850000Y-83680000D02*
X59850000Y-79568300D01*
%TD*%
M02*
