M48
; DRILL file {KiCad 8.0.1} date 2024-04-15T13:45:35+0200
; FORMAT={-:-/ absolute / inch / decimal}
; #@! TF.CreationDate,2024-04-15T13:45:35+02:00
; #@! TF.GenerationSoftware,Kicad,Pcbnew,8.0.1
; #@! TF.FileFunction,Plated,1,2,PTH
FMAT,2
INCH
; #@! TA.AperFunction,Plated,PTH,ViaDrill
T1C0.0118
; #@! TA.AperFunction,Plated,PTH,ComponentDrill
T2C0.0295
; #@! TA.AperFunction,Plated,PTH,ComponentDrill
T3C0.0315
%
G90
G05
T1
X2.0118Y-2.3454
X2.1467Y-2.8444
X2.2554Y-3.0452
X2.2881Y-2.8647
X2.2885Y-3.1177
X2.636Y-2.8375
X2.7402Y-2.0145
X2.8192Y-2.6477
X2.8192Y-2.7174
X2.9139Y-2.8496
X3.0146Y-2.8545
X3.2798Y-3.051
X3.3051Y-2.4421
T2
X3.6193Y-2.6055
X3.6693Y-2.6055
X3.7193Y-2.6055
T3
X1.9687Y-2.0719
X1.9687Y-2.6719
X1.9719Y-1.6319
X1.9719Y-1.9319
X2.0687Y-2.0719
X2.0687Y-2.6719
X2.0719Y-1.6319
X2.0719Y-1.9319
X2.1687Y-2.0719
X2.1687Y-2.6719
X2.1719Y-1.6319
X2.1719Y-1.9319
X2.2687Y-2.0719
X2.2687Y-2.6719
X2.2719Y-1.6319
X2.2719Y-1.9319
X2.3687Y-2.0719
X2.3687Y-2.6719
X2.3719Y-1.6319
X2.3719Y-1.9319
X2.4687Y-2.0719
X2.4687Y-2.6719
X2.4719Y-1.6319
X2.4719Y-1.9319
X2.5687Y-2.0719
X2.5687Y-2.6719
X2.5719Y-1.6319
X2.5719Y-1.9319
X2.6687Y-2.0719
X2.6687Y-2.6719
X2.6719Y-1.6319
X2.6719Y-1.9319
X2.7687Y-2.0719
X2.7687Y-2.6719
X2.811Y-1.7323
X2.811Y-1.8307
X2.8687Y-2.0719
X2.8687Y-2.6719
X2.9687Y-2.0719
X2.9687Y-2.6719
X3.0687Y-2.0719
X3.0687Y-2.6719
X3.1687Y-2.0719
X3.1687Y-2.6719
X3.2687Y-2.0719
X3.2687Y-2.6719
X3.4114Y-2.3278
X3.4114Y-2.4262
X3.7528Y-1.6386
X3.7528Y-1.9386
X3.8528Y-1.6386
X3.8528Y-1.9386
X3.8846Y-2.2843
X3.8846Y-2.6843
X3.9528Y-1.6386
X3.9528Y-1.9386
X4.0136Y-2.285
X4.0136Y-2.685
X4.1435Y-2.2862
X4.1435Y-2.6862
M30
