%TF.GenerationSoftware,KiCad,Pcbnew,8.0.2*%
%TF.CreationDate,2024-05-18T23:24:33+02:00*%
%TF.ProjectId,zx81-external-eprom,7a783831-2d65-4787-9465-726e616c2d65,rev?*%
%TF.SameCoordinates,Original*%
%TF.FileFunction,Legend,Top*%
%TF.FilePolarity,Positive*%
%FSLAX46Y46*%
G04 Gerber Fmt 4.6, Leading zero omitted, Abs format (unit mm)*
G04 Created by KiCad (PCBNEW 8.0.2) date 2024-05-18 23:24:33*
%MOMM*%
%LPD*%
G01*
G04 APERTURE LIST*
%ADD10C,0.100000*%
%ADD11C,0.300000*%
%ADD12C,0.150000*%
%ADD13C,0.304800*%
%ADD14C,0.120000*%
G04 APERTURE END LIST*
D10*
X93885719Y-47004687D02*
X93409528Y-47338020D01*
X93885719Y-47576115D02*
X92885719Y-47576115D01*
X92885719Y-47576115D02*
X92885719Y-47195163D01*
X92885719Y-47195163D02*
X92933338Y-47099925D01*
X92933338Y-47099925D02*
X92980957Y-47052306D01*
X92980957Y-47052306D02*
X93076195Y-47004687D01*
X93076195Y-47004687D02*
X93219052Y-47004687D01*
X93219052Y-47004687D02*
X93314290Y-47052306D01*
X93314290Y-47052306D02*
X93361909Y-47099925D01*
X93361909Y-47099925D02*
X93409528Y-47195163D01*
X93409528Y-47195163D02*
X93409528Y-47576115D01*
X92885719Y-46385639D02*
X92885719Y-46195163D01*
X92885719Y-46195163D02*
X92933338Y-46099925D01*
X92933338Y-46099925D02*
X93028576Y-46004687D01*
X93028576Y-46004687D02*
X93219052Y-45957068D01*
X93219052Y-45957068D02*
X93552385Y-45957068D01*
X93552385Y-45957068D02*
X93742861Y-46004687D01*
X93742861Y-46004687D02*
X93838100Y-46099925D01*
X93838100Y-46099925D02*
X93885719Y-46195163D01*
X93885719Y-46195163D02*
X93885719Y-46385639D01*
X93885719Y-46385639D02*
X93838100Y-46480877D01*
X93838100Y-46480877D02*
X93742861Y-46576115D01*
X93742861Y-46576115D02*
X93552385Y-46623734D01*
X93552385Y-46623734D02*
X93219052Y-46623734D01*
X93219052Y-46623734D02*
X93028576Y-46576115D01*
X93028576Y-46576115D02*
X92933338Y-46480877D01*
X92933338Y-46480877D02*
X92885719Y-46385639D01*
X93885719Y-45528496D02*
X92885719Y-45528496D01*
X92885719Y-45528496D02*
X93600004Y-45195163D01*
X93600004Y-45195163D02*
X92885719Y-44861830D01*
X92885719Y-44861830D02*
X93885719Y-44861830D01*
X93838100Y-43671353D02*
X93885719Y-43576115D01*
X93885719Y-43576115D02*
X93885719Y-43385639D01*
X93885719Y-43385639D02*
X93838100Y-43290401D01*
X93838100Y-43290401D02*
X93742861Y-43242782D01*
X93742861Y-43242782D02*
X93695242Y-43242782D01*
X93695242Y-43242782D02*
X93600004Y-43290401D01*
X93600004Y-43290401D02*
X93552385Y-43385639D01*
X93552385Y-43385639D02*
X93552385Y-43528496D01*
X93552385Y-43528496D02*
X93504766Y-43623734D01*
X93504766Y-43623734D02*
X93409528Y-43671353D01*
X93409528Y-43671353D02*
X93361909Y-43671353D01*
X93361909Y-43671353D02*
X93266671Y-43623734D01*
X93266671Y-43623734D02*
X93219052Y-43528496D01*
X93219052Y-43528496D02*
X93219052Y-43385639D01*
X93219052Y-43385639D02*
X93266671Y-43290401D01*
X93838100Y-42433258D02*
X93885719Y-42528496D01*
X93885719Y-42528496D02*
X93885719Y-42718972D01*
X93885719Y-42718972D02*
X93838100Y-42814210D01*
X93838100Y-42814210D02*
X93742861Y-42861829D01*
X93742861Y-42861829D02*
X93361909Y-42861829D01*
X93361909Y-42861829D02*
X93266671Y-42814210D01*
X93266671Y-42814210D02*
X93219052Y-42718972D01*
X93219052Y-42718972D02*
X93219052Y-42528496D01*
X93219052Y-42528496D02*
X93266671Y-42433258D01*
X93266671Y-42433258D02*
X93361909Y-42385639D01*
X93361909Y-42385639D02*
X93457147Y-42385639D01*
X93457147Y-42385639D02*
X93552385Y-42861829D01*
X93885719Y-41814210D02*
X93838100Y-41909448D01*
X93838100Y-41909448D02*
X93742861Y-41957067D01*
X93742861Y-41957067D02*
X92885719Y-41957067D01*
X93838100Y-41052305D02*
X93885719Y-41147543D01*
X93885719Y-41147543D02*
X93885719Y-41338019D01*
X93885719Y-41338019D02*
X93838100Y-41433257D01*
X93838100Y-41433257D02*
X93742861Y-41480876D01*
X93742861Y-41480876D02*
X93361909Y-41480876D01*
X93361909Y-41480876D02*
X93266671Y-41433257D01*
X93266671Y-41433257D02*
X93219052Y-41338019D01*
X93219052Y-41338019D02*
X93219052Y-41147543D01*
X93219052Y-41147543D02*
X93266671Y-41052305D01*
X93266671Y-41052305D02*
X93361909Y-41004686D01*
X93361909Y-41004686D02*
X93457147Y-41004686D01*
X93457147Y-41004686D02*
X93552385Y-41480876D01*
X93838100Y-40147543D02*
X93885719Y-40242781D01*
X93885719Y-40242781D02*
X93885719Y-40433257D01*
X93885719Y-40433257D02*
X93838100Y-40528495D01*
X93838100Y-40528495D02*
X93790480Y-40576114D01*
X93790480Y-40576114D02*
X93695242Y-40623733D01*
X93695242Y-40623733D02*
X93409528Y-40623733D01*
X93409528Y-40623733D02*
X93314290Y-40576114D01*
X93314290Y-40576114D02*
X93266671Y-40528495D01*
X93266671Y-40528495D02*
X93219052Y-40433257D01*
X93219052Y-40433257D02*
X93219052Y-40242781D01*
X93219052Y-40242781D02*
X93266671Y-40147543D01*
X93219052Y-39861828D02*
X93219052Y-39480876D01*
X92885719Y-39718971D02*
X93742861Y-39718971D01*
X93742861Y-39718971D02*
X93838100Y-39671352D01*
X93838100Y-39671352D02*
X93885719Y-39576114D01*
X93885719Y-39576114D02*
X93885719Y-39480876D01*
D11*
X54261653Y-70370828D02*
X55261653Y-70370828D01*
X55261653Y-70370828D02*
X54261653Y-71870828D01*
X54261653Y-71870828D02*
X55261653Y-71870828D01*
X55690224Y-70370828D02*
X56690224Y-71870828D01*
X56690224Y-70370828D02*
X55690224Y-71870828D01*
X57475938Y-71013685D02*
X57333081Y-70942257D01*
X57333081Y-70942257D02*
X57261652Y-70870828D01*
X57261652Y-70870828D02*
X57190224Y-70727971D01*
X57190224Y-70727971D02*
X57190224Y-70656542D01*
X57190224Y-70656542D02*
X57261652Y-70513685D01*
X57261652Y-70513685D02*
X57333081Y-70442257D01*
X57333081Y-70442257D02*
X57475938Y-70370828D01*
X57475938Y-70370828D02*
X57761652Y-70370828D01*
X57761652Y-70370828D02*
X57904510Y-70442257D01*
X57904510Y-70442257D02*
X57975938Y-70513685D01*
X57975938Y-70513685D02*
X58047367Y-70656542D01*
X58047367Y-70656542D02*
X58047367Y-70727971D01*
X58047367Y-70727971D02*
X57975938Y-70870828D01*
X57975938Y-70870828D02*
X57904510Y-70942257D01*
X57904510Y-70942257D02*
X57761652Y-71013685D01*
X57761652Y-71013685D02*
X57475938Y-71013685D01*
X57475938Y-71013685D02*
X57333081Y-71085114D01*
X57333081Y-71085114D02*
X57261652Y-71156542D01*
X57261652Y-71156542D02*
X57190224Y-71299400D01*
X57190224Y-71299400D02*
X57190224Y-71585114D01*
X57190224Y-71585114D02*
X57261652Y-71727971D01*
X57261652Y-71727971D02*
X57333081Y-71799400D01*
X57333081Y-71799400D02*
X57475938Y-71870828D01*
X57475938Y-71870828D02*
X57761652Y-71870828D01*
X57761652Y-71870828D02*
X57904510Y-71799400D01*
X57904510Y-71799400D02*
X57975938Y-71727971D01*
X57975938Y-71727971D02*
X58047367Y-71585114D01*
X58047367Y-71585114D02*
X58047367Y-71299400D01*
X58047367Y-71299400D02*
X57975938Y-71156542D01*
X57975938Y-71156542D02*
X57904510Y-71085114D01*
X57904510Y-71085114D02*
X57761652Y-71013685D01*
X59475938Y-71870828D02*
X58618795Y-71870828D01*
X59047366Y-71870828D02*
X59047366Y-70370828D01*
X59047366Y-70370828D02*
X58904509Y-70585114D01*
X58904509Y-70585114D02*
X58761652Y-70727971D01*
X58761652Y-70727971D02*
X58618795Y-70799400D01*
X61261651Y-71085114D02*
X61761651Y-71085114D01*
X61975937Y-71870828D02*
X61261651Y-71870828D01*
X61261651Y-71870828D02*
X61261651Y-70370828D01*
X61261651Y-70370828D02*
X61975937Y-70370828D01*
X62475937Y-71870828D02*
X63261652Y-70870828D01*
X62475937Y-70870828D02*
X63261652Y-71870828D01*
X63618795Y-70870828D02*
X64190223Y-70870828D01*
X63833080Y-70370828D02*
X63833080Y-71656542D01*
X63833080Y-71656542D02*
X63904509Y-71799400D01*
X63904509Y-71799400D02*
X64047366Y-71870828D01*
X64047366Y-71870828D02*
X64190223Y-71870828D01*
X65261652Y-71799400D02*
X65118795Y-71870828D01*
X65118795Y-71870828D02*
X64833081Y-71870828D01*
X64833081Y-71870828D02*
X64690223Y-71799400D01*
X64690223Y-71799400D02*
X64618795Y-71656542D01*
X64618795Y-71656542D02*
X64618795Y-71085114D01*
X64618795Y-71085114D02*
X64690223Y-70942257D01*
X64690223Y-70942257D02*
X64833081Y-70870828D01*
X64833081Y-70870828D02*
X65118795Y-70870828D01*
X65118795Y-70870828D02*
X65261652Y-70942257D01*
X65261652Y-70942257D02*
X65333081Y-71085114D01*
X65333081Y-71085114D02*
X65333081Y-71227971D01*
X65333081Y-71227971D02*
X64618795Y-71370828D01*
X65975937Y-71870828D02*
X65975937Y-70870828D01*
X65975937Y-71156542D02*
X66047366Y-71013685D01*
X66047366Y-71013685D02*
X66118795Y-70942257D01*
X66118795Y-70942257D02*
X66261652Y-70870828D01*
X66261652Y-70870828D02*
X66404509Y-70870828D01*
X66904508Y-70870828D02*
X66904508Y-71870828D01*
X66904508Y-71013685D02*
X66975937Y-70942257D01*
X66975937Y-70942257D02*
X67118794Y-70870828D01*
X67118794Y-70870828D02*
X67333080Y-70870828D01*
X67333080Y-70870828D02*
X67475937Y-70942257D01*
X67475937Y-70942257D02*
X67547366Y-71085114D01*
X67547366Y-71085114D02*
X67547366Y-71870828D01*
X68904509Y-71870828D02*
X68904509Y-71085114D01*
X68904509Y-71085114D02*
X68833080Y-70942257D01*
X68833080Y-70942257D02*
X68690223Y-70870828D01*
X68690223Y-70870828D02*
X68404509Y-70870828D01*
X68404509Y-70870828D02*
X68261651Y-70942257D01*
X68904509Y-71799400D02*
X68761651Y-71870828D01*
X68761651Y-71870828D02*
X68404509Y-71870828D01*
X68404509Y-71870828D02*
X68261651Y-71799400D01*
X68261651Y-71799400D02*
X68190223Y-71656542D01*
X68190223Y-71656542D02*
X68190223Y-71513685D01*
X68190223Y-71513685D02*
X68261651Y-71370828D01*
X68261651Y-71370828D02*
X68404509Y-71299400D01*
X68404509Y-71299400D02*
X68761651Y-71299400D01*
X68761651Y-71299400D02*
X68904509Y-71227971D01*
X69833080Y-71870828D02*
X69690223Y-71799400D01*
X69690223Y-71799400D02*
X69618794Y-71656542D01*
X69618794Y-71656542D02*
X69618794Y-70370828D01*
X71547365Y-71085114D02*
X72047365Y-71085114D01*
X72261651Y-71870828D02*
X71547365Y-71870828D01*
X71547365Y-71870828D02*
X71547365Y-70370828D01*
X71547365Y-70370828D02*
X72261651Y-70370828D01*
X72904508Y-71870828D02*
X72904508Y-70370828D01*
X72904508Y-70370828D02*
X73475937Y-70370828D01*
X73475937Y-70370828D02*
X73618794Y-70442257D01*
X73618794Y-70442257D02*
X73690223Y-70513685D01*
X73690223Y-70513685D02*
X73761651Y-70656542D01*
X73761651Y-70656542D02*
X73761651Y-70870828D01*
X73761651Y-70870828D02*
X73690223Y-71013685D01*
X73690223Y-71013685D02*
X73618794Y-71085114D01*
X73618794Y-71085114D02*
X73475937Y-71156542D01*
X73475937Y-71156542D02*
X72904508Y-71156542D01*
X75261651Y-71870828D02*
X74761651Y-71156542D01*
X74404508Y-71870828D02*
X74404508Y-70370828D01*
X74404508Y-70370828D02*
X74975937Y-70370828D01*
X74975937Y-70370828D02*
X75118794Y-70442257D01*
X75118794Y-70442257D02*
X75190223Y-70513685D01*
X75190223Y-70513685D02*
X75261651Y-70656542D01*
X75261651Y-70656542D02*
X75261651Y-70870828D01*
X75261651Y-70870828D02*
X75190223Y-71013685D01*
X75190223Y-71013685D02*
X75118794Y-71085114D01*
X75118794Y-71085114D02*
X74975937Y-71156542D01*
X74975937Y-71156542D02*
X74404508Y-71156542D01*
X76190223Y-70370828D02*
X76475937Y-70370828D01*
X76475937Y-70370828D02*
X76618794Y-70442257D01*
X76618794Y-70442257D02*
X76761651Y-70585114D01*
X76761651Y-70585114D02*
X76833080Y-70870828D01*
X76833080Y-70870828D02*
X76833080Y-71370828D01*
X76833080Y-71370828D02*
X76761651Y-71656542D01*
X76761651Y-71656542D02*
X76618794Y-71799400D01*
X76618794Y-71799400D02*
X76475937Y-71870828D01*
X76475937Y-71870828D02*
X76190223Y-71870828D01*
X76190223Y-71870828D02*
X76047366Y-71799400D01*
X76047366Y-71799400D02*
X75904508Y-71656542D01*
X75904508Y-71656542D02*
X75833080Y-71370828D01*
X75833080Y-71370828D02*
X75833080Y-70870828D01*
X75833080Y-70870828D02*
X75904508Y-70585114D01*
X75904508Y-70585114D02*
X76047366Y-70442257D01*
X76047366Y-70442257D02*
X76190223Y-70370828D01*
X77475937Y-71870828D02*
X77475937Y-70370828D01*
X77475937Y-70370828D02*
X77975937Y-71442257D01*
X77975937Y-71442257D02*
X78475937Y-70370828D01*
X78475937Y-70370828D02*
X78475937Y-71870828D01*
X80190223Y-70870828D02*
X80547366Y-71870828D01*
X80547366Y-71870828D02*
X80904509Y-70870828D01*
X82261652Y-71870828D02*
X81404509Y-71870828D01*
X81833080Y-71870828D02*
X81833080Y-70370828D01*
X81833080Y-70370828D02*
X81690223Y-70585114D01*
X81690223Y-70585114D02*
X81547366Y-70727971D01*
X81547366Y-70727971D02*
X81404509Y-70799400D01*
X82904508Y-71727971D02*
X82975937Y-71799400D01*
X82975937Y-71799400D02*
X82904508Y-71870828D01*
X82904508Y-71870828D02*
X82833080Y-71799400D01*
X82833080Y-71799400D02*
X82904508Y-71727971D01*
X82904508Y-71727971D02*
X82904508Y-71870828D01*
X83547366Y-70513685D02*
X83618794Y-70442257D01*
X83618794Y-70442257D02*
X83761652Y-70370828D01*
X83761652Y-70370828D02*
X84118794Y-70370828D01*
X84118794Y-70370828D02*
X84261652Y-70442257D01*
X84261652Y-70442257D02*
X84333080Y-70513685D01*
X84333080Y-70513685D02*
X84404509Y-70656542D01*
X84404509Y-70656542D02*
X84404509Y-70799400D01*
X84404509Y-70799400D02*
X84333080Y-71013685D01*
X84333080Y-71013685D02*
X83475937Y-71870828D01*
X83475937Y-71870828D02*
X84404509Y-71870828D01*
X86190222Y-71299400D02*
X87333080Y-71299400D01*
X89190222Y-71870828D02*
X89190222Y-70370828D01*
X89190222Y-70942257D02*
X89333080Y-70870828D01*
X89333080Y-70870828D02*
X89618794Y-70870828D01*
X89618794Y-70870828D02*
X89761651Y-70942257D01*
X89761651Y-70942257D02*
X89833080Y-71013685D01*
X89833080Y-71013685D02*
X89904508Y-71156542D01*
X89904508Y-71156542D02*
X89904508Y-71585114D01*
X89904508Y-71585114D02*
X89833080Y-71727971D01*
X89833080Y-71727971D02*
X89761651Y-71799400D01*
X89761651Y-71799400D02*
X89618794Y-71870828D01*
X89618794Y-71870828D02*
X89333080Y-71870828D01*
X89333080Y-71870828D02*
X89190222Y-71799400D01*
X90404508Y-70870828D02*
X90761651Y-71870828D01*
X91118794Y-70870828D02*
X90761651Y-71870828D01*
X90761651Y-71870828D02*
X90618794Y-72227971D01*
X90618794Y-72227971D02*
X90547365Y-72299400D01*
X90547365Y-72299400D02*
X90404508Y-72370828D01*
X92690222Y-70370828D02*
X93690222Y-70370828D01*
X93690222Y-70370828D02*
X92690222Y-71870828D01*
X92690222Y-71870828D02*
X93690222Y-71870828D01*
X94118793Y-70370828D02*
X95118793Y-71870828D01*
X95118793Y-70370828D02*
X94118793Y-71870828D01*
X95690221Y-71870828D02*
X95690221Y-70370828D01*
X96404507Y-71870828D02*
X96404507Y-70370828D01*
X96404507Y-70370828D02*
X97261650Y-71870828D01*
X97261650Y-71870828D02*
X97261650Y-70370828D01*
X98475936Y-71085114D02*
X97975936Y-71085114D01*
X97975936Y-71870828D02*
X97975936Y-70370828D01*
X97975936Y-70370828D02*
X98690222Y-70370828D01*
X99547365Y-70370828D02*
X99833079Y-70370828D01*
X99833079Y-70370828D02*
X99975936Y-70442257D01*
X99975936Y-70442257D02*
X100118793Y-70585114D01*
X100118793Y-70585114D02*
X100190222Y-70870828D01*
X100190222Y-70870828D02*
X100190222Y-71370828D01*
X100190222Y-71370828D02*
X100118793Y-71656542D01*
X100118793Y-71656542D02*
X99975936Y-71799400D01*
X99975936Y-71799400D02*
X99833079Y-71870828D01*
X99833079Y-71870828D02*
X99547365Y-71870828D01*
X99547365Y-71870828D02*
X99404508Y-71799400D01*
X99404508Y-71799400D02*
X99261650Y-71656542D01*
X99261650Y-71656542D02*
X99190222Y-71370828D01*
X99190222Y-71370828D02*
X99190222Y-70870828D01*
X99190222Y-70870828D02*
X99261650Y-70585114D01*
X99261650Y-70585114D02*
X99404508Y-70442257D01*
X99404508Y-70442257D02*
X99547365Y-70370828D01*
D10*
X104105312Y-37816895D02*
X103648169Y-37816895D01*
X103876741Y-37816895D02*
X103876741Y-37016895D01*
X103876741Y-37016895D02*
X103800550Y-37131180D01*
X103800550Y-37131180D02*
X103724360Y-37207371D01*
X103724360Y-37207371D02*
X103648169Y-37245466D01*
X104791027Y-37016895D02*
X104638646Y-37016895D01*
X104638646Y-37016895D02*
X104562455Y-37054990D01*
X104562455Y-37054990D02*
X104524360Y-37093085D01*
X104524360Y-37093085D02*
X104448170Y-37207371D01*
X104448170Y-37207371D02*
X104410074Y-37359752D01*
X104410074Y-37359752D02*
X104410074Y-37664514D01*
X104410074Y-37664514D02*
X104448170Y-37740704D01*
X104448170Y-37740704D02*
X104486265Y-37778800D01*
X104486265Y-37778800D02*
X104562455Y-37816895D01*
X104562455Y-37816895D02*
X104714836Y-37816895D01*
X104714836Y-37816895D02*
X104791027Y-37778800D01*
X104791027Y-37778800D02*
X104829122Y-37740704D01*
X104829122Y-37740704D02*
X104867217Y-37664514D01*
X104867217Y-37664514D02*
X104867217Y-37474038D01*
X104867217Y-37474038D02*
X104829122Y-37397847D01*
X104829122Y-37397847D02*
X104791027Y-37359752D01*
X104791027Y-37359752D02*
X104714836Y-37321657D01*
X104714836Y-37321657D02*
X104562455Y-37321657D01*
X104562455Y-37321657D02*
X104486265Y-37359752D01*
X104486265Y-37359752D02*
X104448170Y-37397847D01*
X104448170Y-37397847D02*
X104410074Y-37474038D01*
X105781503Y-36978800D02*
X105095789Y-38007371D01*
X106162455Y-37359752D02*
X106086265Y-37321657D01*
X106086265Y-37321657D02*
X106048170Y-37283561D01*
X106048170Y-37283561D02*
X106010074Y-37207371D01*
X106010074Y-37207371D02*
X106010074Y-37169276D01*
X106010074Y-37169276D02*
X106048170Y-37093085D01*
X106048170Y-37093085D02*
X106086265Y-37054990D01*
X106086265Y-37054990D02*
X106162455Y-37016895D01*
X106162455Y-37016895D02*
X106314836Y-37016895D01*
X106314836Y-37016895D02*
X106391027Y-37054990D01*
X106391027Y-37054990D02*
X106429122Y-37093085D01*
X106429122Y-37093085D02*
X106467217Y-37169276D01*
X106467217Y-37169276D02*
X106467217Y-37207371D01*
X106467217Y-37207371D02*
X106429122Y-37283561D01*
X106429122Y-37283561D02*
X106391027Y-37321657D01*
X106391027Y-37321657D02*
X106314836Y-37359752D01*
X106314836Y-37359752D02*
X106162455Y-37359752D01*
X106162455Y-37359752D02*
X106086265Y-37397847D01*
X106086265Y-37397847D02*
X106048170Y-37435942D01*
X106048170Y-37435942D02*
X106010074Y-37512133D01*
X106010074Y-37512133D02*
X106010074Y-37664514D01*
X106010074Y-37664514D02*
X106048170Y-37740704D01*
X106048170Y-37740704D02*
X106086265Y-37778800D01*
X106086265Y-37778800D02*
X106162455Y-37816895D01*
X106162455Y-37816895D02*
X106314836Y-37816895D01*
X106314836Y-37816895D02*
X106391027Y-37778800D01*
X106391027Y-37778800D02*
X106429122Y-37740704D01*
X106429122Y-37740704D02*
X106467217Y-37664514D01*
X106467217Y-37664514D02*
X106467217Y-37512133D01*
X106467217Y-37512133D02*
X106429122Y-37435942D01*
X106429122Y-37435942D02*
X106391027Y-37397847D01*
X106391027Y-37397847D02*
X106314836Y-37359752D01*
X106810075Y-37816895D02*
X106810075Y-37016895D01*
X107267218Y-37816895D02*
X106924360Y-37359752D01*
X107267218Y-37016895D02*
X106810075Y-37474038D01*
X96531469Y-37598323D02*
X96912422Y-37598323D01*
X96455279Y-37826895D02*
X96721946Y-37026895D01*
X96721946Y-37026895D02*
X96988612Y-37826895D01*
X97674326Y-37826895D02*
X97217183Y-37826895D01*
X97445755Y-37826895D02*
X97445755Y-37026895D01*
X97445755Y-37026895D02*
X97369564Y-37141180D01*
X97369564Y-37141180D02*
X97293374Y-37217371D01*
X97293374Y-37217371D02*
X97217183Y-37255466D01*
X98398136Y-37026895D02*
X98017184Y-37026895D01*
X98017184Y-37026895D02*
X97979088Y-37407847D01*
X97979088Y-37407847D02*
X98017184Y-37369752D01*
X98017184Y-37369752D02*
X98093374Y-37331657D01*
X98093374Y-37331657D02*
X98283850Y-37331657D01*
X98283850Y-37331657D02*
X98360041Y-37369752D01*
X98360041Y-37369752D02*
X98398136Y-37407847D01*
X98398136Y-37407847D02*
X98436231Y-37484038D01*
X98436231Y-37484038D02*
X98436231Y-37674514D01*
X98436231Y-37674514D02*
X98398136Y-37750704D01*
X98398136Y-37750704D02*
X98360041Y-37788800D01*
X98360041Y-37788800D02*
X98283850Y-37826895D01*
X98283850Y-37826895D02*
X98093374Y-37826895D01*
X98093374Y-37826895D02*
X98017184Y-37788800D01*
X98017184Y-37788800D02*
X97979088Y-37750704D01*
X98740993Y-37598323D02*
X99121946Y-37598323D01*
X98664803Y-37826895D02*
X98931470Y-37026895D01*
X98931470Y-37026895D02*
X99198136Y-37826895D01*
X99883850Y-37826895D02*
X99426707Y-37826895D01*
X99655279Y-37826895D02*
X99655279Y-37026895D01*
X99655279Y-37026895D02*
X99579088Y-37141180D01*
X99579088Y-37141180D02*
X99502898Y-37217371D01*
X99502898Y-37217371D02*
X99426707Y-37255466D01*
X100569565Y-37293561D02*
X100569565Y-37826895D01*
X100379089Y-36988800D02*
X100188612Y-37560228D01*
X100188612Y-37560228D02*
X100683851Y-37560228D01*
X100950517Y-37598323D02*
X101331470Y-37598323D01*
X100874327Y-37826895D02*
X101140994Y-37026895D01*
X101140994Y-37026895D02*
X101407660Y-37826895D01*
X102093374Y-37826895D02*
X101636231Y-37826895D01*
X101864803Y-37826895D02*
X101864803Y-37026895D01*
X101864803Y-37026895D02*
X101788612Y-37141180D01*
X101788612Y-37141180D02*
X101712422Y-37217371D01*
X101712422Y-37217371D02*
X101636231Y-37255466D01*
X102360041Y-37026895D02*
X102855279Y-37026895D01*
X102855279Y-37026895D02*
X102588613Y-37331657D01*
X102588613Y-37331657D02*
X102702898Y-37331657D01*
X102702898Y-37331657D02*
X102779089Y-37369752D01*
X102779089Y-37369752D02*
X102817184Y-37407847D01*
X102817184Y-37407847D02*
X102855279Y-37484038D01*
X102855279Y-37484038D02*
X102855279Y-37674514D01*
X102855279Y-37674514D02*
X102817184Y-37750704D01*
X102817184Y-37750704D02*
X102779089Y-37788800D01*
X102779089Y-37788800D02*
X102702898Y-37826895D01*
X102702898Y-37826895D02*
X102474327Y-37826895D01*
X102474327Y-37826895D02*
X102398136Y-37788800D01*
X102398136Y-37788800D02*
X102360041Y-37750704D01*
X50182898Y-64282419D02*
X50182898Y-64996704D01*
X50182898Y-64996704D02*
X50135279Y-65139561D01*
X50135279Y-65139561D02*
X50040041Y-65234800D01*
X50040041Y-65234800D02*
X49897184Y-65282419D01*
X49897184Y-65282419D02*
X49801946Y-65282419D01*
X51135279Y-65282419D02*
X50659089Y-65282419D01*
X50659089Y-65282419D02*
X50659089Y-64282419D01*
X52040041Y-65187180D02*
X51992422Y-65234800D01*
X51992422Y-65234800D02*
X51849565Y-65282419D01*
X51849565Y-65282419D02*
X51754327Y-65282419D01*
X51754327Y-65282419D02*
X51611470Y-65234800D01*
X51611470Y-65234800D02*
X51516232Y-65139561D01*
X51516232Y-65139561D02*
X51468613Y-65044323D01*
X51468613Y-65044323D02*
X51420994Y-64853847D01*
X51420994Y-64853847D02*
X51420994Y-64710990D01*
X51420994Y-64710990D02*
X51468613Y-64520514D01*
X51468613Y-64520514D02*
X51516232Y-64425276D01*
X51516232Y-64425276D02*
X51611470Y-64330038D01*
X51611470Y-64330038D02*
X51754327Y-64282419D01*
X51754327Y-64282419D02*
X51849565Y-64282419D01*
X51849565Y-64282419D02*
X51992422Y-64330038D01*
X51992422Y-64330038D02*
X52040041Y-64377657D01*
X52754327Y-64282419D02*
X52754327Y-64996704D01*
X52754327Y-64996704D02*
X52706708Y-65139561D01*
X52706708Y-65139561D02*
X52611470Y-65234800D01*
X52611470Y-65234800D02*
X52468613Y-65282419D01*
X52468613Y-65282419D02*
X52373375Y-65282419D01*
X53706708Y-65282419D02*
X53230518Y-65282419D01*
X53230518Y-65282419D02*
X53230518Y-64282419D01*
X54611470Y-65187180D02*
X54563851Y-65234800D01*
X54563851Y-65234800D02*
X54420994Y-65282419D01*
X54420994Y-65282419D02*
X54325756Y-65282419D01*
X54325756Y-65282419D02*
X54182899Y-65234800D01*
X54182899Y-65234800D02*
X54087661Y-65139561D01*
X54087661Y-65139561D02*
X54040042Y-65044323D01*
X54040042Y-65044323D02*
X53992423Y-64853847D01*
X53992423Y-64853847D02*
X53992423Y-64710990D01*
X53992423Y-64710990D02*
X54040042Y-64520514D01*
X54040042Y-64520514D02*
X54087661Y-64425276D01*
X54087661Y-64425276D02*
X54182899Y-64330038D01*
X54182899Y-64330038D02*
X54325756Y-64282419D01*
X54325756Y-64282419D02*
X54420994Y-64282419D01*
X54420994Y-64282419D02*
X54563851Y-64330038D01*
X54563851Y-64330038D02*
X54611470Y-64377657D01*
X55325756Y-64282419D02*
X55325756Y-64996704D01*
X55325756Y-64996704D02*
X55278137Y-65139561D01*
X55278137Y-65139561D02*
X55182899Y-65234800D01*
X55182899Y-65234800D02*
X55040042Y-65282419D01*
X55040042Y-65282419D02*
X54944804Y-65282419D01*
X56278137Y-65282419D02*
X55801947Y-65282419D01*
X55801947Y-65282419D02*
X55801947Y-64282419D01*
X57182899Y-65187180D02*
X57135280Y-65234800D01*
X57135280Y-65234800D02*
X56992423Y-65282419D01*
X56992423Y-65282419D02*
X56897185Y-65282419D01*
X56897185Y-65282419D02*
X56754328Y-65234800D01*
X56754328Y-65234800D02*
X56659090Y-65139561D01*
X56659090Y-65139561D02*
X56611471Y-65044323D01*
X56611471Y-65044323D02*
X56563852Y-64853847D01*
X56563852Y-64853847D02*
X56563852Y-64710990D01*
X56563852Y-64710990D02*
X56611471Y-64520514D01*
X56611471Y-64520514D02*
X56659090Y-64425276D01*
X56659090Y-64425276D02*
X56754328Y-64330038D01*
X56754328Y-64330038D02*
X56897185Y-64282419D01*
X56897185Y-64282419D02*
X56992423Y-64282419D01*
X56992423Y-64282419D02*
X57135280Y-64330038D01*
X57135280Y-64330038D02*
X57182899Y-64377657D01*
X57897185Y-64282419D02*
X57897185Y-64996704D01*
X57897185Y-64996704D02*
X57849566Y-65139561D01*
X57849566Y-65139561D02*
X57754328Y-65234800D01*
X57754328Y-65234800D02*
X57611471Y-65282419D01*
X57611471Y-65282419D02*
X57516233Y-65282419D01*
X58849566Y-65282419D02*
X58373376Y-65282419D01*
X58373376Y-65282419D02*
X58373376Y-64282419D01*
X59754328Y-65187180D02*
X59706709Y-65234800D01*
X59706709Y-65234800D02*
X59563852Y-65282419D01*
X59563852Y-65282419D02*
X59468614Y-65282419D01*
X59468614Y-65282419D02*
X59325757Y-65234800D01*
X59325757Y-65234800D02*
X59230519Y-65139561D01*
X59230519Y-65139561D02*
X59182900Y-65044323D01*
X59182900Y-65044323D02*
X59135281Y-64853847D01*
X59135281Y-64853847D02*
X59135281Y-64710990D01*
X59135281Y-64710990D02*
X59182900Y-64520514D01*
X59182900Y-64520514D02*
X59230519Y-64425276D01*
X59230519Y-64425276D02*
X59325757Y-64330038D01*
X59325757Y-64330038D02*
X59468614Y-64282419D01*
X59468614Y-64282419D02*
X59563852Y-64282419D01*
X59563852Y-64282419D02*
X59706709Y-64330038D01*
X59706709Y-64330038D02*
X59754328Y-64377657D01*
D12*
X102434819Y-58640476D02*
X102434819Y-59211904D01*
X102434819Y-58926190D02*
X101434819Y-58926190D01*
X101434819Y-58926190D02*
X101577676Y-59021428D01*
X101577676Y-59021428D02*
X101672914Y-59116666D01*
X101672914Y-59116666D02*
X101720533Y-59211904D01*
X101434819Y-58021428D02*
X101434819Y-57926190D01*
X101434819Y-57926190D02*
X101482438Y-57830952D01*
X101482438Y-57830952D02*
X101530057Y-57783333D01*
X101530057Y-57783333D02*
X101625295Y-57735714D01*
X101625295Y-57735714D02*
X101815771Y-57688095D01*
X101815771Y-57688095D02*
X102053866Y-57688095D01*
X102053866Y-57688095D02*
X102244342Y-57735714D01*
X102244342Y-57735714D02*
X102339580Y-57783333D01*
X102339580Y-57783333D02*
X102387200Y-57830952D01*
X102387200Y-57830952D02*
X102434819Y-57926190D01*
X102434819Y-57926190D02*
X102434819Y-58021428D01*
X102434819Y-58021428D02*
X102387200Y-58116666D01*
X102387200Y-58116666D02*
X102339580Y-58164285D01*
X102339580Y-58164285D02*
X102244342Y-58211904D01*
X102244342Y-58211904D02*
X102053866Y-58259523D01*
X102053866Y-58259523D02*
X101815771Y-58259523D01*
X101815771Y-58259523D02*
X101625295Y-58211904D01*
X101625295Y-58211904D02*
X101530057Y-58164285D01*
X101530057Y-58164285D02*
X101482438Y-58116666D01*
X101482438Y-58116666D02*
X101434819Y-58021428D01*
X102434819Y-57259523D02*
X101434819Y-57259523D01*
X102434819Y-56688095D02*
X101863390Y-57116666D01*
X101434819Y-56688095D02*
X102006247Y-57259523D01*
X75985680Y-37794819D02*
X75414252Y-37794819D01*
X75699966Y-37794819D02*
X75699966Y-36794819D01*
X75699966Y-36794819D02*
X75604728Y-36937676D01*
X75604728Y-36937676D02*
X75509490Y-37032914D01*
X75509490Y-37032914D02*
X75414252Y-37080533D01*
X76604728Y-36794819D02*
X76699966Y-36794819D01*
X76699966Y-36794819D02*
X76795204Y-36842438D01*
X76795204Y-36842438D02*
X76842823Y-36890057D01*
X76842823Y-36890057D02*
X76890442Y-36985295D01*
X76890442Y-36985295D02*
X76938061Y-37175771D01*
X76938061Y-37175771D02*
X76938061Y-37413866D01*
X76938061Y-37413866D02*
X76890442Y-37604342D01*
X76890442Y-37604342D02*
X76842823Y-37699580D01*
X76842823Y-37699580D02*
X76795204Y-37747200D01*
X76795204Y-37747200D02*
X76699966Y-37794819D01*
X76699966Y-37794819D02*
X76604728Y-37794819D01*
X76604728Y-37794819D02*
X76509490Y-37747200D01*
X76509490Y-37747200D02*
X76461871Y-37699580D01*
X76461871Y-37699580D02*
X76414252Y-37604342D01*
X76414252Y-37604342D02*
X76366633Y-37413866D01*
X76366633Y-37413866D02*
X76366633Y-37175771D01*
X76366633Y-37175771D02*
X76414252Y-36985295D01*
X76414252Y-36985295D02*
X76461871Y-36890057D01*
X76461871Y-36890057D02*
X76509490Y-36842438D01*
X76509490Y-36842438D02*
X76604728Y-36794819D01*
X77557109Y-36794819D02*
X77652347Y-36794819D01*
X77652347Y-36794819D02*
X77747585Y-36842438D01*
X77747585Y-36842438D02*
X77795204Y-36890057D01*
X77795204Y-36890057D02*
X77842823Y-36985295D01*
X77842823Y-36985295D02*
X77890442Y-37175771D01*
X77890442Y-37175771D02*
X77890442Y-37413866D01*
X77890442Y-37413866D02*
X77842823Y-37604342D01*
X77842823Y-37604342D02*
X77795204Y-37699580D01*
X77795204Y-37699580D02*
X77747585Y-37747200D01*
X77747585Y-37747200D02*
X77652347Y-37794819D01*
X77652347Y-37794819D02*
X77557109Y-37794819D01*
X77557109Y-37794819D02*
X77461871Y-37747200D01*
X77461871Y-37747200D02*
X77414252Y-37699580D01*
X77414252Y-37699580D02*
X77366633Y-37604342D01*
X77366633Y-37604342D02*
X77319014Y-37413866D01*
X77319014Y-37413866D02*
X77319014Y-37175771D01*
X77319014Y-37175771D02*
X77366633Y-36985295D01*
X77366633Y-36985295D02*
X77414252Y-36890057D01*
X77414252Y-36890057D02*
X77461871Y-36842438D01*
X77461871Y-36842438D02*
X77557109Y-36794819D01*
X78319014Y-37128152D02*
X78319014Y-37794819D01*
X78319014Y-37223390D02*
X78366633Y-37175771D01*
X78366633Y-37175771D02*
X78461871Y-37128152D01*
X78461871Y-37128152D02*
X78604728Y-37128152D01*
X78604728Y-37128152D02*
X78699966Y-37175771D01*
X78699966Y-37175771D02*
X78747585Y-37271009D01*
X78747585Y-37271009D02*
X78747585Y-37794819D01*
X79557109Y-37271009D02*
X79223776Y-37271009D01*
X79223776Y-37794819D02*
X79223776Y-36794819D01*
X79223776Y-36794819D02*
X79699966Y-36794819D01*
D13*
X78216599Y-95895181D02*
X78216599Y-96983752D01*
X78216599Y-96983752D02*
X78144028Y-97201467D01*
X78144028Y-97201467D02*
X77998885Y-97346610D01*
X77998885Y-97346610D02*
X77781171Y-97419181D01*
X77781171Y-97419181D02*
X77636028Y-97419181D01*
X79740599Y-97419181D02*
X78869742Y-97419181D01*
X79305171Y-97419181D02*
X79305171Y-95895181D01*
X79305171Y-95895181D02*
X79160028Y-96112895D01*
X79160028Y-96112895D02*
X79014885Y-96258038D01*
X79014885Y-96258038D02*
X78869742Y-96330610D01*
D10*
X92766483Y-76692782D02*
X92814102Y-76549925D01*
X92814102Y-76549925D02*
X92861721Y-76502306D01*
X92861721Y-76502306D02*
X92956959Y-76454687D01*
X92956959Y-76454687D02*
X93099816Y-76454687D01*
X93099816Y-76454687D02*
X93195054Y-76502306D01*
X93195054Y-76502306D02*
X93242674Y-76549925D01*
X93242674Y-76549925D02*
X93290293Y-76645163D01*
X93290293Y-76645163D02*
X93290293Y-77026115D01*
X93290293Y-77026115D02*
X92290293Y-77026115D01*
X92290293Y-77026115D02*
X92290293Y-76692782D01*
X92290293Y-76692782D02*
X92337912Y-76597544D01*
X92337912Y-76597544D02*
X92385531Y-76549925D01*
X92385531Y-76549925D02*
X92480769Y-76502306D01*
X92480769Y-76502306D02*
X92576007Y-76502306D01*
X92576007Y-76502306D02*
X92671245Y-76549925D01*
X92671245Y-76549925D02*
X92718864Y-76597544D01*
X92718864Y-76597544D02*
X92766483Y-76692782D01*
X92766483Y-76692782D02*
X92766483Y-77026115D01*
X92290293Y-76026115D02*
X93099816Y-76026115D01*
X93099816Y-76026115D02*
X93195054Y-75978496D01*
X93195054Y-75978496D02*
X93242674Y-75930877D01*
X93242674Y-75930877D02*
X93290293Y-75835639D01*
X93290293Y-75835639D02*
X93290293Y-75645163D01*
X93290293Y-75645163D02*
X93242674Y-75549925D01*
X93242674Y-75549925D02*
X93195054Y-75502306D01*
X93195054Y-75502306D02*
X93099816Y-75454687D01*
X93099816Y-75454687D02*
X92290293Y-75454687D01*
X93242674Y-75026115D02*
X93290293Y-74883258D01*
X93290293Y-74883258D02*
X93290293Y-74645163D01*
X93290293Y-74645163D02*
X93242674Y-74549925D01*
X93242674Y-74549925D02*
X93195054Y-74502306D01*
X93195054Y-74502306D02*
X93099816Y-74454687D01*
X93099816Y-74454687D02*
X93004578Y-74454687D01*
X93004578Y-74454687D02*
X92909340Y-74502306D01*
X92909340Y-74502306D02*
X92861721Y-74549925D01*
X92861721Y-74549925D02*
X92814102Y-74645163D01*
X92814102Y-74645163D02*
X92766483Y-74835639D01*
X92766483Y-74835639D02*
X92718864Y-74930877D01*
X92718864Y-74930877D02*
X92671245Y-74978496D01*
X92671245Y-74978496D02*
X92576007Y-75026115D01*
X92576007Y-75026115D02*
X92480769Y-75026115D01*
X92480769Y-75026115D02*
X92385531Y-74978496D01*
X92385531Y-74978496D02*
X92337912Y-74930877D01*
X92337912Y-74930877D02*
X92290293Y-74835639D01*
X92290293Y-74835639D02*
X92290293Y-74597544D01*
X92290293Y-74597544D02*
X92337912Y-74454687D01*
X93004578Y-74073734D02*
X93004578Y-73597544D01*
X93290293Y-74168972D02*
X92290293Y-73835639D01*
X92290293Y-73835639D02*
X93290293Y-73502306D01*
X93195054Y-72597544D02*
X93242674Y-72645163D01*
X93242674Y-72645163D02*
X93290293Y-72788020D01*
X93290293Y-72788020D02*
X93290293Y-72883258D01*
X93290293Y-72883258D02*
X93242674Y-73026115D01*
X93242674Y-73026115D02*
X93147435Y-73121353D01*
X93147435Y-73121353D02*
X93052197Y-73168972D01*
X93052197Y-73168972D02*
X92861721Y-73216591D01*
X92861721Y-73216591D02*
X92718864Y-73216591D01*
X92718864Y-73216591D02*
X92528388Y-73168972D01*
X92528388Y-73168972D02*
X92433150Y-73121353D01*
X92433150Y-73121353D02*
X92337912Y-73026115D01*
X92337912Y-73026115D02*
X92290293Y-72883258D01*
X92290293Y-72883258D02*
X92290293Y-72788020D01*
X92290293Y-72788020D02*
X92337912Y-72645163D01*
X92337912Y-72645163D02*
X92385531Y-72597544D01*
X92012674Y-77164211D02*
X92012674Y-72507068D01*
X95102019Y-77121353D02*
X96102019Y-76883258D01*
X96102019Y-76883258D02*
X95387733Y-76692782D01*
X95387733Y-76692782D02*
X96102019Y-76502306D01*
X96102019Y-76502306D02*
X95102019Y-76264211D01*
X95816304Y-75930877D02*
X95816304Y-75454687D01*
X96102019Y-76026115D02*
X95102019Y-75692782D01*
X95102019Y-75692782D02*
X96102019Y-75359449D01*
X96102019Y-75026115D02*
X95102019Y-75026115D01*
X95102019Y-74692782D02*
X95102019Y-74121354D01*
X96102019Y-74407068D02*
X95102019Y-74407068D01*
X94824400Y-77164211D02*
X94824400Y-74126116D01*
X50047401Y-77026115D02*
X49047401Y-77026115D01*
X49047401Y-77026115D02*
X49047401Y-76788020D01*
X49047401Y-76788020D02*
X49095020Y-76645163D01*
X49095020Y-76645163D02*
X49190258Y-76549925D01*
X49190258Y-76549925D02*
X49285496Y-76502306D01*
X49285496Y-76502306D02*
X49475972Y-76454687D01*
X49475972Y-76454687D02*
X49618829Y-76454687D01*
X49618829Y-76454687D02*
X49809305Y-76502306D01*
X49809305Y-76502306D02*
X49904543Y-76549925D01*
X49904543Y-76549925D02*
X49999782Y-76645163D01*
X49999782Y-76645163D02*
X50047401Y-76788020D01*
X50047401Y-76788020D02*
X50047401Y-77026115D01*
X49047401Y-76121353D02*
X49047401Y-75454687D01*
X49047401Y-75454687D02*
X50047401Y-75883258D01*
X57647401Y-77026115D02*
X56647401Y-77026115D01*
X56647401Y-77026115D02*
X56647401Y-76788020D01*
X56647401Y-76788020D02*
X56695020Y-76645163D01*
X56695020Y-76645163D02*
X56790258Y-76549925D01*
X56790258Y-76549925D02*
X56885496Y-76502306D01*
X56885496Y-76502306D02*
X57075972Y-76454687D01*
X57075972Y-76454687D02*
X57218829Y-76454687D01*
X57218829Y-76454687D02*
X57409305Y-76502306D01*
X57409305Y-76502306D02*
X57504543Y-76549925D01*
X57504543Y-76549925D02*
X57599782Y-76645163D01*
X57599782Y-76645163D02*
X57647401Y-76788020D01*
X57647401Y-76788020D02*
X57647401Y-77026115D01*
X56647401Y-75835639D02*
X56647401Y-75740401D01*
X56647401Y-75740401D02*
X56695020Y-75645163D01*
X56695020Y-75645163D02*
X56742639Y-75597544D01*
X56742639Y-75597544D02*
X56837877Y-75549925D01*
X56837877Y-75549925D02*
X57028353Y-75502306D01*
X57028353Y-75502306D02*
X57266448Y-75502306D01*
X57266448Y-75502306D02*
X57456924Y-75549925D01*
X57456924Y-75549925D02*
X57552162Y-75597544D01*
X57552162Y-75597544D02*
X57599782Y-75645163D01*
X57599782Y-75645163D02*
X57647401Y-75740401D01*
X57647401Y-75740401D02*
X57647401Y-75835639D01*
X57647401Y-75835639D02*
X57599782Y-75930877D01*
X57599782Y-75930877D02*
X57552162Y-75978496D01*
X57552162Y-75978496D02*
X57456924Y-76026115D01*
X57456924Y-76026115D02*
X57266448Y-76073734D01*
X57266448Y-76073734D02*
X57028353Y-76073734D01*
X57028353Y-76073734D02*
X56837877Y-76026115D01*
X56837877Y-76026115D02*
X56742639Y-75978496D01*
X56742639Y-75978496D02*
X56695020Y-75930877D01*
X56695020Y-75930877D02*
X56647401Y-75835639D01*
X65217771Y-77026115D02*
X64217771Y-77026115D01*
X64217771Y-77026115D02*
X64217771Y-76788020D01*
X64217771Y-76788020D02*
X64265390Y-76645163D01*
X64265390Y-76645163D02*
X64360628Y-76549925D01*
X64360628Y-76549925D02*
X64455866Y-76502306D01*
X64455866Y-76502306D02*
X64646342Y-76454687D01*
X64646342Y-76454687D02*
X64789199Y-76454687D01*
X64789199Y-76454687D02*
X64979675Y-76502306D01*
X64979675Y-76502306D02*
X65074913Y-76549925D01*
X65074913Y-76549925D02*
X65170152Y-76645163D01*
X65170152Y-76645163D02*
X65217771Y-76788020D01*
X65217771Y-76788020D02*
X65217771Y-77026115D01*
X64217771Y-75597544D02*
X64217771Y-75788020D01*
X64217771Y-75788020D02*
X64265390Y-75883258D01*
X64265390Y-75883258D02*
X64313009Y-75930877D01*
X64313009Y-75930877D02*
X64455866Y-76026115D01*
X64455866Y-76026115D02*
X64646342Y-76073734D01*
X64646342Y-76073734D02*
X65027294Y-76073734D01*
X65027294Y-76073734D02*
X65122532Y-76026115D01*
X65122532Y-76026115D02*
X65170152Y-75978496D01*
X65170152Y-75978496D02*
X65217771Y-75883258D01*
X65217771Y-75883258D02*
X65217771Y-75692782D01*
X65217771Y-75692782D02*
X65170152Y-75597544D01*
X65170152Y-75597544D02*
X65122532Y-75549925D01*
X65122532Y-75549925D02*
X65027294Y-75502306D01*
X65027294Y-75502306D02*
X64789199Y-75502306D01*
X64789199Y-75502306D02*
X64693961Y-75549925D01*
X64693961Y-75549925D02*
X64646342Y-75597544D01*
X64646342Y-75597544D02*
X64598723Y-75692782D01*
X64598723Y-75692782D02*
X64598723Y-75883258D01*
X64598723Y-75883258D02*
X64646342Y-75978496D01*
X64646342Y-75978496D02*
X64693961Y-76026115D01*
X64693961Y-76026115D02*
X64789199Y-76073734D01*
X70281351Y-77026115D02*
X69281351Y-77026115D01*
X69281351Y-77026115D02*
X69281351Y-76788020D01*
X69281351Y-76788020D02*
X69328970Y-76645163D01*
X69328970Y-76645163D02*
X69424208Y-76549925D01*
X69424208Y-76549925D02*
X69519446Y-76502306D01*
X69519446Y-76502306D02*
X69709922Y-76454687D01*
X69709922Y-76454687D02*
X69852779Y-76454687D01*
X69852779Y-76454687D02*
X70043255Y-76502306D01*
X70043255Y-76502306D02*
X70138493Y-76549925D01*
X70138493Y-76549925D02*
X70233732Y-76645163D01*
X70233732Y-76645163D02*
X70281351Y-76788020D01*
X70281351Y-76788020D02*
X70281351Y-77026115D01*
X69281351Y-76121353D02*
X69281351Y-75502306D01*
X69281351Y-75502306D02*
X69662303Y-75835639D01*
X69662303Y-75835639D02*
X69662303Y-75692782D01*
X69662303Y-75692782D02*
X69709922Y-75597544D01*
X69709922Y-75597544D02*
X69757541Y-75549925D01*
X69757541Y-75549925D02*
X69852779Y-75502306D01*
X69852779Y-75502306D02*
X70090874Y-75502306D01*
X70090874Y-75502306D02*
X70186112Y-75549925D01*
X70186112Y-75549925D02*
X70233732Y-75597544D01*
X70233732Y-75597544D02*
X70281351Y-75692782D01*
X70281351Y-75692782D02*
X70281351Y-75978496D01*
X70281351Y-75978496D02*
X70233732Y-76073734D01*
X70233732Y-76073734D02*
X70186112Y-76121353D01*
X103440293Y-77026115D02*
X102440293Y-77026115D01*
X102440293Y-77026115D02*
X103154578Y-76692782D01*
X103154578Y-76692782D02*
X102440293Y-76359449D01*
X102440293Y-76359449D02*
X103440293Y-76359449D01*
X103440293Y-75359449D02*
X103440293Y-75930877D01*
X103440293Y-75645163D02*
X102440293Y-75645163D01*
X102440293Y-75645163D02*
X102583150Y-75740401D01*
X102583150Y-75740401D02*
X102678388Y-75835639D01*
X102678388Y-75835639D02*
X102726007Y-75930877D01*
X102162674Y-77164211D02*
X102162674Y-75268973D01*
X52702019Y-76454687D02*
X52225828Y-76788020D01*
X52702019Y-77026115D02*
X51702019Y-77026115D01*
X51702019Y-77026115D02*
X51702019Y-76645163D01*
X51702019Y-76645163D02*
X51749638Y-76549925D01*
X51749638Y-76549925D02*
X51797257Y-76502306D01*
X51797257Y-76502306D02*
X51892495Y-76454687D01*
X51892495Y-76454687D02*
X52035352Y-76454687D01*
X52035352Y-76454687D02*
X52130590Y-76502306D01*
X52130590Y-76502306D02*
X52178209Y-76549925D01*
X52178209Y-76549925D02*
X52225828Y-76645163D01*
X52225828Y-76645163D02*
X52225828Y-77026115D01*
X52416304Y-76073734D02*
X52416304Y-75597544D01*
X52702019Y-76168972D02*
X51702019Y-75835639D01*
X51702019Y-75835639D02*
X52702019Y-75502306D01*
X52702019Y-75168972D02*
X51702019Y-75168972D01*
X51702019Y-75168972D02*
X52416304Y-74835639D01*
X52416304Y-74835639D02*
X51702019Y-74502306D01*
X51702019Y-74502306D02*
X52702019Y-74502306D01*
X52606780Y-73454687D02*
X52654400Y-73502306D01*
X52654400Y-73502306D02*
X52702019Y-73645163D01*
X52702019Y-73645163D02*
X52702019Y-73740401D01*
X52702019Y-73740401D02*
X52654400Y-73883258D01*
X52654400Y-73883258D02*
X52559161Y-73978496D01*
X52559161Y-73978496D02*
X52463923Y-74026115D01*
X52463923Y-74026115D02*
X52273447Y-74073734D01*
X52273447Y-74073734D02*
X52130590Y-74073734D01*
X52130590Y-74073734D02*
X51940114Y-74026115D01*
X51940114Y-74026115D02*
X51844876Y-73978496D01*
X51844876Y-73978496D02*
X51749638Y-73883258D01*
X51749638Y-73883258D02*
X51702019Y-73740401D01*
X51702019Y-73740401D02*
X51702019Y-73645163D01*
X51702019Y-73645163D02*
X51749638Y-73502306D01*
X51749638Y-73502306D02*
X51797257Y-73454687D01*
X52654400Y-73073734D02*
X52702019Y-72930877D01*
X52702019Y-72930877D02*
X52702019Y-72692782D01*
X52702019Y-72692782D02*
X52654400Y-72597544D01*
X52654400Y-72597544D02*
X52606780Y-72549925D01*
X52606780Y-72549925D02*
X52511542Y-72502306D01*
X52511542Y-72502306D02*
X52416304Y-72502306D01*
X52416304Y-72502306D02*
X52321066Y-72549925D01*
X52321066Y-72549925D02*
X52273447Y-72597544D01*
X52273447Y-72597544D02*
X52225828Y-72692782D01*
X52225828Y-72692782D02*
X52178209Y-72883258D01*
X52178209Y-72883258D02*
X52130590Y-72978496D01*
X52130590Y-72978496D02*
X52082971Y-73026115D01*
X52082971Y-73026115D02*
X51987733Y-73073734D01*
X51987733Y-73073734D02*
X51892495Y-73073734D01*
X51892495Y-73073734D02*
X51797257Y-73026115D01*
X51797257Y-73026115D02*
X51749638Y-72978496D01*
X51749638Y-72978496D02*
X51702019Y-72883258D01*
X51702019Y-72883258D02*
X51702019Y-72645163D01*
X51702019Y-72645163D02*
X51749638Y-72502306D01*
X51424400Y-77164211D02*
X51424400Y-72411830D01*
X83190293Y-77026115D02*
X82190293Y-77026115D01*
X82190293Y-77026115D02*
X82904578Y-76692782D01*
X82904578Y-76692782D02*
X82190293Y-76359449D01*
X82190293Y-76359449D02*
X83190293Y-76359449D01*
X83190293Y-75311830D02*
X82714102Y-75645163D01*
X83190293Y-75883258D02*
X82190293Y-75883258D01*
X82190293Y-75883258D02*
X82190293Y-75502306D01*
X82190293Y-75502306D02*
X82237912Y-75407068D01*
X82237912Y-75407068D02*
X82285531Y-75359449D01*
X82285531Y-75359449D02*
X82380769Y-75311830D01*
X82380769Y-75311830D02*
X82523626Y-75311830D01*
X82523626Y-75311830D02*
X82618864Y-75359449D01*
X82618864Y-75359449D02*
X82666483Y-75407068D01*
X82666483Y-75407068D02*
X82714102Y-75502306D01*
X82714102Y-75502306D02*
X82714102Y-75883258D01*
X82666483Y-74883258D02*
X82666483Y-74549925D01*
X83190293Y-74407068D02*
X83190293Y-74883258D01*
X83190293Y-74883258D02*
X82190293Y-74883258D01*
X82190293Y-74883258D02*
X82190293Y-74407068D01*
X83285531Y-73311830D02*
X83237912Y-73407068D01*
X83237912Y-73407068D02*
X83142674Y-73502306D01*
X83142674Y-73502306D02*
X82999816Y-73645163D01*
X82999816Y-73645163D02*
X82952197Y-73740401D01*
X82952197Y-73740401D02*
X82952197Y-73835639D01*
X83190293Y-73788020D02*
X83142674Y-73883258D01*
X83142674Y-73883258D02*
X83047435Y-73978496D01*
X83047435Y-73978496D02*
X82856959Y-74026115D01*
X82856959Y-74026115D02*
X82523626Y-74026115D01*
X82523626Y-74026115D02*
X82333150Y-73978496D01*
X82333150Y-73978496D02*
X82237912Y-73883258D01*
X82237912Y-73883258D02*
X82190293Y-73788020D01*
X82190293Y-73788020D02*
X82190293Y-73597544D01*
X82190293Y-73597544D02*
X82237912Y-73502306D01*
X82237912Y-73502306D02*
X82333150Y-73407068D01*
X82333150Y-73407068D02*
X82523626Y-73359449D01*
X82523626Y-73359449D02*
X82856959Y-73359449D01*
X82856959Y-73359449D02*
X83047435Y-73407068D01*
X83047435Y-73407068D02*
X83142674Y-73502306D01*
X83142674Y-73502306D02*
X83190293Y-73597544D01*
X83190293Y-73597544D02*
X83190293Y-73788020D01*
X81912674Y-77164211D02*
X81912674Y-73268973D01*
X80502019Y-77026115D02*
X79502019Y-77026115D01*
X79978209Y-77026115D02*
X79978209Y-76454687D01*
X80502019Y-76454687D02*
X79502019Y-76454687D01*
X80216304Y-76026115D02*
X80216304Y-75549925D01*
X80502019Y-76121353D02*
X79502019Y-75788020D01*
X79502019Y-75788020D02*
X80502019Y-75454687D01*
X80502019Y-74645163D02*
X80502019Y-75121353D01*
X80502019Y-75121353D02*
X79502019Y-75121353D01*
X79502019Y-74454686D02*
X79502019Y-73883258D01*
X80502019Y-74168972D02*
X79502019Y-74168972D01*
X79224400Y-77164211D02*
X79224400Y-73888020D01*
X100940293Y-76454687D02*
X100464102Y-76788020D01*
X100940293Y-77026115D02*
X99940293Y-77026115D01*
X99940293Y-77026115D02*
X99940293Y-76645163D01*
X99940293Y-76645163D02*
X99987912Y-76549925D01*
X99987912Y-76549925D02*
X100035531Y-76502306D01*
X100035531Y-76502306D02*
X100130769Y-76454687D01*
X100130769Y-76454687D02*
X100273626Y-76454687D01*
X100273626Y-76454687D02*
X100368864Y-76502306D01*
X100368864Y-76502306D02*
X100416483Y-76549925D01*
X100416483Y-76549925D02*
X100464102Y-76645163D01*
X100464102Y-76645163D02*
X100464102Y-77026115D01*
X100416483Y-76026115D02*
X100416483Y-75692782D01*
X100940293Y-75549925D02*
X100940293Y-76026115D01*
X100940293Y-76026115D02*
X99940293Y-76026115D01*
X99940293Y-76026115D02*
X99940293Y-75549925D01*
X100892674Y-75168972D02*
X100940293Y-75026115D01*
X100940293Y-75026115D02*
X100940293Y-74788020D01*
X100940293Y-74788020D02*
X100892674Y-74692782D01*
X100892674Y-74692782D02*
X100845054Y-74645163D01*
X100845054Y-74645163D02*
X100749816Y-74597544D01*
X100749816Y-74597544D02*
X100654578Y-74597544D01*
X100654578Y-74597544D02*
X100559340Y-74645163D01*
X100559340Y-74645163D02*
X100511721Y-74692782D01*
X100511721Y-74692782D02*
X100464102Y-74788020D01*
X100464102Y-74788020D02*
X100416483Y-74978496D01*
X100416483Y-74978496D02*
X100368864Y-75073734D01*
X100368864Y-75073734D02*
X100321245Y-75121353D01*
X100321245Y-75121353D02*
X100226007Y-75168972D01*
X100226007Y-75168972D02*
X100130769Y-75168972D01*
X100130769Y-75168972D02*
X100035531Y-75121353D01*
X100035531Y-75121353D02*
X99987912Y-75073734D01*
X99987912Y-75073734D02*
X99940293Y-74978496D01*
X99940293Y-74978496D02*
X99940293Y-74740401D01*
X99940293Y-74740401D02*
X99987912Y-74597544D01*
X100416483Y-74168972D02*
X100416483Y-73835639D01*
X100940293Y-73692782D02*
X100940293Y-74168972D01*
X100940293Y-74168972D02*
X99940293Y-74168972D01*
X99940293Y-74168972D02*
X99940293Y-73692782D01*
X99940293Y-73407067D02*
X99940293Y-72835639D01*
X100940293Y-73121353D02*
X99940293Y-73121353D01*
X99662674Y-77164211D02*
X99662674Y-72840401D01*
X62697401Y-77026115D02*
X61697401Y-77026115D01*
X61697401Y-77026115D02*
X61697401Y-76788020D01*
X61697401Y-76788020D02*
X61745020Y-76645163D01*
X61745020Y-76645163D02*
X61840258Y-76549925D01*
X61840258Y-76549925D02*
X61935496Y-76502306D01*
X61935496Y-76502306D02*
X62125972Y-76454687D01*
X62125972Y-76454687D02*
X62268829Y-76454687D01*
X62268829Y-76454687D02*
X62459305Y-76502306D01*
X62459305Y-76502306D02*
X62554543Y-76549925D01*
X62554543Y-76549925D02*
X62649782Y-76645163D01*
X62649782Y-76645163D02*
X62697401Y-76788020D01*
X62697401Y-76788020D02*
X62697401Y-77026115D01*
X61792639Y-76073734D02*
X61745020Y-76026115D01*
X61745020Y-76026115D02*
X61697401Y-75930877D01*
X61697401Y-75930877D02*
X61697401Y-75692782D01*
X61697401Y-75692782D02*
X61745020Y-75597544D01*
X61745020Y-75597544D02*
X61792639Y-75549925D01*
X61792639Y-75549925D02*
X61887877Y-75502306D01*
X61887877Y-75502306D02*
X61983115Y-75502306D01*
X61983115Y-75502306D02*
X62125972Y-75549925D01*
X62125972Y-75549925D02*
X62697401Y-76121353D01*
X62697401Y-76121353D02*
X62697401Y-75502306D01*
X88190293Y-76454687D02*
X87714102Y-76788020D01*
X88190293Y-77026115D02*
X87190293Y-77026115D01*
X87190293Y-77026115D02*
X87190293Y-76645163D01*
X87190293Y-76645163D02*
X87237912Y-76549925D01*
X87237912Y-76549925D02*
X87285531Y-76502306D01*
X87285531Y-76502306D02*
X87380769Y-76454687D01*
X87380769Y-76454687D02*
X87523626Y-76454687D01*
X87523626Y-76454687D02*
X87618864Y-76502306D01*
X87618864Y-76502306D02*
X87666483Y-76549925D01*
X87666483Y-76549925D02*
X87714102Y-76645163D01*
X87714102Y-76645163D02*
X87714102Y-77026115D01*
X88190293Y-76026115D02*
X87190293Y-76026115D01*
X87190293Y-76026115D02*
X87190293Y-75788020D01*
X87190293Y-75788020D02*
X87237912Y-75645163D01*
X87237912Y-75645163D02*
X87333150Y-75549925D01*
X87333150Y-75549925D02*
X87428388Y-75502306D01*
X87428388Y-75502306D02*
X87618864Y-75454687D01*
X87618864Y-75454687D02*
X87761721Y-75454687D01*
X87761721Y-75454687D02*
X87952197Y-75502306D01*
X87952197Y-75502306D02*
X88047435Y-75549925D01*
X88047435Y-75549925D02*
X88142674Y-75645163D01*
X88142674Y-75645163D02*
X88190293Y-75788020D01*
X88190293Y-75788020D02*
X88190293Y-76026115D01*
X86912674Y-77164211D02*
X86912674Y-75364211D01*
X78252019Y-77026115D02*
X77252019Y-77026115D01*
X77252019Y-77026115D02*
X78252019Y-76454687D01*
X78252019Y-76454687D02*
X77252019Y-76454687D01*
X78252019Y-75978496D02*
X77252019Y-75978496D01*
X77252019Y-75978496D02*
X77966304Y-75645163D01*
X77966304Y-75645163D02*
X77252019Y-75311830D01*
X77252019Y-75311830D02*
X78252019Y-75311830D01*
X78252019Y-74835639D02*
X77252019Y-74835639D01*
X76974400Y-77164211D02*
X76974400Y-74697545D01*
X67774561Y-77026115D02*
X66774561Y-77026115D01*
X66774561Y-77026115D02*
X66774561Y-76788020D01*
X66774561Y-76788020D02*
X66822180Y-76645163D01*
X66822180Y-76645163D02*
X66917418Y-76549925D01*
X66917418Y-76549925D02*
X67012656Y-76502306D01*
X67012656Y-76502306D02*
X67203132Y-76454687D01*
X67203132Y-76454687D02*
X67345989Y-76454687D01*
X67345989Y-76454687D02*
X67536465Y-76502306D01*
X67536465Y-76502306D02*
X67631703Y-76549925D01*
X67631703Y-76549925D02*
X67726942Y-76645163D01*
X67726942Y-76645163D02*
X67774561Y-76788020D01*
X67774561Y-76788020D02*
X67774561Y-77026115D01*
X66774561Y-75549925D02*
X66774561Y-76026115D01*
X66774561Y-76026115D02*
X67250751Y-76073734D01*
X67250751Y-76073734D02*
X67203132Y-76026115D01*
X67203132Y-76026115D02*
X67155513Y-75930877D01*
X67155513Y-75930877D02*
X67155513Y-75692782D01*
X67155513Y-75692782D02*
X67203132Y-75597544D01*
X67203132Y-75597544D02*
X67250751Y-75549925D01*
X67250751Y-75549925D02*
X67345989Y-75502306D01*
X67345989Y-75502306D02*
X67584084Y-75502306D01*
X67584084Y-75502306D02*
X67679322Y-75549925D01*
X67679322Y-75549925D02*
X67726942Y-75597544D01*
X67726942Y-75597544D02*
X67774561Y-75692782D01*
X67774561Y-75692782D02*
X67774561Y-75930877D01*
X67774561Y-75930877D02*
X67726942Y-76026115D01*
X67726942Y-76026115D02*
X67679322Y-76073734D01*
X85690293Y-77026115D02*
X84690293Y-77026115D01*
X84690293Y-76359449D02*
X84690293Y-76168973D01*
X84690293Y-76168973D02*
X84737912Y-76073735D01*
X84737912Y-76073735D02*
X84833150Y-75978497D01*
X84833150Y-75978497D02*
X85023626Y-75930878D01*
X85023626Y-75930878D02*
X85356959Y-75930878D01*
X85356959Y-75930878D02*
X85547435Y-75978497D01*
X85547435Y-75978497D02*
X85642674Y-76073735D01*
X85642674Y-76073735D02*
X85690293Y-76168973D01*
X85690293Y-76168973D02*
X85690293Y-76359449D01*
X85690293Y-76359449D02*
X85642674Y-76454687D01*
X85642674Y-76454687D02*
X85547435Y-76549925D01*
X85547435Y-76549925D02*
X85356959Y-76597544D01*
X85356959Y-76597544D02*
X85023626Y-76597544D01*
X85023626Y-76597544D02*
X84833150Y-76549925D01*
X84833150Y-76549925D02*
X84737912Y-76454687D01*
X84737912Y-76454687D02*
X84690293Y-76359449D01*
X85690293Y-74930878D02*
X85214102Y-75264211D01*
X85690293Y-75502306D02*
X84690293Y-75502306D01*
X84690293Y-75502306D02*
X84690293Y-75121354D01*
X84690293Y-75121354D02*
X84737912Y-75026116D01*
X84737912Y-75026116D02*
X84785531Y-74978497D01*
X84785531Y-74978497D02*
X84880769Y-74930878D01*
X84880769Y-74930878D02*
X85023626Y-74930878D01*
X85023626Y-74930878D02*
X85118864Y-74978497D01*
X85118864Y-74978497D02*
X85166483Y-75026116D01*
X85166483Y-75026116D02*
X85214102Y-75121354D01*
X85214102Y-75121354D02*
X85214102Y-75502306D01*
X85785531Y-73835640D02*
X85737912Y-73930878D01*
X85737912Y-73930878D02*
X85642674Y-74026116D01*
X85642674Y-74026116D02*
X85499816Y-74168973D01*
X85499816Y-74168973D02*
X85452197Y-74264211D01*
X85452197Y-74264211D02*
X85452197Y-74359449D01*
X85690293Y-74311830D02*
X85642674Y-74407068D01*
X85642674Y-74407068D02*
X85547435Y-74502306D01*
X85547435Y-74502306D02*
X85356959Y-74549925D01*
X85356959Y-74549925D02*
X85023626Y-74549925D01*
X85023626Y-74549925D02*
X84833150Y-74502306D01*
X84833150Y-74502306D02*
X84737912Y-74407068D01*
X84737912Y-74407068D02*
X84690293Y-74311830D01*
X84690293Y-74311830D02*
X84690293Y-74121354D01*
X84690293Y-74121354D02*
X84737912Y-74026116D01*
X84737912Y-74026116D02*
X84833150Y-73930878D01*
X84833150Y-73930878D02*
X85023626Y-73883259D01*
X85023626Y-73883259D02*
X85356959Y-73883259D01*
X85356959Y-73883259D02*
X85547435Y-73930878D01*
X85547435Y-73930878D02*
X85642674Y-74026116D01*
X85642674Y-74026116D02*
X85690293Y-74121354D01*
X85690293Y-74121354D02*
X85690293Y-74311830D01*
X84412674Y-77164211D02*
X84412674Y-73792783D01*
X60197401Y-77026115D02*
X59197401Y-77026115D01*
X59197401Y-77026115D02*
X59197401Y-76788020D01*
X59197401Y-76788020D02*
X59245020Y-76645163D01*
X59245020Y-76645163D02*
X59340258Y-76549925D01*
X59340258Y-76549925D02*
X59435496Y-76502306D01*
X59435496Y-76502306D02*
X59625972Y-76454687D01*
X59625972Y-76454687D02*
X59768829Y-76454687D01*
X59768829Y-76454687D02*
X59959305Y-76502306D01*
X59959305Y-76502306D02*
X60054543Y-76549925D01*
X60054543Y-76549925D02*
X60149782Y-76645163D01*
X60149782Y-76645163D02*
X60197401Y-76788020D01*
X60197401Y-76788020D02*
X60197401Y-77026115D01*
X60197401Y-75502306D02*
X60197401Y-76073734D01*
X60197401Y-75788020D02*
X59197401Y-75788020D01*
X59197401Y-75788020D02*
X59340258Y-75883258D01*
X59340258Y-75883258D02*
X59435496Y-75978496D01*
X59435496Y-75978496D02*
X59483115Y-76073734D01*
X105990293Y-76454687D02*
X105514102Y-76788020D01*
X105990293Y-77026115D02*
X104990293Y-77026115D01*
X104990293Y-77026115D02*
X104990293Y-76645163D01*
X104990293Y-76645163D02*
X105037912Y-76549925D01*
X105037912Y-76549925D02*
X105085531Y-76502306D01*
X105085531Y-76502306D02*
X105180769Y-76454687D01*
X105180769Y-76454687D02*
X105323626Y-76454687D01*
X105323626Y-76454687D02*
X105418864Y-76502306D01*
X105418864Y-76502306D02*
X105466483Y-76549925D01*
X105466483Y-76549925D02*
X105514102Y-76645163D01*
X105514102Y-76645163D02*
X105514102Y-77026115D01*
X105466483Y-75692782D02*
X105466483Y-76026115D01*
X105990293Y-76026115D02*
X104990293Y-76026115D01*
X104990293Y-76026115D02*
X104990293Y-75549925D01*
X105942674Y-75216591D02*
X105990293Y-75073734D01*
X105990293Y-75073734D02*
X105990293Y-74835639D01*
X105990293Y-74835639D02*
X105942674Y-74740401D01*
X105942674Y-74740401D02*
X105895054Y-74692782D01*
X105895054Y-74692782D02*
X105799816Y-74645163D01*
X105799816Y-74645163D02*
X105704578Y-74645163D01*
X105704578Y-74645163D02*
X105609340Y-74692782D01*
X105609340Y-74692782D02*
X105561721Y-74740401D01*
X105561721Y-74740401D02*
X105514102Y-74835639D01*
X105514102Y-74835639D02*
X105466483Y-75026115D01*
X105466483Y-75026115D02*
X105418864Y-75121353D01*
X105418864Y-75121353D02*
X105371245Y-75168972D01*
X105371245Y-75168972D02*
X105276007Y-75216591D01*
X105276007Y-75216591D02*
X105180769Y-75216591D01*
X105180769Y-75216591D02*
X105085531Y-75168972D01*
X105085531Y-75168972D02*
X105037912Y-75121353D01*
X105037912Y-75121353D02*
X104990293Y-75026115D01*
X104990293Y-75026115D02*
X104990293Y-74788020D01*
X104990293Y-74788020D02*
X105037912Y-74645163D01*
X105990293Y-74216591D02*
X104990293Y-74216591D01*
X105466483Y-74216591D02*
X105466483Y-73645163D01*
X105990293Y-73645163D02*
X104990293Y-73645163D01*
X104712674Y-77164211D02*
X104712674Y-73507068D01*
X72697401Y-77026115D02*
X71697401Y-77026115D01*
X71697401Y-77026115D02*
X71697401Y-76788020D01*
X71697401Y-76788020D02*
X71745020Y-76645163D01*
X71745020Y-76645163D02*
X71840258Y-76549925D01*
X71840258Y-76549925D02*
X71935496Y-76502306D01*
X71935496Y-76502306D02*
X72125972Y-76454687D01*
X72125972Y-76454687D02*
X72268829Y-76454687D01*
X72268829Y-76454687D02*
X72459305Y-76502306D01*
X72459305Y-76502306D02*
X72554543Y-76549925D01*
X72554543Y-76549925D02*
X72649782Y-76645163D01*
X72649782Y-76645163D02*
X72697401Y-76788020D01*
X72697401Y-76788020D02*
X72697401Y-77026115D01*
X72030734Y-75597544D02*
X72697401Y-75597544D01*
X71649782Y-75835639D02*
X72364067Y-76073734D01*
X72364067Y-76073734D02*
X72364067Y-75454687D01*
X89740293Y-77121353D02*
X90740293Y-76883258D01*
X90740293Y-76883258D02*
X90026007Y-76692782D01*
X90026007Y-76692782D02*
X90740293Y-76502306D01*
X90740293Y-76502306D02*
X89740293Y-76264211D01*
X90740293Y-75311830D02*
X90264102Y-75645163D01*
X90740293Y-75883258D02*
X89740293Y-75883258D01*
X89740293Y-75883258D02*
X89740293Y-75502306D01*
X89740293Y-75502306D02*
X89787912Y-75407068D01*
X89787912Y-75407068D02*
X89835531Y-75359449D01*
X89835531Y-75359449D02*
X89930769Y-75311830D01*
X89930769Y-75311830D02*
X90073626Y-75311830D01*
X90073626Y-75311830D02*
X90168864Y-75359449D01*
X90168864Y-75359449D02*
X90216483Y-75407068D01*
X90216483Y-75407068D02*
X90264102Y-75502306D01*
X90264102Y-75502306D02*
X90264102Y-75883258D01*
X89462674Y-77164211D02*
X89462674Y-75221354D01*
X97828209Y-76692782D02*
X97875828Y-76549925D01*
X97875828Y-76549925D02*
X97923447Y-76502306D01*
X97923447Y-76502306D02*
X98018685Y-76454687D01*
X98018685Y-76454687D02*
X98161542Y-76454687D01*
X98161542Y-76454687D02*
X98256780Y-76502306D01*
X98256780Y-76502306D02*
X98304400Y-76549925D01*
X98304400Y-76549925D02*
X98352019Y-76645163D01*
X98352019Y-76645163D02*
X98352019Y-77026115D01*
X98352019Y-77026115D02*
X97352019Y-77026115D01*
X97352019Y-77026115D02*
X97352019Y-76692782D01*
X97352019Y-76692782D02*
X97399638Y-76597544D01*
X97399638Y-76597544D02*
X97447257Y-76549925D01*
X97447257Y-76549925D02*
X97542495Y-76502306D01*
X97542495Y-76502306D02*
X97637733Y-76502306D01*
X97637733Y-76502306D02*
X97732971Y-76549925D01*
X97732971Y-76549925D02*
X97780590Y-76597544D01*
X97780590Y-76597544D02*
X97828209Y-76692782D01*
X97828209Y-76692782D02*
X97828209Y-77026115D01*
X97352019Y-76026115D02*
X98161542Y-76026115D01*
X98161542Y-76026115D02*
X98256780Y-75978496D01*
X98256780Y-75978496D02*
X98304400Y-75930877D01*
X98304400Y-75930877D02*
X98352019Y-75835639D01*
X98352019Y-75835639D02*
X98352019Y-75645163D01*
X98352019Y-75645163D02*
X98304400Y-75549925D01*
X98304400Y-75549925D02*
X98256780Y-75502306D01*
X98256780Y-75502306D02*
X98161542Y-75454687D01*
X98161542Y-75454687D02*
X97352019Y-75454687D01*
X98304400Y-75026115D02*
X98352019Y-74883258D01*
X98352019Y-74883258D02*
X98352019Y-74645163D01*
X98352019Y-74645163D02*
X98304400Y-74549925D01*
X98304400Y-74549925D02*
X98256780Y-74502306D01*
X98256780Y-74502306D02*
X98161542Y-74454687D01*
X98161542Y-74454687D02*
X98066304Y-74454687D01*
X98066304Y-74454687D02*
X97971066Y-74502306D01*
X97971066Y-74502306D02*
X97923447Y-74549925D01*
X97923447Y-74549925D02*
X97875828Y-74645163D01*
X97875828Y-74645163D02*
X97828209Y-74835639D01*
X97828209Y-74835639D02*
X97780590Y-74930877D01*
X97780590Y-74930877D02*
X97732971Y-74978496D01*
X97732971Y-74978496D02*
X97637733Y-75026115D01*
X97637733Y-75026115D02*
X97542495Y-75026115D01*
X97542495Y-75026115D02*
X97447257Y-74978496D01*
X97447257Y-74978496D02*
X97399638Y-74930877D01*
X97399638Y-74930877D02*
X97352019Y-74835639D01*
X97352019Y-74835639D02*
X97352019Y-74597544D01*
X97352019Y-74597544D02*
X97399638Y-74454687D01*
X98352019Y-73454687D02*
X97875828Y-73788020D01*
X98352019Y-74026115D02*
X97352019Y-74026115D01*
X97352019Y-74026115D02*
X97352019Y-73645163D01*
X97352019Y-73645163D02*
X97399638Y-73549925D01*
X97399638Y-73549925D02*
X97447257Y-73502306D01*
X97447257Y-73502306D02*
X97542495Y-73454687D01*
X97542495Y-73454687D02*
X97685352Y-73454687D01*
X97685352Y-73454687D02*
X97780590Y-73502306D01*
X97780590Y-73502306D02*
X97828209Y-73549925D01*
X97828209Y-73549925D02*
X97875828Y-73645163D01*
X97875828Y-73645163D02*
X97875828Y-74026115D01*
X98447257Y-72359449D02*
X98399638Y-72454687D01*
X98399638Y-72454687D02*
X98304400Y-72549925D01*
X98304400Y-72549925D02*
X98161542Y-72692782D01*
X98161542Y-72692782D02*
X98113923Y-72788020D01*
X98113923Y-72788020D02*
X98113923Y-72883258D01*
X98352019Y-72835639D02*
X98304400Y-72930877D01*
X98304400Y-72930877D02*
X98209161Y-73026115D01*
X98209161Y-73026115D02*
X98018685Y-73073734D01*
X98018685Y-73073734D02*
X97685352Y-73073734D01*
X97685352Y-73073734D02*
X97494876Y-73026115D01*
X97494876Y-73026115D02*
X97399638Y-72930877D01*
X97399638Y-72930877D02*
X97352019Y-72835639D01*
X97352019Y-72835639D02*
X97352019Y-72645163D01*
X97352019Y-72645163D02*
X97399638Y-72549925D01*
X97399638Y-72549925D02*
X97494876Y-72454687D01*
X97494876Y-72454687D02*
X97685352Y-72407068D01*
X97685352Y-72407068D02*
X98018685Y-72407068D01*
X98018685Y-72407068D02*
X98209161Y-72454687D01*
X98209161Y-72454687D02*
X98304400Y-72549925D01*
X98304400Y-72549925D02*
X98352019Y-72645163D01*
X98352019Y-72645163D02*
X98352019Y-72835639D01*
X97074400Y-77164211D02*
X97074400Y-72316592D01*
X75602019Y-77026115D02*
X74602019Y-77026115D01*
X75602019Y-76549925D02*
X74602019Y-76549925D01*
X74602019Y-76549925D02*
X75602019Y-75978497D01*
X75602019Y-75978497D02*
X74602019Y-75978497D01*
X74602019Y-75645163D02*
X74602019Y-75073735D01*
X75602019Y-75359449D02*
X74602019Y-75359449D01*
X74324400Y-77164211D02*
X74324400Y-75078497D01*
D12*
X77644252Y-42964819D02*
X78310918Y-42964819D01*
X78310918Y-42964819D02*
X77882347Y-43964819D01*
X79120442Y-43298152D02*
X79120442Y-43964819D01*
X78882347Y-42917200D02*
X78644252Y-43631485D01*
X78644252Y-43631485D02*
X79263299Y-43631485D01*
X80120442Y-43964819D02*
X79644252Y-43964819D01*
X79644252Y-43964819D02*
X79644252Y-42964819D01*
X80406157Y-43917200D02*
X80549014Y-43964819D01*
X80549014Y-43964819D02*
X80787109Y-43964819D01*
X80787109Y-43964819D02*
X80882347Y-43917200D01*
X80882347Y-43917200D02*
X80929966Y-43869580D01*
X80929966Y-43869580D02*
X80977585Y-43774342D01*
X80977585Y-43774342D02*
X80977585Y-43679104D01*
X80977585Y-43679104D02*
X80929966Y-43583866D01*
X80929966Y-43583866D02*
X80882347Y-43536247D01*
X80882347Y-43536247D02*
X80787109Y-43488628D01*
X80787109Y-43488628D02*
X80596633Y-43441009D01*
X80596633Y-43441009D02*
X80501395Y-43393390D01*
X80501395Y-43393390D02*
X80453776Y-43345771D01*
X80453776Y-43345771D02*
X80406157Y-43250533D01*
X80406157Y-43250533D02*
X80406157Y-43155295D01*
X80406157Y-43155295D02*
X80453776Y-43060057D01*
X80453776Y-43060057D02*
X80501395Y-43012438D01*
X80501395Y-43012438D02*
X80596633Y-42964819D01*
X80596633Y-42964819D02*
X80834728Y-42964819D01*
X80834728Y-42964819D02*
X80977585Y-43012438D01*
X81929966Y-43964819D02*
X81358538Y-43964819D01*
X81644252Y-43964819D02*
X81644252Y-42964819D01*
X81644252Y-42964819D02*
X81549014Y-43107676D01*
X81549014Y-43107676D02*
X81453776Y-43202914D01*
X81453776Y-43202914D02*
X81358538Y-43250533D01*
X82834728Y-42964819D02*
X82358538Y-42964819D01*
X82358538Y-42964819D02*
X82310919Y-43441009D01*
X82310919Y-43441009D02*
X82358538Y-43393390D01*
X82358538Y-43393390D02*
X82453776Y-43345771D01*
X82453776Y-43345771D02*
X82691871Y-43345771D01*
X82691871Y-43345771D02*
X82787109Y-43393390D01*
X82787109Y-43393390D02*
X82834728Y-43441009D01*
X82834728Y-43441009D02*
X82882347Y-43536247D01*
X82882347Y-43536247D02*
X82882347Y-43774342D01*
X82882347Y-43774342D02*
X82834728Y-43869580D01*
X82834728Y-43869580D02*
X82787109Y-43917200D01*
X82787109Y-43917200D02*
X82691871Y-43964819D01*
X82691871Y-43964819D02*
X82453776Y-43964819D01*
X82453776Y-43964819D02*
X82358538Y-43917200D01*
X82358538Y-43917200D02*
X82310919Y-43869580D01*
X83215681Y-42964819D02*
X83882347Y-42964819D01*
X83882347Y-42964819D02*
X83453776Y-43964819D01*
X98861519Y-58640476D02*
X98861519Y-59211904D01*
X98861519Y-58926190D02*
X97861519Y-58926190D01*
X97861519Y-58926190D02*
X98004376Y-59021428D01*
X98004376Y-59021428D02*
X98099614Y-59116666D01*
X98099614Y-59116666D02*
X98147233Y-59211904D01*
X97861519Y-58021428D02*
X97861519Y-57926190D01*
X97861519Y-57926190D02*
X97909138Y-57830952D01*
X97909138Y-57830952D02*
X97956757Y-57783333D01*
X97956757Y-57783333D02*
X98051995Y-57735714D01*
X98051995Y-57735714D02*
X98242471Y-57688095D01*
X98242471Y-57688095D02*
X98480566Y-57688095D01*
X98480566Y-57688095D02*
X98671042Y-57735714D01*
X98671042Y-57735714D02*
X98766280Y-57783333D01*
X98766280Y-57783333D02*
X98813900Y-57830952D01*
X98813900Y-57830952D02*
X98861519Y-57926190D01*
X98861519Y-57926190D02*
X98861519Y-58021428D01*
X98861519Y-58021428D02*
X98813900Y-58116666D01*
X98813900Y-58116666D02*
X98766280Y-58164285D01*
X98766280Y-58164285D02*
X98671042Y-58211904D01*
X98671042Y-58211904D02*
X98480566Y-58259523D01*
X98480566Y-58259523D02*
X98242471Y-58259523D01*
X98242471Y-58259523D02*
X98051995Y-58211904D01*
X98051995Y-58211904D02*
X97956757Y-58164285D01*
X97956757Y-58164285D02*
X97909138Y-58116666D01*
X97909138Y-58116666D02*
X97861519Y-58021428D01*
X98861519Y-57259523D02*
X97861519Y-57259523D01*
X98861519Y-56688095D02*
X98290090Y-57116666D01*
X97861519Y-56688095D02*
X98432947Y-57259523D01*
X53615680Y-37754819D02*
X53044252Y-37754819D01*
X53329966Y-37754819D02*
X53329966Y-36754819D01*
X53329966Y-36754819D02*
X53234728Y-36897676D01*
X53234728Y-36897676D02*
X53139490Y-36992914D01*
X53139490Y-36992914D02*
X53044252Y-37040533D01*
X54234728Y-36754819D02*
X54329966Y-36754819D01*
X54329966Y-36754819D02*
X54425204Y-36802438D01*
X54425204Y-36802438D02*
X54472823Y-36850057D01*
X54472823Y-36850057D02*
X54520442Y-36945295D01*
X54520442Y-36945295D02*
X54568061Y-37135771D01*
X54568061Y-37135771D02*
X54568061Y-37373866D01*
X54568061Y-37373866D02*
X54520442Y-37564342D01*
X54520442Y-37564342D02*
X54472823Y-37659580D01*
X54472823Y-37659580D02*
X54425204Y-37707200D01*
X54425204Y-37707200D02*
X54329966Y-37754819D01*
X54329966Y-37754819D02*
X54234728Y-37754819D01*
X54234728Y-37754819D02*
X54139490Y-37707200D01*
X54139490Y-37707200D02*
X54091871Y-37659580D01*
X54091871Y-37659580D02*
X54044252Y-37564342D01*
X54044252Y-37564342D02*
X53996633Y-37373866D01*
X53996633Y-37373866D02*
X53996633Y-37135771D01*
X53996633Y-37135771D02*
X54044252Y-36945295D01*
X54044252Y-36945295D02*
X54091871Y-36850057D01*
X54091871Y-36850057D02*
X54139490Y-36802438D01*
X54139490Y-36802438D02*
X54234728Y-36754819D01*
X55187109Y-36754819D02*
X55282347Y-36754819D01*
X55282347Y-36754819D02*
X55377585Y-36802438D01*
X55377585Y-36802438D02*
X55425204Y-36850057D01*
X55425204Y-36850057D02*
X55472823Y-36945295D01*
X55472823Y-36945295D02*
X55520442Y-37135771D01*
X55520442Y-37135771D02*
X55520442Y-37373866D01*
X55520442Y-37373866D02*
X55472823Y-37564342D01*
X55472823Y-37564342D02*
X55425204Y-37659580D01*
X55425204Y-37659580D02*
X55377585Y-37707200D01*
X55377585Y-37707200D02*
X55282347Y-37754819D01*
X55282347Y-37754819D02*
X55187109Y-37754819D01*
X55187109Y-37754819D02*
X55091871Y-37707200D01*
X55091871Y-37707200D02*
X55044252Y-37659580D01*
X55044252Y-37659580D02*
X54996633Y-37564342D01*
X54996633Y-37564342D02*
X54949014Y-37373866D01*
X54949014Y-37373866D02*
X54949014Y-37135771D01*
X54949014Y-37135771D02*
X54996633Y-36945295D01*
X54996633Y-36945295D02*
X55044252Y-36850057D01*
X55044252Y-36850057D02*
X55091871Y-36802438D01*
X55091871Y-36802438D02*
X55187109Y-36754819D01*
X55949014Y-37088152D02*
X55949014Y-37754819D01*
X55949014Y-37183390D02*
X55996633Y-37135771D01*
X55996633Y-37135771D02*
X56091871Y-37088152D01*
X56091871Y-37088152D02*
X56234728Y-37088152D01*
X56234728Y-37088152D02*
X56329966Y-37135771D01*
X56329966Y-37135771D02*
X56377585Y-37231009D01*
X56377585Y-37231009D02*
X56377585Y-37754819D01*
X57187109Y-37231009D02*
X56853776Y-37231009D01*
X56853776Y-37754819D02*
X56853776Y-36754819D01*
X56853776Y-36754819D02*
X57329966Y-36754819D01*
X105458118Y-58725714D02*
X106124785Y-58725714D01*
X105077166Y-58963809D02*
X105791451Y-59201904D01*
X105791451Y-59201904D02*
X105791451Y-58582857D01*
X106124785Y-58201904D02*
X105124785Y-58201904D01*
X106124785Y-57630476D02*
X105553356Y-58059047D01*
X105124785Y-57630476D02*
X105696213Y-58201904D01*
X105124785Y-57297142D02*
X105124785Y-56630476D01*
X105124785Y-56630476D02*
X106124785Y-57059047D01*
X55399252Y-42984819D02*
X56065918Y-42984819D01*
X56065918Y-42984819D02*
X55637347Y-43984819D01*
X56875442Y-43318152D02*
X56875442Y-43984819D01*
X56637347Y-42937200D02*
X56399252Y-43651485D01*
X56399252Y-43651485D02*
X57018299Y-43651485D01*
X57875442Y-43984819D02*
X57399252Y-43984819D01*
X57399252Y-43984819D02*
X57399252Y-42984819D01*
X58161157Y-43937200D02*
X58304014Y-43984819D01*
X58304014Y-43984819D02*
X58542109Y-43984819D01*
X58542109Y-43984819D02*
X58637347Y-43937200D01*
X58637347Y-43937200D02*
X58684966Y-43889580D01*
X58684966Y-43889580D02*
X58732585Y-43794342D01*
X58732585Y-43794342D02*
X58732585Y-43699104D01*
X58732585Y-43699104D02*
X58684966Y-43603866D01*
X58684966Y-43603866D02*
X58637347Y-43556247D01*
X58637347Y-43556247D02*
X58542109Y-43508628D01*
X58542109Y-43508628D02*
X58351633Y-43461009D01*
X58351633Y-43461009D02*
X58256395Y-43413390D01*
X58256395Y-43413390D02*
X58208776Y-43365771D01*
X58208776Y-43365771D02*
X58161157Y-43270533D01*
X58161157Y-43270533D02*
X58161157Y-43175295D01*
X58161157Y-43175295D02*
X58208776Y-43080057D01*
X58208776Y-43080057D02*
X58256395Y-43032438D01*
X58256395Y-43032438D02*
X58351633Y-42984819D01*
X58351633Y-42984819D02*
X58589728Y-42984819D01*
X58589728Y-42984819D02*
X58732585Y-43032438D01*
X59684966Y-43984819D02*
X59113538Y-43984819D01*
X59399252Y-43984819D02*
X59399252Y-42984819D01*
X59399252Y-42984819D02*
X59304014Y-43127676D01*
X59304014Y-43127676D02*
X59208776Y-43222914D01*
X59208776Y-43222914D02*
X59113538Y-43270533D01*
X60018300Y-42984819D02*
X60637347Y-42984819D01*
X60637347Y-42984819D02*
X60304014Y-43365771D01*
X60304014Y-43365771D02*
X60446871Y-43365771D01*
X60446871Y-43365771D02*
X60542109Y-43413390D01*
X60542109Y-43413390D02*
X60589728Y-43461009D01*
X60589728Y-43461009D02*
X60637347Y-43556247D01*
X60637347Y-43556247D02*
X60637347Y-43794342D01*
X60637347Y-43794342D02*
X60589728Y-43889580D01*
X60589728Y-43889580D02*
X60542109Y-43937200D01*
X60542109Y-43937200D02*
X60446871Y-43984819D01*
X60446871Y-43984819D02*
X60161157Y-43984819D01*
X60161157Y-43984819D02*
X60065919Y-43937200D01*
X60065919Y-43937200D02*
X60018300Y-43889580D01*
X61208776Y-43413390D02*
X61113538Y-43365771D01*
X61113538Y-43365771D02*
X61065919Y-43318152D01*
X61065919Y-43318152D02*
X61018300Y-43222914D01*
X61018300Y-43222914D02*
X61018300Y-43175295D01*
X61018300Y-43175295D02*
X61065919Y-43080057D01*
X61065919Y-43080057D02*
X61113538Y-43032438D01*
X61113538Y-43032438D02*
X61208776Y-42984819D01*
X61208776Y-42984819D02*
X61399252Y-42984819D01*
X61399252Y-42984819D02*
X61494490Y-43032438D01*
X61494490Y-43032438D02*
X61542109Y-43080057D01*
X61542109Y-43080057D02*
X61589728Y-43175295D01*
X61589728Y-43175295D02*
X61589728Y-43222914D01*
X61589728Y-43222914D02*
X61542109Y-43318152D01*
X61542109Y-43318152D02*
X61494490Y-43365771D01*
X61494490Y-43365771D02*
X61399252Y-43413390D01*
X61399252Y-43413390D02*
X61208776Y-43413390D01*
X61208776Y-43413390D02*
X61113538Y-43461009D01*
X61113538Y-43461009D02*
X61065919Y-43508628D01*
X61065919Y-43508628D02*
X61018300Y-43603866D01*
X61018300Y-43603866D02*
X61018300Y-43794342D01*
X61018300Y-43794342D02*
X61065919Y-43889580D01*
X61065919Y-43889580D02*
X61113538Y-43937200D01*
X61113538Y-43937200D02*
X61208776Y-43984819D01*
X61208776Y-43984819D02*
X61399252Y-43984819D01*
X61399252Y-43984819D02*
X61494490Y-43937200D01*
X61494490Y-43937200D02*
X61542109Y-43889580D01*
X61542109Y-43889580D02*
X61589728Y-43794342D01*
X61589728Y-43794342D02*
X61589728Y-43603866D01*
X61589728Y-43603866D02*
X61542109Y-43508628D01*
X61542109Y-43508628D02*
X61494490Y-43461009D01*
X61494490Y-43461009D02*
X61399252Y-43413390D01*
X62823776Y-59949819D02*
X63061871Y-60949819D01*
X63061871Y-60949819D02*
X63252347Y-60235533D01*
X63252347Y-60235533D02*
X63442823Y-60949819D01*
X63442823Y-60949819D02*
X63680919Y-59949819D01*
X64014252Y-60045057D02*
X64061871Y-59997438D01*
X64061871Y-59997438D02*
X64157109Y-59949819D01*
X64157109Y-59949819D02*
X64395204Y-59949819D01*
X64395204Y-59949819D02*
X64490442Y-59997438D01*
X64490442Y-59997438D02*
X64538061Y-60045057D01*
X64538061Y-60045057D02*
X64585680Y-60140295D01*
X64585680Y-60140295D02*
X64585680Y-60235533D01*
X64585680Y-60235533D02*
X64538061Y-60378390D01*
X64538061Y-60378390D02*
X63966633Y-60949819D01*
X63966633Y-60949819D02*
X64585680Y-60949819D01*
X64919014Y-59949819D02*
X65585680Y-59949819D01*
X65585680Y-59949819D02*
X65157109Y-60949819D01*
X66538061Y-60854580D02*
X66490442Y-60902200D01*
X66490442Y-60902200D02*
X66347585Y-60949819D01*
X66347585Y-60949819D02*
X66252347Y-60949819D01*
X66252347Y-60949819D02*
X66109490Y-60902200D01*
X66109490Y-60902200D02*
X66014252Y-60806961D01*
X66014252Y-60806961D02*
X65966633Y-60711723D01*
X65966633Y-60711723D02*
X65919014Y-60521247D01*
X65919014Y-60521247D02*
X65919014Y-60378390D01*
X65919014Y-60378390D02*
X65966633Y-60187914D01*
X65966633Y-60187914D02*
X66014252Y-60092676D01*
X66014252Y-60092676D02*
X66109490Y-59997438D01*
X66109490Y-59997438D02*
X66252347Y-59949819D01*
X66252347Y-59949819D02*
X66347585Y-59949819D01*
X66347585Y-59949819D02*
X66490442Y-59997438D01*
X66490442Y-59997438D02*
X66538061Y-60045057D01*
X67442823Y-59949819D02*
X66966633Y-59949819D01*
X66966633Y-59949819D02*
X66919014Y-60426009D01*
X66919014Y-60426009D02*
X66966633Y-60378390D01*
X66966633Y-60378390D02*
X67061871Y-60330771D01*
X67061871Y-60330771D02*
X67299966Y-60330771D01*
X67299966Y-60330771D02*
X67395204Y-60378390D01*
X67395204Y-60378390D02*
X67442823Y-60426009D01*
X67442823Y-60426009D02*
X67490442Y-60521247D01*
X67490442Y-60521247D02*
X67490442Y-60759342D01*
X67490442Y-60759342D02*
X67442823Y-60854580D01*
X67442823Y-60854580D02*
X67395204Y-60902200D01*
X67395204Y-60902200D02*
X67299966Y-60949819D01*
X67299966Y-60949819D02*
X67061871Y-60949819D01*
X67061871Y-60949819D02*
X66966633Y-60902200D01*
X66966633Y-60902200D02*
X66919014Y-60854580D01*
X68442823Y-60949819D02*
X67871395Y-60949819D01*
X68157109Y-60949819D02*
X68157109Y-59949819D01*
X68157109Y-59949819D02*
X68061871Y-60092676D01*
X68061871Y-60092676D02*
X67966633Y-60187914D01*
X67966633Y-60187914D02*
X67871395Y-60235533D01*
X68823776Y-60045057D02*
X68871395Y-59997438D01*
X68871395Y-59997438D02*
X68966633Y-59949819D01*
X68966633Y-59949819D02*
X69204728Y-59949819D01*
X69204728Y-59949819D02*
X69299966Y-59997438D01*
X69299966Y-59997438D02*
X69347585Y-60045057D01*
X69347585Y-60045057D02*
X69395204Y-60140295D01*
X69395204Y-60140295D02*
X69395204Y-60235533D01*
X69395204Y-60235533D02*
X69347585Y-60378390D01*
X69347585Y-60378390D02*
X68776157Y-60949819D01*
X68776157Y-60949819D02*
X69395204Y-60949819D01*
X86962857Y-58221009D02*
X87105714Y-58268628D01*
X87105714Y-58268628D02*
X87153333Y-58316247D01*
X87153333Y-58316247D02*
X87200952Y-58411485D01*
X87200952Y-58411485D02*
X87200952Y-58554342D01*
X87200952Y-58554342D02*
X87153333Y-58649580D01*
X87153333Y-58649580D02*
X87105714Y-58697200D01*
X87105714Y-58697200D02*
X87010476Y-58744819D01*
X87010476Y-58744819D02*
X86629524Y-58744819D01*
X86629524Y-58744819D02*
X86629524Y-57744819D01*
X86629524Y-57744819D02*
X86962857Y-57744819D01*
X86962857Y-57744819D02*
X87058095Y-57792438D01*
X87058095Y-57792438D02*
X87105714Y-57840057D01*
X87105714Y-57840057D02*
X87153333Y-57935295D01*
X87153333Y-57935295D02*
X87153333Y-58030533D01*
X87153333Y-58030533D02*
X87105714Y-58125771D01*
X87105714Y-58125771D02*
X87058095Y-58173390D01*
X87058095Y-58173390D02*
X86962857Y-58221009D01*
X86962857Y-58221009D02*
X86629524Y-58221009D01*
X88200952Y-58649580D02*
X88153333Y-58697200D01*
X88153333Y-58697200D02*
X88010476Y-58744819D01*
X88010476Y-58744819D02*
X87915238Y-58744819D01*
X87915238Y-58744819D02*
X87772381Y-58697200D01*
X87772381Y-58697200D02*
X87677143Y-58601961D01*
X87677143Y-58601961D02*
X87629524Y-58506723D01*
X87629524Y-58506723D02*
X87581905Y-58316247D01*
X87581905Y-58316247D02*
X87581905Y-58173390D01*
X87581905Y-58173390D02*
X87629524Y-57982914D01*
X87629524Y-57982914D02*
X87677143Y-57887676D01*
X87677143Y-57887676D02*
X87772381Y-57792438D01*
X87772381Y-57792438D02*
X87915238Y-57744819D01*
X87915238Y-57744819D02*
X88010476Y-57744819D01*
X88010476Y-57744819D02*
X88153333Y-57792438D01*
X88153333Y-57792438D02*
X88200952Y-57840057D01*
X89105714Y-57744819D02*
X88629524Y-57744819D01*
X88629524Y-57744819D02*
X88581905Y-58221009D01*
X88581905Y-58221009D02*
X88629524Y-58173390D01*
X88629524Y-58173390D02*
X88724762Y-58125771D01*
X88724762Y-58125771D02*
X88962857Y-58125771D01*
X88962857Y-58125771D02*
X89058095Y-58173390D01*
X89058095Y-58173390D02*
X89105714Y-58221009D01*
X89105714Y-58221009D02*
X89153333Y-58316247D01*
X89153333Y-58316247D02*
X89153333Y-58554342D01*
X89153333Y-58554342D02*
X89105714Y-58649580D01*
X89105714Y-58649580D02*
X89058095Y-58697200D01*
X89058095Y-58697200D02*
X88962857Y-58744819D01*
X88962857Y-58744819D02*
X88724762Y-58744819D01*
X88724762Y-58744819D02*
X88629524Y-58697200D01*
X88629524Y-58697200D02*
X88581905Y-58649580D01*
X90010476Y-58078152D02*
X90010476Y-58744819D01*
X89772381Y-57697200D02*
X89534286Y-58411485D01*
X89534286Y-58411485D02*
X90153333Y-58411485D01*
X90581905Y-58744819D02*
X90772381Y-58744819D01*
X90772381Y-58744819D02*
X90867619Y-58697200D01*
X90867619Y-58697200D02*
X90915238Y-58649580D01*
X90915238Y-58649580D02*
X91010476Y-58506723D01*
X91010476Y-58506723D02*
X91058095Y-58316247D01*
X91058095Y-58316247D02*
X91058095Y-57935295D01*
X91058095Y-57935295D02*
X91010476Y-57840057D01*
X91010476Y-57840057D02*
X90962857Y-57792438D01*
X90962857Y-57792438D02*
X90867619Y-57744819D01*
X90867619Y-57744819D02*
X90677143Y-57744819D01*
X90677143Y-57744819D02*
X90581905Y-57792438D01*
X90581905Y-57792438D02*
X90534286Y-57840057D01*
X90534286Y-57840057D02*
X90486667Y-57935295D01*
X90486667Y-57935295D02*
X90486667Y-58173390D01*
X90486667Y-58173390D02*
X90534286Y-58268628D01*
X90534286Y-58268628D02*
X90581905Y-58316247D01*
X90581905Y-58316247D02*
X90677143Y-58363866D01*
X90677143Y-58363866D02*
X90867619Y-58363866D01*
X90867619Y-58363866D02*
X90962857Y-58316247D01*
X90962857Y-58316247D02*
X91010476Y-58268628D01*
X91010476Y-58268628D02*
X91058095Y-58173390D01*
X53775680Y-51084819D02*
X53204252Y-51084819D01*
X53489966Y-51084819D02*
X53489966Y-50084819D01*
X53489966Y-50084819D02*
X53394728Y-50227676D01*
X53394728Y-50227676D02*
X53299490Y-50322914D01*
X53299490Y-50322914D02*
X53204252Y-50370533D01*
X54394728Y-50084819D02*
X54489966Y-50084819D01*
X54489966Y-50084819D02*
X54585204Y-50132438D01*
X54585204Y-50132438D02*
X54632823Y-50180057D01*
X54632823Y-50180057D02*
X54680442Y-50275295D01*
X54680442Y-50275295D02*
X54728061Y-50465771D01*
X54728061Y-50465771D02*
X54728061Y-50703866D01*
X54728061Y-50703866D02*
X54680442Y-50894342D01*
X54680442Y-50894342D02*
X54632823Y-50989580D01*
X54632823Y-50989580D02*
X54585204Y-51037200D01*
X54585204Y-51037200D02*
X54489966Y-51084819D01*
X54489966Y-51084819D02*
X54394728Y-51084819D01*
X54394728Y-51084819D02*
X54299490Y-51037200D01*
X54299490Y-51037200D02*
X54251871Y-50989580D01*
X54251871Y-50989580D02*
X54204252Y-50894342D01*
X54204252Y-50894342D02*
X54156633Y-50703866D01*
X54156633Y-50703866D02*
X54156633Y-50465771D01*
X54156633Y-50465771D02*
X54204252Y-50275295D01*
X54204252Y-50275295D02*
X54251871Y-50180057D01*
X54251871Y-50180057D02*
X54299490Y-50132438D01*
X54299490Y-50132438D02*
X54394728Y-50084819D01*
X55347109Y-50084819D02*
X55442347Y-50084819D01*
X55442347Y-50084819D02*
X55537585Y-50132438D01*
X55537585Y-50132438D02*
X55585204Y-50180057D01*
X55585204Y-50180057D02*
X55632823Y-50275295D01*
X55632823Y-50275295D02*
X55680442Y-50465771D01*
X55680442Y-50465771D02*
X55680442Y-50703866D01*
X55680442Y-50703866D02*
X55632823Y-50894342D01*
X55632823Y-50894342D02*
X55585204Y-50989580D01*
X55585204Y-50989580D02*
X55537585Y-51037200D01*
X55537585Y-51037200D02*
X55442347Y-51084819D01*
X55442347Y-51084819D02*
X55347109Y-51084819D01*
X55347109Y-51084819D02*
X55251871Y-51037200D01*
X55251871Y-51037200D02*
X55204252Y-50989580D01*
X55204252Y-50989580D02*
X55156633Y-50894342D01*
X55156633Y-50894342D02*
X55109014Y-50703866D01*
X55109014Y-50703866D02*
X55109014Y-50465771D01*
X55109014Y-50465771D02*
X55156633Y-50275295D01*
X55156633Y-50275295D02*
X55204252Y-50180057D01*
X55204252Y-50180057D02*
X55251871Y-50132438D01*
X55251871Y-50132438D02*
X55347109Y-50084819D01*
X56109014Y-50418152D02*
X56109014Y-51084819D01*
X56109014Y-50513390D02*
X56156633Y-50465771D01*
X56156633Y-50465771D02*
X56251871Y-50418152D01*
X56251871Y-50418152D02*
X56394728Y-50418152D01*
X56394728Y-50418152D02*
X56489966Y-50465771D01*
X56489966Y-50465771D02*
X56537585Y-50561009D01*
X56537585Y-50561009D02*
X56537585Y-51084819D01*
X57347109Y-50561009D02*
X57013776Y-50561009D01*
X57013776Y-51084819D02*
X57013776Y-50084819D01*
X57013776Y-50084819D02*
X57489966Y-50084819D01*
X95288119Y-58640476D02*
X95288119Y-59211904D01*
X95288119Y-58926190D02*
X94288119Y-58926190D01*
X94288119Y-58926190D02*
X94430976Y-59021428D01*
X94430976Y-59021428D02*
X94526214Y-59116666D01*
X94526214Y-59116666D02*
X94573833Y-59211904D01*
X94288119Y-58021428D02*
X94288119Y-57926190D01*
X94288119Y-57926190D02*
X94335738Y-57830952D01*
X94335738Y-57830952D02*
X94383357Y-57783333D01*
X94383357Y-57783333D02*
X94478595Y-57735714D01*
X94478595Y-57735714D02*
X94669071Y-57688095D01*
X94669071Y-57688095D02*
X94907166Y-57688095D01*
X94907166Y-57688095D02*
X95097642Y-57735714D01*
X95097642Y-57735714D02*
X95192880Y-57783333D01*
X95192880Y-57783333D02*
X95240500Y-57830952D01*
X95240500Y-57830952D02*
X95288119Y-57926190D01*
X95288119Y-57926190D02*
X95288119Y-58021428D01*
X95288119Y-58021428D02*
X95240500Y-58116666D01*
X95240500Y-58116666D02*
X95192880Y-58164285D01*
X95192880Y-58164285D02*
X95097642Y-58211904D01*
X95097642Y-58211904D02*
X94907166Y-58259523D01*
X94907166Y-58259523D02*
X94669071Y-58259523D01*
X94669071Y-58259523D02*
X94478595Y-58211904D01*
X94478595Y-58211904D02*
X94383357Y-58164285D01*
X94383357Y-58164285D02*
X94335738Y-58116666D01*
X94335738Y-58116666D02*
X94288119Y-58021428D01*
X95288119Y-57259523D02*
X94288119Y-57259523D01*
X95288119Y-56688095D02*
X94716690Y-57116666D01*
X94288119Y-56688095D02*
X94859547Y-57259523D01*
D14*
%TO.C,R1*%
X100610000Y-54680000D02*
X100610000Y-61220000D01*
X100610000Y-61220000D02*
X103350000Y-61220000D01*
X101980000Y-53910000D02*
X101980000Y-54680000D01*
X101980000Y-61990000D02*
X101980000Y-61220000D01*
X103350000Y-54680000D02*
X100610000Y-54680000D01*
X103350000Y-61220000D02*
X103350000Y-54680000D01*
%TO.C,C3*%
X72064300Y-36440000D02*
X73322300Y-36440000D01*
X72064300Y-38280000D02*
X73322300Y-38280000D01*
%TO.C,U3*%
X70643300Y-40870000D02*
X70643300Y-42520000D01*
X70643300Y-44520000D02*
X70643300Y-46170000D01*
X70643300Y-46170000D02*
X91083300Y-46170000D01*
X91083300Y-40870000D02*
X70643300Y-40870000D01*
X91083300Y-46170000D02*
X91083300Y-40870000D01*
X70643300Y-42520000D02*
G75*
G02*
X70643300Y-44520000I0J-1000000D01*
G01*
%TO.C,R2*%
X97036700Y-54680000D02*
X97036700Y-61220000D01*
X97036700Y-61220000D02*
X99776700Y-61220000D01*
X98406700Y-53910000D02*
X98406700Y-54680000D01*
X98406700Y-61990000D02*
X98406700Y-61220000D01*
X99776700Y-54680000D02*
X97036700Y-54680000D01*
X99776700Y-61220000D02*
X99776700Y-54680000D01*
%TO.C,C2*%
X49774300Y-36450000D02*
X51032300Y-36450000D01*
X49774300Y-38290000D02*
X51032300Y-38290000D01*
%TO.C,R4*%
X104183300Y-54680000D02*
X104183300Y-61220000D01*
X104183300Y-61220000D02*
X106923300Y-61220000D01*
X105553300Y-53910000D02*
X105553300Y-54680000D01*
X105553300Y-61990000D02*
X105553300Y-61220000D01*
X106923300Y-54680000D02*
X104183300Y-54680000D01*
X106923300Y-61220000D02*
X106923300Y-54680000D01*
%TO.C,SW2*%
X94773300Y-47090000D02*
X94773300Y-45707000D01*
X94773300Y-47090000D02*
X96083300Y-47090000D01*
X95013300Y-40029000D02*
X96133300Y-40029000D01*
X95013300Y-46850000D02*
X95013300Y-40029000D01*
X95013300Y-46850000D02*
X96083300Y-46850000D01*
X96488300Y-41630000D02*
X96488300Y-45250000D01*
X96488300Y-44043333D02*
X97758300Y-44043333D01*
X96488300Y-45250000D02*
X97758300Y-45250000D01*
X96608300Y-45250000D02*
X96608300Y-44043333D01*
X96728300Y-45250000D02*
X96728300Y-44043333D01*
X96848300Y-45250000D02*
X96848300Y-44043333D01*
X96968300Y-45250000D02*
X96968300Y-44043333D01*
X97088300Y-45250000D02*
X97088300Y-44043333D01*
X97208300Y-45250000D02*
X97208300Y-44043333D01*
X97328300Y-45250000D02*
X97328300Y-44043333D01*
X97448300Y-45250000D02*
X97448300Y-44043333D01*
X97568300Y-45250000D02*
X97568300Y-44043333D01*
X97688300Y-45250000D02*
X97688300Y-44043333D01*
X97758300Y-41630000D02*
X96488300Y-41630000D01*
X97758300Y-45250000D02*
X97758300Y-41630000D01*
X98113300Y-40029000D02*
X98674300Y-40029000D01*
X98163300Y-46850000D02*
X98674300Y-46850000D01*
X99028300Y-41630000D02*
X99028300Y-45250000D01*
X99028300Y-44043333D02*
X100298300Y-44043333D01*
X99028300Y-45250000D02*
X100298300Y-45250000D01*
X99148300Y-45250000D02*
X99148300Y-44043333D01*
X99268300Y-45250000D02*
X99268300Y-44043333D01*
X99388300Y-45250000D02*
X99388300Y-44043333D01*
X99508300Y-45250000D02*
X99508300Y-44043333D01*
X99628300Y-45250000D02*
X99628300Y-44043333D01*
X99748300Y-45250000D02*
X99748300Y-44043333D01*
X99868300Y-45250000D02*
X99868300Y-44043333D01*
X99988300Y-45250000D02*
X99988300Y-44043333D01*
X100108300Y-45250000D02*
X100108300Y-44043333D01*
X100228300Y-45250000D02*
X100228300Y-44043333D01*
X100298300Y-41630000D02*
X99028300Y-41630000D01*
X100298300Y-45250000D02*
X100298300Y-41630000D01*
X100653300Y-40029000D02*
X101214300Y-40029000D01*
X100653300Y-46850000D02*
X101214300Y-46850000D01*
X101568300Y-41630000D02*
X101568300Y-45250000D01*
X101568300Y-44043333D02*
X102838300Y-44043333D01*
X101568300Y-45250000D02*
X102838300Y-45250000D01*
X101688300Y-45250000D02*
X101688300Y-44043333D01*
X101808300Y-45250000D02*
X101808300Y-44043333D01*
X101928300Y-45250000D02*
X101928300Y-44043333D01*
X102048300Y-45250000D02*
X102048300Y-44043333D01*
X102168300Y-45250000D02*
X102168300Y-44043333D01*
X102288300Y-45250000D02*
X102288300Y-44043333D01*
X102408300Y-45250000D02*
X102408300Y-44043333D01*
X102528300Y-45250000D02*
X102528300Y-44043333D01*
X102648300Y-45250000D02*
X102648300Y-44043333D01*
X102768300Y-45250000D02*
X102768300Y-44043333D01*
X102838300Y-41630000D02*
X101568300Y-41630000D01*
X102838300Y-45250000D02*
X102838300Y-41630000D01*
X103193300Y-40029000D02*
X103754300Y-40029000D01*
X103193300Y-46850000D02*
X103754300Y-46850000D01*
X104108300Y-41630000D02*
X104108300Y-45250000D01*
X104108300Y-44043333D02*
X105378300Y-44043333D01*
X104108300Y-45250000D02*
X105378300Y-45250000D01*
X104228300Y-45250000D02*
X104228300Y-44043333D01*
X104348300Y-45250000D02*
X104348300Y-44043333D01*
X104468300Y-45250000D02*
X104468300Y-44043333D01*
X104588300Y-45250000D02*
X104588300Y-44043333D01*
X104708300Y-45250000D02*
X104708300Y-44043333D01*
X104828300Y-45250000D02*
X104828300Y-44043333D01*
X104948300Y-45250000D02*
X104948300Y-44043333D01*
X105068300Y-45250000D02*
X105068300Y-44043333D01*
X105188300Y-45250000D02*
X105188300Y-44043333D01*
X105308300Y-45250000D02*
X105308300Y-44043333D01*
X105378300Y-41630000D02*
X104108300Y-41630000D01*
X105378300Y-45250000D02*
X105378300Y-41630000D01*
X105733300Y-40029000D02*
X106853300Y-40029000D01*
X105733300Y-46850000D02*
X106853300Y-46850000D01*
X106853300Y-46850000D02*
X106853300Y-40029000D01*
%TO.C,U2*%
X48313300Y-40870000D02*
X48313300Y-42520000D01*
X48313300Y-44520000D02*
X48313300Y-46170000D01*
X48313300Y-46170000D02*
X68753300Y-46170000D01*
X68753300Y-40870000D02*
X48313300Y-40870000D01*
X68753300Y-46170000D02*
X68753300Y-40870000D01*
X48313300Y-42520000D02*
G75*
G02*
X48313300Y-44520000I0J-1000000D01*
G01*
%TO.C,U1*%
X48303300Y-54040000D02*
X48303300Y-59500000D01*
X48303300Y-61500000D02*
X48303300Y-66960000D01*
X48303300Y-66960000D02*
X83983300Y-66960000D01*
X83983300Y-54040000D02*
X48303300Y-54040000D01*
X83983300Y-66960000D02*
X83983300Y-54040000D01*
X48303300Y-59500000D02*
G75*
G02*
X48303300Y-61500000I0J-1000000D01*
G01*
%TO.C,Q1*%
X90620000Y-59230000D02*
X87020000Y-59230000D01*
X88820000Y-63680000D02*
G75*
G02*
X86981522Y-59241522I0J2600000D01*
G01*
X90658478Y-59241522D02*
G75*
G02*
X88820000Y-63680001I-1838478J-1838478D01*
G01*
%TO.C,C1*%
X49754300Y-49650000D02*
X51012300Y-49650000D01*
X49754300Y-51490000D02*
X51012300Y-51490000D01*
%TO.C,R3*%
X93463300Y-54680000D02*
X93463300Y-61220000D01*
X93463300Y-61220000D02*
X96203300Y-61220000D01*
X94833300Y-53910000D02*
X94833300Y-54680000D01*
X94833300Y-61990000D02*
X94833300Y-61220000D01*
X96203300Y-54680000D02*
X93463300Y-54680000D01*
X96203300Y-61220000D02*
X96203300Y-54680000D01*
%TD*%
M02*
