%TF.GenerationSoftware,KiCad,Pcbnew,8.0.2*%
%TF.CreationDate,2024-05-18T23:24:33+02:00*%
%TF.ProjectId,zx81-external-eprom,7a783831-2d65-4787-9465-726e616c2d65,rev?*%
%TF.SameCoordinates,Original*%
%TF.FileFunction,Copper,L1,Top*%
%TF.FilePolarity,Positive*%
%FSLAX46Y46*%
G04 Gerber Fmt 4.6, Leading zero omitted, Abs format (unit mm)*
G04 Created by KiCad (PCBNEW 8.0.2) date 2024-05-18 23:24:33*
%MOMM*%
%LPD*%
G01*
G04 APERTURE LIST*
%TA.AperFunction,ComponentPad*%
%ADD10C,1.600000*%
%TD*%
%TA.AperFunction,ComponentPad*%
%ADD11O,1.600000X1.600000*%
%TD*%
%TA.AperFunction,ConnectorPad*%
%ADD12R,1.778000X9.620000*%
%TD*%
%TA.AperFunction,ComponentPad*%
%ADD13R,1.600000X1.600000*%
%TD*%
%TA.AperFunction,ComponentPad*%
%ADD14R,1.050000X1.500000*%
%TD*%
%TA.AperFunction,ComponentPad*%
%ADD15O,1.050000X1.500000*%
%TD*%
%TA.AperFunction,ViaPad*%
%ADD16C,0.600000*%
%TD*%
%TA.AperFunction,Conductor*%
%ADD17C,0.200000*%
%TD*%
G04 APERTURE END LIST*
D10*
%TO.P,R1,1*%
%TO.N,Net-(U3-I0b)*%
X101980000Y-52870000D03*
D11*
%TO.P,R1,2*%
%TO.N,GND*%
X101980000Y-63030000D03*
%TD*%
D10*
%TO.P,C3,1*%
%TO.N,+5V*%
X71443300Y-37360000D03*
%TO.P,C3,2*%
%TO.N,GND*%
X73943300Y-37360000D03*
%TD*%
D12*
%TO.P,J1,B3,D7*%
%TO.N,D7*%
X49694600Y-82670000D03*
%TO.P,J1,B4,~{RAMCS}*%
%TO.N,unconnected-(J1-~{RAMCS}-PadB4)*%
X52234600Y-82670000D03*
%TO.P,J1,B6,D0*%
%TO.N,D0*%
X57314600Y-82670000D03*
%TO.P,J1,B7,D1*%
%TO.N,D1*%
X59854600Y-82670000D03*
%TO.P,J1,B8,D2*%
%TO.N,D2*%
X62394600Y-82670000D03*
%TO.P,J1,B9,D6*%
%TO.N,D6*%
X64934600Y-82670000D03*
%TO.P,J1,B10,D5*%
%TO.N,D5*%
X67474600Y-82670000D03*
%TO.P,J1,B11,D3*%
%TO.N,D3*%
X70014600Y-82670000D03*
%TO.P,J1,B12,D4*%
%TO.N,D4*%
X72544600Y-82670000D03*
%TO.P,J1,B13,~{INT}*%
%TO.N,unconnected-(J1-~{INT}-PadB13)*%
X75094600Y-82670000D03*
%TO.P,J1,B14,~{NMI}*%
%TO.N,unconnected-(J1-~{NMI}-PadB14)*%
X77634600Y-82670000D03*
%TO.P,J1,B15,~{HALT}*%
%TO.N,unconnected-(J1-~{HALT}-PadB15)*%
X80174600Y-82670000D03*
%TO.P,J1,B16,~{MREQ}*%
%TO.N,Net-(J1-~{MREQ})*%
X82714600Y-82670000D03*
%TO.P,J1,B17,~{IOREQ}*%
%TO.N,unconnected-(J1-~{IOREQ}-PadB17)*%
X85254600Y-82670000D03*
%TO.P,J1,B18,~{RD}*%
%TO.N,Net-(J1-~{RD})*%
X87794600Y-82670000D03*
%TO.P,J1,B19,~{WR}*%
%TO.N,unconnected-(J1-~{WR}-PadB19)*%
X90334600Y-82670000D03*
%TO.P,J1,B20,~{BUSAC}*%
%TO.N,unconnected-(J1-~{BUSAC}-PadB20)*%
X92874600Y-82670000D03*
%TO.P,J1,B21,~{WAIT}*%
%TO.N,unconnected-(J1-~{WAIT}-PadB21)*%
X95414600Y-82670000D03*
%TO.P,J1,B22,~{BUSRQ}*%
%TO.N,unconnected-(J1-~{BUSRQ}-PadB22)*%
X97954600Y-82670000D03*
%TO.P,J1,B23,~{RESET}*%
%TO.N,unconnected-(J1-~{RESET}-PadB23)*%
X100494600Y-82670000D03*
%TO.P,J1,B24,~{M1}*%
%TO.N,unconnected-(J1-~{M1}-PadB24)*%
X103034600Y-82670000D03*
%TO.P,J1,B25,~{RFSH}*%
%TO.N,Net-(J1-~{RFSH})*%
X105574600Y-82670000D03*
%TD*%
D13*
%TO.P,U3,1,S*%
%TO.N,Net-(U3-S)*%
X71973300Y-47330000D03*
D11*
%TO.P,U3,2,I0a*%
%TO.N,Net-(J1-A13)*%
X74513300Y-47330000D03*
%TO.P,U3,3,I1a*%
%TO.N,GND*%
X77053300Y-47330000D03*
%TO.P,U3,4,Za*%
%TO.N,Net-(U2-A0)*%
X79593300Y-47330000D03*
%TO.P,U3,5,I0b*%
%TO.N,Net-(U3-I0b)*%
X82133300Y-47330000D03*
%TO.P,U3,6,I1b*%
%TO.N,Net-(J1-A13)*%
X84673300Y-47330000D03*
%TO.P,U3,7,Zb*%
%TO.N,Net-(U1-A13)*%
X87213300Y-47330000D03*
%TO.P,U3,8,GND*%
%TO.N,GND*%
X89753300Y-47330000D03*
%TO.P,U3,9,Zc*%
%TO.N,unconnected-(U3-Zc-Pad9)*%
X89753300Y-39710000D03*
%TO.P,U3,10,I1c*%
%TO.N,GND*%
X87213300Y-39710000D03*
%TO.P,U3,11,I0c*%
X84673300Y-39710000D03*
%TO.P,U3,12,Zd*%
%TO.N,unconnected-(U3-Zd-Pad12)*%
X82133300Y-39710000D03*
%TO.P,U3,13,I1d*%
%TO.N,GND*%
X79593300Y-39710000D03*
%TO.P,U3,14,I0d*%
X77053300Y-39710000D03*
%TO.P,U3,15,E*%
X74513300Y-39710000D03*
%TO.P,U3,16,VCC*%
%TO.N,+5V*%
X71973300Y-39710000D03*
%TD*%
D10*
%TO.P,R2,1*%
%TO.N,Net-(U1-A14)*%
X98406700Y-52870000D03*
D11*
%TO.P,R2,2*%
%TO.N,GND*%
X98406700Y-63030000D03*
%TD*%
D10*
%TO.P,C2,1*%
%TO.N,+5V*%
X49153300Y-37370000D03*
%TO.P,C2,2*%
%TO.N,GND*%
X51653300Y-37370000D03*
%TD*%
%TO.P,R4,1*%
%TO.N,Net-(U3-S)*%
X105553300Y-52870000D03*
D11*
%TO.P,R4,2*%
%TO.N,GND*%
X105553300Y-63030000D03*
%TD*%
D13*
%TO.P,SW2,1*%
%TO.N,+5V*%
X97123300Y-47250000D03*
D11*
%TO.P,SW2,2*%
X99663300Y-47250000D03*
%TO.P,SW2,3*%
X102203300Y-47250000D03*
%TO.P,SW2,4*%
X104743300Y-47250000D03*
%TO.P,SW2,5*%
%TO.N,Net-(U3-S)*%
X104743300Y-39630000D03*
%TO.P,SW2,6*%
%TO.N,Net-(U3-I0b)*%
X102203300Y-39630000D03*
%TO.P,SW2,7*%
%TO.N,Net-(U1-A14)*%
X99663300Y-39630000D03*
%TO.P,SW2,8*%
%TO.N,Net-(U1-A15)*%
X97123300Y-39630000D03*
%TD*%
D13*
%TO.P,U2,1,A0*%
%TO.N,Net-(U2-A0)*%
X49643300Y-47330000D03*
D11*
%TO.P,U2,2,A1*%
%TO.N,A14*%
X52183300Y-47330000D03*
%TO.P,U2,3,A2*%
%TO.N,A15*%
X54723300Y-47330000D03*
%TO.P,U2,4,E1*%
%TO.N,Net-(J1-~{MREQ})*%
X57263300Y-47330000D03*
%TO.P,U2,5,E2*%
%TO.N,Net-(J1-~{RD})*%
X59803300Y-47330000D03*
%TO.P,U2,6,E3*%
%TO.N,Net-(J1-~{RFSH})*%
X62343300Y-47330000D03*
%TO.P,U2,7,O7*%
%TO.N,unconnected-(U2-O7-Pad7)*%
X64883300Y-47330000D03*
%TO.P,U2,8,GND*%
%TO.N,GND*%
X67423300Y-47330000D03*
%TO.P,U2,9,O6*%
%TO.N,unconnected-(U2-O6-Pad9)*%
X67423300Y-39710000D03*
%TO.P,U2,10,O5*%
%TO.N,unconnected-(U2-O5-Pad10)*%
X64883300Y-39710000D03*
%TO.P,U2,11,O4*%
%TO.N,unconnected-(U2-O4-Pad11)*%
X62343300Y-39710000D03*
%TO.P,U2,12,O3*%
%TO.N,unconnected-(U2-O3-Pad12)*%
X59803300Y-39710000D03*
%TO.P,U2,13,O2*%
%TO.N,unconnected-(U2-O2-Pad13)*%
X57263300Y-39710000D03*
%TO.P,U2,14,O1*%
%TO.N,unconnected-(U2-O1-Pad14)*%
X54723300Y-39710000D03*
%TO.P,U2,15,O0*%
%TO.N,Net-(U1-~{CE})*%
X52183300Y-39710000D03*
%TO.P,U2,16,VCC*%
%TO.N,+5V*%
X49643300Y-39710000D03*
%TD*%
D13*
%TO.P,U1,1,A15*%
%TO.N,Net-(U1-A15)*%
X49633300Y-68120000D03*
D11*
%TO.P,U1,2,A12*%
%TO.N,A12*%
X52173300Y-68120000D03*
%TO.P,U1,3,A7*%
%TO.N,A7*%
X54713300Y-68120000D03*
%TO.P,U1,4,A6*%
%TO.N,A6*%
X57253300Y-68120000D03*
%TO.P,U1,5,A5*%
%TO.N,A5*%
X59793300Y-68120000D03*
%TO.P,U1,6,A4*%
%TO.N,A4*%
X62333300Y-68120000D03*
%TO.P,U1,7,A3*%
%TO.N,A3*%
X64873300Y-68120000D03*
%TO.P,U1,8,A2*%
%TO.N,A2*%
X67413300Y-68120000D03*
%TO.P,U1,9,A1*%
%TO.N,A1*%
X69953300Y-68120000D03*
%TO.P,U1,10,A0*%
%TO.N,A0*%
X72493300Y-68120000D03*
%TO.P,U1,11,D0*%
%TO.N,D0*%
X75033300Y-68120000D03*
%TO.P,U1,12,D1*%
%TO.N,D1*%
X77573300Y-68120000D03*
%TO.P,U1,13,D2*%
%TO.N,D2*%
X80113300Y-68120000D03*
%TO.P,U1,14,GND*%
%TO.N,GND*%
X82653300Y-68120000D03*
%TO.P,U1,15,D3*%
%TO.N,D3*%
X82653300Y-52880000D03*
%TO.P,U1,16,D4*%
%TO.N,D4*%
X80113300Y-52880000D03*
%TO.P,U1,17,D5*%
%TO.N,D5*%
X77573300Y-52880000D03*
%TO.P,U1,18,D6*%
%TO.N,D6*%
X75033300Y-52880000D03*
%TO.P,U1,19,D7*%
%TO.N,D7*%
X72493300Y-52880000D03*
%TO.P,U1,20,~{CE}*%
%TO.N,Net-(U1-~{CE})*%
X69953300Y-52880000D03*
%TO.P,U1,21,A10*%
%TO.N,A10*%
X67413300Y-52880000D03*
%TO.P,U1,22,~{OE/Vpp}*%
%TO.N,Net-(J1-~{RD})*%
X64873300Y-52880000D03*
%TO.P,U1,23,A11*%
%TO.N,A11*%
X62333300Y-52880000D03*
%TO.P,U1,24,A9*%
%TO.N,A9*%
X59793300Y-52880000D03*
%TO.P,U1,25,A8*%
%TO.N,A8*%
X57253300Y-52880000D03*
%TO.P,U1,26,A13*%
%TO.N,Net-(U1-A13)*%
X54713300Y-52880000D03*
%TO.P,U1,27,A14*%
%TO.N,Net-(U1-A14)*%
X52173300Y-52880000D03*
%TO.P,U1,28,VCC*%
%TO.N,+5V*%
X49633300Y-52880000D03*
%TD*%
D14*
%TO.P,Q1,1,C*%
%TO.N,+5V*%
X90090000Y-61080000D03*
D15*
%TO.P,Q1,2,B*%
%TO.N,Net-(J1-~{RFSH})*%
X88820000Y-61080000D03*
%TO.P,Q1,3,E*%
%TO.N,Net-(J1-~{ROMCS})*%
X87550000Y-61080000D03*
%TD*%
D10*
%TO.P,C1,1*%
%TO.N,+5V*%
X49133300Y-50570000D03*
%TO.P,C1,2*%
%TO.N,GND*%
X51633300Y-50570000D03*
%TD*%
%TO.P,R3,1*%
%TO.N,Net-(U1-A15)*%
X94833300Y-52870000D03*
D11*
%TO.P,R3,2*%
%TO.N,GND*%
X94833300Y-63030000D03*
%TD*%
D16*
%TO.N,D5*%
X74880200Y-72547800D03*
%TO.N,Net-(J1-~{RD})*%
X80416100Y-60791000D03*
X86880200Y-77338700D03*
%TO.N,D4*%
X83828300Y-69703300D03*
%TO.N,D3*%
X86053500Y-66248000D03*
%TO.N,D6*%
X73257400Y-72149100D03*
%TO.N,A9*%
X81722400Y-62306700D03*
%TO.N,D7*%
X62658500Y-57631500D03*
%TO.N,A2*%
X66291000Y-70440300D03*
%TO.N,A8*%
X82124100Y-63108500D03*
%TO.N,A7*%
X85251700Y-66035100D03*
%TO.N,Net-(J1-~{MREQ})*%
X78315200Y-75567800D03*
%TO.N,A4*%
X90170600Y-65717000D03*
%TO.N,A1*%
X67113200Y-71830500D03*
%TO.N,A6*%
X85004600Y-64429900D03*
%TO.N,A12*%
X78998300Y-69361300D03*
%TO.N,A11*%
X79255400Y-61912000D03*
%TO.N,A5*%
X86539300Y-65031700D03*
%TO.N,A10*%
X81120600Y-59802900D03*
%TO.N,A0*%
X65360500Y-73121900D03*
%TD*%
D17*
%TO.N,Net-(U2-A0)*%
X49643300Y-47330000D02*
X50745000Y-47330000D01*
X79593300Y-47330000D02*
X78491600Y-47330000D01*
X50745000Y-47192300D02*
X50745000Y-47330000D01*
X51737800Y-46199500D02*
X50745000Y-47192300D01*
X68816100Y-46199500D02*
X51737800Y-46199500D01*
X71055500Y-48438900D02*
X68816100Y-46199500D01*
X77611000Y-48438900D02*
X71055500Y-48438900D01*
X78491600Y-47558300D02*
X77611000Y-48438900D01*
X78491600Y-47330000D02*
X78491600Y-47558300D01*
%TO.N,Net-(U3-S)*%
X104743300Y-39630000D02*
X104743300Y-40731700D01*
X105553300Y-50171600D02*
X105553300Y-52870000D01*
X98018200Y-50171600D02*
X105553300Y-50171600D01*
X93652600Y-45806000D02*
X98018200Y-50171600D01*
X74461300Y-45806000D02*
X93652600Y-45806000D01*
X73075000Y-47192300D02*
X74461300Y-45806000D01*
X73075000Y-47330000D02*
X73075000Y-47192300D01*
X105860700Y-41849100D02*
X104743300Y-40731700D01*
X105860700Y-49864200D02*
X105860700Y-41849100D01*
X105553300Y-50171600D02*
X105860700Y-49864200D01*
X71973300Y-47330000D02*
X73075000Y-47330000D01*
%TO.N,Net-(U1-A14)*%
X97304400Y-51767700D02*
X98406700Y-52870000D01*
X56805100Y-51767700D02*
X97304400Y-51767700D01*
X55841800Y-52731000D02*
X56805100Y-51767700D01*
X55841800Y-53355300D02*
X55841800Y-52731000D01*
X55191600Y-54005500D02*
X55841800Y-53355300D01*
X54262800Y-54005500D02*
X55191600Y-54005500D01*
X53275000Y-53017700D02*
X54262800Y-54005500D01*
X53275000Y-52880000D02*
X53275000Y-53017700D01*
X52173300Y-52880000D02*
X53275000Y-52880000D01*
%TO.N,Net-(U1-A13)*%
X87213300Y-47330000D02*
X86111600Y-47330000D01*
X56644000Y-50949300D02*
X54713300Y-52880000D01*
X82651400Y-50949300D02*
X56644000Y-50949300D01*
X86111600Y-47489100D02*
X82651400Y-50949300D01*
X86111600Y-47330000D02*
X86111600Y-47489100D01*
%TO.N,Net-(U1-A15)*%
X49633300Y-68120000D02*
X50735000Y-68120000D01*
X50735000Y-67982300D02*
X50735000Y-68120000D01*
X54281800Y-64435500D02*
X50735000Y-67982300D01*
X81976300Y-64435500D02*
X54281800Y-64435500D01*
X93541800Y-52870000D02*
X81976300Y-64435500D01*
X94833300Y-52870000D02*
X93541800Y-52870000D01*
%TO.N,D5*%
X68935500Y-77558300D02*
X67474600Y-77558300D01*
X73946000Y-72547800D02*
X68935500Y-77558300D01*
X74880200Y-72547800D02*
X73946000Y-72547800D01*
X67474600Y-82670000D02*
X67474600Y-77558300D01*
%TO.N,Net-(J1-~{RD})*%
X73748300Y-60791000D02*
X80416100Y-60791000D01*
X65975000Y-53017700D02*
X73748300Y-60791000D01*
X65975000Y-52880000D02*
X65975000Y-53017700D01*
X87794600Y-82670000D02*
X87794600Y-77558300D01*
X87099800Y-77558300D02*
X87794600Y-77558300D01*
X86880200Y-77338700D02*
X87099800Y-77558300D01*
X64873300Y-52880000D02*
X65975000Y-52880000D01*
%TO.N,D1*%
X59854600Y-82670000D02*
X59854600Y-77558300D01*
X77573300Y-68120000D02*
X76471600Y-68120000D01*
X62527900Y-74885000D02*
X59854600Y-77558300D01*
X66180400Y-74885000D02*
X62527900Y-74885000D01*
X69919700Y-71145700D02*
X66180400Y-74885000D01*
X73570100Y-71145700D02*
X69919700Y-71145700D01*
X76471600Y-68244200D02*
X73570100Y-71145700D01*
X76471600Y-68120000D02*
X76471600Y-68244200D01*
%TO.N,D4*%
X72544600Y-82670000D02*
X72544600Y-77558300D01*
X75473900Y-77558300D02*
X72544600Y-77558300D01*
X83328900Y-69703300D02*
X75473900Y-77558300D01*
X83828300Y-69703300D02*
X83328900Y-69703300D01*
%TO.N,D3*%
X70014600Y-82670000D02*
X70014600Y-77558300D01*
X85369600Y-66931900D02*
X86053500Y-66248000D01*
X82283300Y-66931900D02*
X85369600Y-66931900D01*
X81328200Y-67887000D02*
X82283300Y-66931900D01*
X81328200Y-68577900D02*
X81328200Y-67887000D01*
X73051400Y-76854700D02*
X81328200Y-68577900D01*
X70718200Y-76854700D02*
X73051400Y-76854700D01*
X70014600Y-77558300D02*
X70718200Y-76854700D01*
%TO.N,D6*%
X64934600Y-82670000D02*
X64934600Y-77558300D01*
X70343800Y-72149100D02*
X73257400Y-72149100D01*
X64934600Y-77558300D02*
X70343800Y-72149100D01*
%TO.N,A9*%
X59793300Y-52880000D02*
X60895000Y-52880000D01*
X81515400Y-62513700D02*
X81722400Y-62306700D01*
X70390900Y-62513700D02*
X81515400Y-62513700D01*
X60895000Y-53017800D02*
X70390900Y-62513700D01*
X60895000Y-52880000D02*
X60895000Y-53017800D01*
%TO.N,D7*%
X49694600Y-75284100D02*
X49694600Y-82670000D01*
X48531600Y-74121100D02*
X49694600Y-75284100D01*
X48531600Y-67169200D02*
X48531600Y-74121100D01*
X58069300Y-57631500D02*
X48531600Y-67169200D01*
X62658500Y-57631500D02*
X58069300Y-57631500D01*
%TO.N,Net-(J1-~{RFSH})*%
X105574600Y-72177900D02*
X105574600Y-82670000D01*
X95263600Y-61866900D02*
X105574600Y-72177900D01*
X94196400Y-61866900D02*
X95263600Y-61866900D01*
X93931600Y-62131700D02*
X94196400Y-61866900D01*
X88820000Y-62131700D02*
X93931600Y-62131700D01*
X88820000Y-61080000D02*
X88820000Y-62131700D01*
%TO.N,A2*%
X67413300Y-68120000D02*
X67413300Y-69221700D01*
X66291000Y-70344000D02*
X66291000Y-70440300D01*
X67413300Y-69221700D02*
X66291000Y-70344000D01*
%TO.N,Net-(J1-A13)*%
X84673300Y-47330000D02*
X83571600Y-47330000D01*
X74513300Y-47330000D02*
X75615000Y-47330000D01*
X83571600Y-47192300D02*
X83571600Y-47330000D01*
X82596200Y-46216900D02*
X83571600Y-47192300D01*
X76499800Y-46216900D02*
X82596200Y-46216900D01*
X75615000Y-47101700D02*
X76499800Y-46216900D01*
X75615000Y-47330000D02*
X75615000Y-47101700D01*
%TO.N,A8*%
X57253300Y-52880000D02*
X58355000Y-52880000D01*
X58355000Y-53017700D02*
X58355000Y-52880000D01*
X62367100Y-57029800D02*
X58355000Y-53017700D01*
X62907700Y-57029800D02*
X62367100Y-57029800D01*
X68986400Y-63108500D02*
X62907700Y-57029800D01*
X82124100Y-63108500D02*
X68986400Y-63108500D01*
%TO.N,A7*%
X54713300Y-68120000D02*
X55815000Y-68120000D01*
X84968000Y-66318800D02*
X85251700Y-66035100D01*
X65102000Y-66318800D02*
X84968000Y-66318800D01*
X63461800Y-67959000D02*
X65102000Y-66318800D01*
X63461800Y-68613400D02*
X63461800Y-67959000D01*
X62848700Y-69226500D02*
X63461800Y-68613400D01*
X56783800Y-69226500D02*
X62848700Y-69226500D01*
X55815000Y-68257700D02*
X56783800Y-69226500D01*
X55815000Y-68120000D02*
X55815000Y-68257700D01*
%TO.N,Net-(J1-~{MREQ})*%
X80724100Y-75567800D02*
X82714600Y-77558300D01*
X78315200Y-75567800D02*
X80724100Y-75567800D01*
X82714600Y-82670000D02*
X82714600Y-77558300D01*
%TO.N,A4*%
X86373400Y-65717000D02*
X90170600Y-65717000D01*
X86089800Y-65433400D02*
X86373400Y-65717000D01*
X85002600Y-65433400D02*
X86089800Y-65433400D01*
X84719000Y-65717000D02*
X85002600Y-65433400D01*
X64736300Y-65717000D02*
X84719000Y-65717000D01*
X62333300Y-68120000D02*
X64736300Y-65717000D01*
%TO.N,A1*%
X69953300Y-68120000D02*
X69953300Y-69221700D01*
X69722000Y-69221700D02*
X67113200Y-71830500D01*
X69953300Y-69221700D02*
X69722000Y-69221700D01*
%TO.N,D0*%
X75033300Y-68120000D02*
X73931600Y-68120000D01*
X57314600Y-82670000D02*
X57314600Y-77558300D01*
X73931600Y-68257800D02*
X73931600Y-68120000D01*
X72967700Y-69221700D02*
X73931600Y-68257800D01*
X71272100Y-69221700D02*
X72967700Y-69221700D01*
X66210500Y-74283300D02*
X71272100Y-69221700D01*
X60589600Y-74283300D02*
X66210500Y-74283300D01*
X57314600Y-77558300D02*
X60589600Y-74283300D01*
%TO.N,A6*%
X57253300Y-68120000D02*
X58355000Y-68120000D01*
X58355000Y-67987900D02*
X58355000Y-68120000D01*
X61505700Y-64837200D02*
X58355000Y-67987900D01*
X84462800Y-64837200D02*
X61505700Y-64837200D01*
X84870100Y-64429900D02*
X84462800Y-64837200D01*
X85004600Y-64429900D02*
X84870100Y-64429900D01*
%TO.N,A12*%
X52173300Y-68120000D02*
X53275000Y-68120000D01*
X78998300Y-67986800D02*
X78998300Y-69361300D01*
X77991500Y-66980000D02*
X78998300Y-67986800D01*
X66964900Y-66980000D02*
X77991500Y-66980000D01*
X66143300Y-67801600D02*
X66964900Y-66980000D01*
X66143300Y-68409700D02*
X66143300Y-67801600D01*
X64888900Y-69664100D02*
X66143300Y-68409700D01*
X54681400Y-69664100D02*
X64888900Y-69664100D01*
X53275000Y-68257700D02*
X54681400Y-69664100D01*
X53275000Y-68120000D02*
X53275000Y-68257700D01*
%TO.N,A11*%
X62333300Y-52880000D02*
X63435000Y-52880000D01*
X72329300Y-61912000D02*
X79255400Y-61912000D01*
X63435000Y-53017700D02*
X72329300Y-61912000D01*
X63435000Y-52880000D02*
X63435000Y-53017700D01*
%TO.N,D2*%
X62394600Y-82670000D02*
X62394600Y-77558300D01*
X80113300Y-68120000D02*
X80113300Y-69221700D01*
X64156800Y-77558300D02*
X62394600Y-77558300D01*
X70167700Y-71547400D02*
X64156800Y-77558300D01*
X77787600Y-71547400D02*
X70167700Y-71547400D01*
X80113300Y-69221700D02*
X77787600Y-71547400D01*
%TO.N,A5*%
X59793300Y-68120000D02*
X60895000Y-68120000D01*
X60895000Y-67982300D02*
X60895000Y-68120000D01*
X63562000Y-65315300D02*
X60895000Y-67982300D01*
X84552700Y-65315300D02*
X63562000Y-65315300D01*
X84836300Y-65031700D02*
X84552700Y-65315300D01*
X86539300Y-65031700D02*
X84836300Y-65031700D01*
%TO.N,A10*%
X67413300Y-52880000D02*
X68515000Y-52880000D01*
X75300200Y-59802900D02*
X81120600Y-59802900D01*
X68515000Y-53017700D02*
X75300200Y-59802900D01*
X68515000Y-52880000D02*
X68515000Y-53017700D01*
%TO.N,A0*%
X72493300Y-68120000D02*
X71391600Y-68120000D01*
X71391600Y-68438600D02*
X71391600Y-68120000D01*
X66708300Y-73121900D02*
X71391600Y-68438600D01*
X65360500Y-73121900D02*
X66708300Y-73121900D01*
%TO.N,+5V*%
X104743300Y-47250000D02*
X102203300Y-47250000D01*
X102203300Y-47250000D02*
X99663300Y-47250000D01*
X99663300Y-47250000D02*
X97123300Y-47250000D01*
X70347300Y-36264000D02*
X71443300Y-37360000D01*
X50259300Y-36264000D02*
X70347300Y-36264000D01*
X49153300Y-37370000D02*
X50259300Y-36264000D01*
X93372100Y-44600500D02*
X96021600Y-47250000D01*
X77827800Y-44600500D02*
X93372100Y-44600500D01*
X73075000Y-39847700D02*
X77827800Y-44600500D01*
X73075000Y-39710000D02*
X73075000Y-39847700D01*
X71973300Y-39710000D02*
X73075000Y-39710000D01*
X97123300Y-47250000D02*
X96021600Y-47250000D01*
%TO.N,GND*%
X87213300Y-39710000D02*
X84673300Y-39710000D01*
X67423300Y-47330000D02*
X66321600Y-47330000D01*
X77053300Y-39710000D02*
X74513300Y-39710000D01*
X94833300Y-63030000D02*
X93731600Y-63030000D01*
X84673300Y-39710000D02*
X83571600Y-39710000D01*
X77053300Y-39710000D02*
X79593300Y-39710000D01*
X83571600Y-39938300D02*
X83571600Y-39710000D01*
X82682900Y-40827000D02*
X83571600Y-39938300D01*
X81674300Y-40827000D02*
X82682900Y-40827000D01*
X80695000Y-39847700D02*
X81674300Y-40827000D01*
X80695000Y-39710000D02*
X80695000Y-39847700D01*
X79593300Y-39710000D02*
X80695000Y-39710000D01*
X82653300Y-68120000D02*
X83755000Y-68120000D01*
X88641600Y-68120000D02*
X83755000Y-68120000D01*
X93731600Y-63030000D02*
X88641600Y-68120000D01*
X105553300Y-63030000D02*
X101980000Y-63030000D01*
X51873200Y-50330100D02*
X51633300Y-50570000D01*
X63459200Y-50330100D02*
X51873200Y-50330100D01*
X66321600Y-47467700D02*
X63459200Y-50330100D01*
X66321600Y-47330000D02*
X66321600Y-47467700D01*
X89753300Y-47330000D02*
X90855000Y-47330000D01*
X98406700Y-63030000D02*
X99523400Y-63030000D01*
X99523400Y-63030000D02*
X101980000Y-63030000D01*
X99523400Y-52428200D02*
X99523400Y-63030000D01*
X94425200Y-47330000D02*
X99523400Y-52428200D01*
X90855000Y-47330000D02*
X94425200Y-47330000D01*
%TD*%
M02*
