M48
; DRILL file {KiCad 8.0.2} date 2024-05-18T23:24:37+0200
; FORMAT={-:-/ absolute / inch / decimal}
; #@! TF.CreationDate,2024-05-18T23:24:37+02:00
; #@! TF.GenerationSoftware,Kicad,Pcbnew,8.0.2
; #@! TF.FileFunction,Plated,1,2,PTH
FMAT,2
INCH
; #@! TA.AperFunction,Plated,PTH,ViaDrill
T1C0.0118
; #@! TA.AperFunction,Plated,PTH,ComponentDrill
T2C0.0295
; #@! TA.AperFunction,Plated,PTH,ComponentDrill
T3C0.0315
%
G90
G05
T1
X2.4669Y-2.269
X2.5732Y-2.8788
X2.6099Y-2.7732
X2.6423Y-2.828
X2.8841Y-2.8405
X2.948Y-2.8562
X3.0833Y-2.9751
X3.1102Y-2.7308
X3.1203Y-2.4375
X3.166Y-2.3933
X3.1937Y-2.3544
X3.2174Y-2.453
X3.2332Y-2.4846
X3.3003Y-2.7442
X3.3466Y-2.5366
X3.3564Y-2.5998
X3.3879Y-2.6082
X3.4071Y-2.5603
X3.4205Y-3.0448
X3.55Y-2.5873
T2
X3.4469Y-2.4047
X3.4969Y-2.4047
X3.5469Y-2.4047
T3
X1.9344Y-1.9909
X1.9352Y-1.4713
X1.9541Y-2.0819
X1.9541Y-2.6819
X1.9545Y-1.5634
X1.9545Y-1.8634
X2.0328Y-1.9909
X2.0336Y-1.4713
X2.0541Y-2.0819
X2.0541Y-2.6819
X2.0545Y-1.5634
X2.0545Y-1.8634
X2.1541Y-2.0819
X2.1541Y-2.6819
X2.1545Y-1.5634
X2.1545Y-1.8634
X2.2541Y-2.0819
X2.2541Y-2.6819
X2.2545Y-1.5634
X2.2545Y-1.8634
X2.3541Y-2.0819
X2.3541Y-2.6819
X2.3545Y-1.5634
X2.3545Y-1.8634
X2.4541Y-2.0819
X2.4541Y-2.6819
X2.4545Y-1.5634
X2.4545Y-1.8634
X2.5541Y-2.0819
X2.5541Y-2.6819
X2.5545Y-1.5634
X2.5545Y-1.8634
X2.6541Y-2.0819
X2.6541Y-2.6819
X2.6545Y-1.5634
X2.6545Y-1.8634
X2.7541Y-2.0819
X2.7541Y-2.6819
X2.8127Y-1.4709
X2.8336Y-1.5634
X2.8336Y-1.8634
X2.8541Y-2.0819
X2.8541Y-2.6819
X2.9112Y-1.4709
X2.9336Y-1.5634
X2.9336Y-1.8634
X2.9541Y-2.0819
X2.9541Y-2.6819
X3.0336Y-1.5634
X3.0336Y-1.8634
X3.0541Y-2.0819
X3.0541Y-2.6819
X3.1336Y-1.5634
X3.1336Y-1.8634
X3.1541Y-2.0819
X3.1541Y-2.6819
X3.2336Y-1.5634
X3.2336Y-1.8634
X3.2541Y-2.0819
X3.2541Y-2.6819
X3.3336Y-1.5634
X3.3336Y-1.8634
X3.4336Y-1.5634
X3.4336Y-1.8634
X3.5336Y-1.5634
X3.5336Y-1.8634
X3.7336Y-2.0815
X3.7336Y-2.4815
X3.8238Y-1.5602
X3.8238Y-1.8602
X3.8743Y-2.0815
X3.8743Y-2.4815
X3.9238Y-1.5602
X3.9238Y-1.8602
X4.015Y-2.0815
X4.015Y-2.4815
X4.0238Y-1.5602
X4.0238Y-1.8602
X4.1238Y-1.5602
X4.1238Y-1.8602
X4.1556Y-2.0815
X4.1556Y-2.4815
M30
