%TF.GenerationSoftware,KiCad,Pcbnew,8.0.2*%
%TF.CreationDate,2024-05-18T23:24:33+02:00*%
%TF.ProjectId,zx81-external-eprom,7a783831-2d65-4787-9465-726e616c2d65,rev?*%
%TF.SameCoordinates,Original*%
%TF.FileFunction,Legend,Bot*%
%TF.FilePolarity,Positive*%
%FSLAX46Y46*%
G04 Gerber Fmt 4.6, Leading zero omitted, Abs format (unit mm)*
G04 Created by KiCad (PCBNEW 8.0.2) date 2024-05-18 23:24:33*
%MOMM*%
%LPD*%
G01*
G04 APERTURE LIST*
%ADD10C,0.100000*%
G04 APERTURE END LIST*
D10*
X49406407Y-77026115D02*
X49406407Y-76264211D01*
X49025454Y-76645163D02*
X49787359Y-76645163D01*
X50025454Y-75311830D02*
X50025454Y-75788020D01*
X50025454Y-75788020D02*
X49549264Y-75835639D01*
X49549264Y-75835639D02*
X49596883Y-75788020D01*
X49596883Y-75788020D02*
X49644502Y-75692782D01*
X49644502Y-75692782D02*
X49644502Y-75454687D01*
X49644502Y-75454687D02*
X49596883Y-75359449D01*
X49596883Y-75359449D02*
X49549264Y-75311830D01*
X49549264Y-75311830D02*
X49454026Y-75264211D01*
X49454026Y-75264211D02*
X49215931Y-75264211D01*
X49215931Y-75264211D02*
X49120693Y-75311830D01*
X49120693Y-75311830D02*
X49073074Y-75359449D01*
X49073074Y-75359449D02*
X49025454Y-75454687D01*
X49025454Y-75454687D02*
X49025454Y-75692782D01*
X49025454Y-75692782D02*
X49073074Y-75788020D01*
X49073074Y-75788020D02*
X49120693Y-75835639D01*
X50025454Y-74978496D02*
X49025454Y-74645163D01*
X49025454Y-74645163D02*
X50025454Y-74311830D01*
X61970693Y-76454687D02*
X61923074Y-76502306D01*
X61923074Y-76502306D02*
X61875454Y-76645163D01*
X61875454Y-76645163D02*
X61875454Y-76740401D01*
X61875454Y-76740401D02*
X61923074Y-76883258D01*
X61923074Y-76883258D02*
X62018312Y-76978496D01*
X62018312Y-76978496D02*
X62113550Y-77026115D01*
X62113550Y-77026115D02*
X62304026Y-77073734D01*
X62304026Y-77073734D02*
X62446883Y-77073734D01*
X62446883Y-77073734D02*
X62637359Y-77026115D01*
X62637359Y-77026115D02*
X62732597Y-76978496D01*
X62732597Y-76978496D02*
X62827835Y-76883258D01*
X62827835Y-76883258D02*
X62875454Y-76740401D01*
X62875454Y-76740401D02*
X62875454Y-76645163D01*
X62875454Y-76645163D02*
X62827835Y-76502306D01*
X62827835Y-76502306D02*
X62780216Y-76454687D01*
X61875454Y-75549925D02*
X61875454Y-76026115D01*
X61875454Y-76026115D02*
X62875454Y-76026115D01*
X61875454Y-75216591D02*
X62875454Y-75216591D01*
X61875454Y-74645163D02*
X62446883Y-75073734D01*
X62875454Y-74645163D02*
X62304026Y-75216591D01*
X95096971Y-77073734D02*
X95096971Y-76597544D01*
X94811256Y-77168972D02*
X95811256Y-76835639D01*
X95811256Y-76835639D02*
X94811256Y-76502306D01*
X95811256Y-76264210D02*
X95811256Y-75597544D01*
X95811256Y-75597544D02*
X94811256Y-76026115D01*
X60277835Y-76502306D02*
X60325454Y-76597544D01*
X60325454Y-76597544D02*
X60325454Y-76740401D01*
X60325454Y-76740401D02*
X60277835Y-76883258D01*
X60277835Y-76883258D02*
X60182597Y-76978496D01*
X60182597Y-76978496D02*
X60087359Y-77026115D01*
X60087359Y-77026115D02*
X59896883Y-77073734D01*
X59896883Y-77073734D02*
X59754026Y-77073734D01*
X59754026Y-77073734D02*
X59563550Y-77026115D01*
X59563550Y-77026115D02*
X59468312Y-76978496D01*
X59468312Y-76978496D02*
X59373074Y-76883258D01*
X59373074Y-76883258D02*
X59325454Y-76740401D01*
X59325454Y-76740401D02*
X59325454Y-76645163D01*
X59325454Y-76645163D02*
X59373074Y-76502306D01*
X59373074Y-76502306D02*
X59420693Y-76454687D01*
X59420693Y-76454687D02*
X59754026Y-76454687D01*
X59754026Y-76454687D02*
X59754026Y-76645163D01*
X59325454Y-76026115D02*
X60325454Y-76026115D01*
X60325454Y-76026115D02*
X59325454Y-75454687D01*
X59325454Y-75454687D02*
X60325454Y-75454687D01*
X59325454Y-74978496D02*
X60325454Y-74978496D01*
X60325454Y-74978496D02*
X60325454Y-74740401D01*
X60325454Y-74740401D02*
X60277835Y-74597544D01*
X60277835Y-74597544D02*
X60182597Y-74502306D01*
X60182597Y-74502306D02*
X60087359Y-74454687D01*
X60087359Y-74454687D02*
X59896883Y-74407068D01*
X59896883Y-74407068D02*
X59754026Y-74407068D01*
X59754026Y-74407068D02*
X59563550Y-74454687D01*
X59563550Y-74454687D02*
X59468312Y-74502306D01*
X59468312Y-74502306D02*
X59373074Y-74597544D01*
X59373074Y-74597544D02*
X59325454Y-74740401D01*
X59325454Y-74740401D02*
X59325454Y-74978496D01*
X67261169Y-77073734D02*
X67261169Y-76597544D01*
X66975454Y-77168972D02*
X67975454Y-76835639D01*
X67975454Y-76835639D02*
X66975454Y-76502306D01*
X66975454Y-75645163D02*
X66975454Y-76216591D01*
X66975454Y-75930877D02*
X67975454Y-75930877D01*
X67975454Y-75930877D02*
X67832597Y-76026115D01*
X67832597Y-76026115D02*
X67737359Y-76121353D01*
X67737359Y-76121353D02*
X67689740Y-76216591D01*
X74761169Y-77073734D02*
X74761169Y-76597544D01*
X74475454Y-77168972D02*
X75475454Y-76835639D01*
X75475454Y-76835639D02*
X74475454Y-76502306D01*
X74475454Y-75645163D02*
X74475454Y-76216591D01*
X74475454Y-75930877D02*
X75475454Y-75930877D01*
X75475454Y-75930877D02*
X75332597Y-76026115D01*
X75332597Y-76026115D02*
X75237359Y-76121353D01*
X75237359Y-76121353D02*
X75189740Y-76216591D01*
X75475454Y-74740401D02*
X75475454Y-75216591D01*
X75475454Y-75216591D02*
X74999264Y-75264210D01*
X74999264Y-75264210D02*
X75046883Y-75216591D01*
X75046883Y-75216591D02*
X75094502Y-75121353D01*
X75094502Y-75121353D02*
X75094502Y-74883258D01*
X75094502Y-74883258D02*
X75046883Y-74788020D01*
X75046883Y-74788020D02*
X74999264Y-74740401D01*
X74999264Y-74740401D02*
X74904026Y-74692782D01*
X74904026Y-74692782D02*
X74665931Y-74692782D01*
X74665931Y-74692782D02*
X74570693Y-74740401D01*
X74570693Y-74740401D02*
X74523074Y-74788020D01*
X74523074Y-74788020D02*
X74475454Y-74883258D01*
X74475454Y-74883258D02*
X74475454Y-75121353D01*
X74475454Y-75121353D02*
X74523074Y-75216591D01*
X74523074Y-75216591D02*
X74570693Y-75264210D01*
X77461169Y-77073734D02*
X77461169Y-76597544D01*
X77175454Y-77168972D02*
X78175454Y-76835639D01*
X78175454Y-76835639D02*
X77175454Y-76502306D01*
X77175454Y-75645163D02*
X77175454Y-76216591D01*
X77175454Y-75930877D02*
X78175454Y-75930877D01*
X78175454Y-75930877D02*
X78032597Y-76026115D01*
X78032597Y-76026115D02*
X77937359Y-76121353D01*
X77937359Y-76121353D02*
X77889740Y-76216591D01*
X77842121Y-74788020D02*
X77175454Y-74788020D01*
X78223074Y-75026115D02*
X77508788Y-75264210D01*
X77508788Y-75264210D02*
X77508788Y-74645163D01*
X52056407Y-77026115D02*
X52056407Y-76264211D01*
X51675454Y-76645163D02*
X52437359Y-76645163D01*
X51675454Y-75740401D02*
X51675454Y-75549925D01*
X51675454Y-75549925D02*
X51723074Y-75454687D01*
X51723074Y-75454687D02*
X51770693Y-75407068D01*
X51770693Y-75407068D02*
X51913550Y-75311830D01*
X51913550Y-75311830D02*
X52104026Y-75264211D01*
X52104026Y-75264211D02*
X52484978Y-75264211D01*
X52484978Y-75264211D02*
X52580216Y-75311830D01*
X52580216Y-75311830D02*
X52627835Y-75359449D01*
X52627835Y-75359449D02*
X52675454Y-75454687D01*
X52675454Y-75454687D02*
X52675454Y-75645163D01*
X52675454Y-75645163D02*
X52627835Y-75740401D01*
X52627835Y-75740401D02*
X52580216Y-75788020D01*
X52580216Y-75788020D02*
X52484978Y-75835639D01*
X52484978Y-75835639D02*
X52246883Y-75835639D01*
X52246883Y-75835639D02*
X52151645Y-75788020D01*
X52151645Y-75788020D02*
X52104026Y-75740401D01*
X52104026Y-75740401D02*
X52056407Y-75645163D01*
X52056407Y-75645163D02*
X52056407Y-75454687D01*
X52056407Y-75454687D02*
X52104026Y-75359449D01*
X52104026Y-75359449D02*
X52151645Y-75311830D01*
X52151645Y-75311830D02*
X52246883Y-75264211D01*
X52675454Y-74978496D02*
X51675454Y-74645163D01*
X51675454Y-74645163D02*
X52675454Y-74311830D01*
X105213108Y-76454687D02*
X105689299Y-76788020D01*
X105213108Y-77026115D02*
X106213108Y-77026115D01*
X106213108Y-77026115D02*
X106213108Y-76645163D01*
X106213108Y-76645163D02*
X106165489Y-76549925D01*
X106165489Y-76549925D02*
X106117870Y-76502306D01*
X106117870Y-76502306D02*
X106022632Y-76454687D01*
X106022632Y-76454687D02*
X105879775Y-76454687D01*
X105879775Y-76454687D02*
X105784537Y-76502306D01*
X105784537Y-76502306D02*
X105736918Y-76549925D01*
X105736918Y-76549925D02*
X105689299Y-76645163D01*
X105689299Y-76645163D02*
X105689299Y-77026115D01*
X106213108Y-75835639D02*
X106213108Y-75645163D01*
X106213108Y-75645163D02*
X106165489Y-75549925D01*
X106165489Y-75549925D02*
X106070251Y-75454687D01*
X106070251Y-75454687D02*
X105879775Y-75407068D01*
X105879775Y-75407068D02*
X105546442Y-75407068D01*
X105546442Y-75407068D02*
X105355966Y-75454687D01*
X105355966Y-75454687D02*
X105260728Y-75549925D01*
X105260728Y-75549925D02*
X105213108Y-75645163D01*
X105213108Y-75645163D02*
X105213108Y-75835639D01*
X105213108Y-75835639D02*
X105260728Y-75930877D01*
X105260728Y-75930877D02*
X105355966Y-76026115D01*
X105355966Y-76026115D02*
X105546442Y-76073734D01*
X105546442Y-76073734D02*
X105879775Y-76073734D01*
X105879775Y-76073734D02*
X106070251Y-76026115D01*
X106070251Y-76026115D02*
X106165489Y-75930877D01*
X106165489Y-75930877D02*
X106213108Y-75835639D01*
X105213108Y-74978496D02*
X106213108Y-74978496D01*
X106213108Y-74978496D02*
X105498823Y-74645163D01*
X105498823Y-74645163D02*
X106213108Y-74311830D01*
X106213108Y-74311830D02*
X105213108Y-74311830D01*
X105308347Y-73264211D02*
X105260728Y-73311830D01*
X105260728Y-73311830D02*
X105213108Y-73454687D01*
X105213108Y-73454687D02*
X105213108Y-73549925D01*
X105213108Y-73549925D02*
X105260728Y-73692782D01*
X105260728Y-73692782D02*
X105355966Y-73788020D01*
X105355966Y-73788020D02*
X105451204Y-73835639D01*
X105451204Y-73835639D02*
X105641680Y-73883258D01*
X105641680Y-73883258D02*
X105784537Y-73883258D01*
X105784537Y-73883258D02*
X105975013Y-73835639D01*
X105975013Y-73835639D02*
X106070251Y-73788020D01*
X106070251Y-73788020D02*
X106165489Y-73692782D01*
X106165489Y-73692782D02*
X106213108Y-73549925D01*
X106213108Y-73549925D02*
X106213108Y-73454687D01*
X106213108Y-73454687D02*
X106165489Y-73311830D01*
X106165489Y-73311830D02*
X106117870Y-73264211D01*
X105260728Y-72883258D02*
X105213108Y-72740401D01*
X105213108Y-72740401D02*
X105213108Y-72502306D01*
X105213108Y-72502306D02*
X105260728Y-72407068D01*
X105260728Y-72407068D02*
X105308347Y-72359449D01*
X105308347Y-72359449D02*
X105403585Y-72311830D01*
X105403585Y-72311830D02*
X105498823Y-72311830D01*
X105498823Y-72311830D02*
X105594061Y-72359449D01*
X105594061Y-72359449D02*
X105641680Y-72407068D01*
X105641680Y-72407068D02*
X105689299Y-72502306D01*
X105689299Y-72502306D02*
X105736918Y-72692782D01*
X105736918Y-72692782D02*
X105784537Y-72788020D01*
X105784537Y-72788020D02*
X105832156Y-72835639D01*
X105832156Y-72835639D02*
X105927394Y-72883258D01*
X105927394Y-72883258D02*
X106022632Y-72883258D01*
X106022632Y-72883258D02*
X106117870Y-72835639D01*
X106117870Y-72835639D02*
X106165489Y-72788020D01*
X106165489Y-72788020D02*
X106213108Y-72692782D01*
X106213108Y-72692782D02*
X106213108Y-72454687D01*
X106213108Y-72454687D02*
X106165489Y-72311830D01*
X106490728Y-77164211D02*
X106490728Y-72221354D01*
X90048823Y-77073734D02*
X90048823Y-76597544D01*
X89763108Y-77168972D02*
X90763108Y-76835639D01*
X90763108Y-76835639D02*
X89763108Y-76502306D01*
X89763108Y-76121353D02*
X89763108Y-75930877D01*
X89763108Y-75930877D02*
X89810728Y-75835639D01*
X89810728Y-75835639D02*
X89858347Y-75788020D01*
X89858347Y-75788020D02*
X90001204Y-75692782D01*
X90001204Y-75692782D02*
X90191680Y-75645163D01*
X90191680Y-75645163D02*
X90572632Y-75645163D01*
X90572632Y-75645163D02*
X90667870Y-75692782D01*
X90667870Y-75692782D02*
X90715489Y-75740401D01*
X90715489Y-75740401D02*
X90763108Y-75835639D01*
X90763108Y-75835639D02*
X90763108Y-76026115D01*
X90763108Y-76026115D02*
X90715489Y-76121353D01*
X90715489Y-76121353D02*
X90667870Y-76168972D01*
X90667870Y-76168972D02*
X90572632Y-76216591D01*
X90572632Y-76216591D02*
X90334537Y-76216591D01*
X90334537Y-76216591D02*
X90239299Y-76168972D01*
X90239299Y-76168972D02*
X90191680Y-76121353D01*
X90191680Y-76121353D02*
X90144061Y-76026115D01*
X90144061Y-76026115D02*
X90144061Y-75835639D01*
X90144061Y-75835639D02*
X90191680Y-75740401D01*
X90191680Y-75740401D02*
X90239299Y-75692782D01*
X90239299Y-75692782D02*
X90334537Y-75645163D01*
X72211169Y-77073734D02*
X72211169Y-76597544D01*
X71925454Y-77168972D02*
X72925454Y-76835639D01*
X72925454Y-76835639D02*
X71925454Y-76502306D01*
X72925454Y-76264210D02*
X72925454Y-75645163D01*
X72925454Y-75645163D02*
X72544502Y-75978496D01*
X72544502Y-75978496D02*
X72544502Y-75835639D01*
X72544502Y-75835639D02*
X72496883Y-75740401D01*
X72496883Y-75740401D02*
X72449264Y-75692782D01*
X72449264Y-75692782D02*
X72354026Y-75645163D01*
X72354026Y-75645163D02*
X72115931Y-75645163D01*
X72115931Y-75645163D02*
X72020693Y-75692782D01*
X72020693Y-75692782D02*
X71973074Y-75740401D01*
X71973074Y-75740401D02*
X71925454Y-75835639D01*
X71925454Y-75835639D02*
X71925454Y-76121353D01*
X71925454Y-76121353D02*
X71973074Y-76216591D01*
X71973074Y-76216591D02*
X72020693Y-76264210D01*
X57677835Y-76502306D02*
X57725454Y-76597544D01*
X57725454Y-76597544D02*
X57725454Y-76740401D01*
X57725454Y-76740401D02*
X57677835Y-76883258D01*
X57677835Y-76883258D02*
X57582597Y-76978496D01*
X57582597Y-76978496D02*
X57487359Y-77026115D01*
X57487359Y-77026115D02*
X57296883Y-77073734D01*
X57296883Y-77073734D02*
X57154026Y-77073734D01*
X57154026Y-77073734D02*
X56963550Y-77026115D01*
X56963550Y-77026115D02*
X56868312Y-76978496D01*
X56868312Y-76978496D02*
X56773074Y-76883258D01*
X56773074Y-76883258D02*
X56725454Y-76740401D01*
X56725454Y-76740401D02*
X56725454Y-76645163D01*
X56725454Y-76645163D02*
X56773074Y-76502306D01*
X56773074Y-76502306D02*
X56820693Y-76454687D01*
X56820693Y-76454687D02*
X57154026Y-76454687D01*
X57154026Y-76454687D02*
X57154026Y-76645163D01*
X56725454Y-76026115D02*
X57725454Y-76026115D01*
X57725454Y-76026115D02*
X56725454Y-75454687D01*
X56725454Y-75454687D02*
X57725454Y-75454687D01*
X56725454Y-74978496D02*
X57725454Y-74978496D01*
X57725454Y-74978496D02*
X57725454Y-74740401D01*
X57725454Y-74740401D02*
X57677835Y-74597544D01*
X57677835Y-74597544D02*
X57582597Y-74502306D01*
X57582597Y-74502306D02*
X57487359Y-74454687D01*
X57487359Y-74454687D02*
X57296883Y-74407068D01*
X57296883Y-74407068D02*
X57154026Y-74407068D01*
X57154026Y-74407068D02*
X56963550Y-74454687D01*
X56963550Y-74454687D02*
X56868312Y-74502306D01*
X56868312Y-74502306D02*
X56773074Y-74597544D01*
X56773074Y-74597544D02*
X56725454Y-74740401D01*
X56725454Y-74740401D02*
X56725454Y-74978496D01*
X64661169Y-77073734D02*
X64661169Y-76597544D01*
X64375454Y-77168972D02*
X65375454Y-76835639D01*
X65375454Y-76835639D02*
X64375454Y-76502306D01*
X65375454Y-75978496D02*
X65375454Y-75883258D01*
X65375454Y-75883258D02*
X65327835Y-75788020D01*
X65327835Y-75788020D02*
X65280216Y-75740401D01*
X65280216Y-75740401D02*
X65184978Y-75692782D01*
X65184978Y-75692782D02*
X64994502Y-75645163D01*
X64994502Y-75645163D02*
X64756407Y-75645163D01*
X64756407Y-75645163D02*
X64565931Y-75692782D01*
X64565931Y-75692782D02*
X64470693Y-75740401D01*
X64470693Y-75740401D02*
X64423074Y-75788020D01*
X64423074Y-75788020D02*
X64375454Y-75883258D01*
X64375454Y-75883258D02*
X64375454Y-75978496D01*
X64375454Y-75978496D02*
X64423074Y-76073734D01*
X64423074Y-76073734D02*
X64470693Y-76121353D01*
X64470693Y-76121353D02*
X64565931Y-76168972D01*
X64565931Y-76168972D02*
X64756407Y-76216591D01*
X64756407Y-76216591D02*
X64994502Y-76216591D01*
X64994502Y-76216591D02*
X65184978Y-76168972D01*
X65184978Y-76168972D02*
X65280216Y-76121353D01*
X65280216Y-76121353D02*
X65327835Y-76073734D01*
X65327835Y-76073734D02*
X65375454Y-75978496D01*
X92611188Y-77073734D02*
X92611188Y-76597544D01*
X92325473Y-77168972D02*
X93325473Y-76835639D01*
X93325473Y-76835639D02*
X92325473Y-76502306D01*
X92896902Y-76026115D02*
X92944521Y-76121353D01*
X92944521Y-76121353D02*
X92992140Y-76168972D01*
X92992140Y-76168972D02*
X93087378Y-76216591D01*
X93087378Y-76216591D02*
X93134997Y-76216591D01*
X93134997Y-76216591D02*
X93230235Y-76168972D01*
X93230235Y-76168972D02*
X93277854Y-76121353D01*
X93277854Y-76121353D02*
X93325473Y-76026115D01*
X93325473Y-76026115D02*
X93325473Y-75835639D01*
X93325473Y-75835639D02*
X93277854Y-75740401D01*
X93277854Y-75740401D02*
X93230235Y-75692782D01*
X93230235Y-75692782D02*
X93134997Y-75645163D01*
X93134997Y-75645163D02*
X93087378Y-75645163D01*
X93087378Y-75645163D02*
X92992140Y-75692782D01*
X92992140Y-75692782D02*
X92944521Y-75740401D01*
X92944521Y-75740401D02*
X92896902Y-75835639D01*
X92896902Y-75835639D02*
X92896902Y-76026115D01*
X92896902Y-76026115D02*
X92849283Y-76121353D01*
X92849283Y-76121353D02*
X92801664Y-76168972D01*
X92801664Y-76168972D02*
X92706426Y-76216591D01*
X92706426Y-76216591D02*
X92515950Y-76216591D01*
X92515950Y-76216591D02*
X92420712Y-76168972D01*
X92420712Y-76168972D02*
X92373093Y-76121353D01*
X92373093Y-76121353D02*
X92325473Y-76026115D01*
X92325473Y-76026115D02*
X92325473Y-75835639D01*
X92325473Y-75835639D02*
X92373093Y-75740401D01*
X92373093Y-75740401D02*
X92420712Y-75692782D01*
X92420712Y-75692782D02*
X92515950Y-75645163D01*
X92515950Y-75645163D02*
X92706426Y-75645163D01*
X92706426Y-75645163D02*
X92801664Y-75692782D01*
X92801664Y-75692782D02*
X92849283Y-75740401D01*
X92849283Y-75740401D02*
X92896902Y-75835639D01*
X79704379Y-77073734D02*
X79704379Y-76597544D01*
X79418664Y-77168972D02*
X80418664Y-76835639D01*
X80418664Y-76835639D02*
X79418664Y-76502306D01*
X79418664Y-75645163D02*
X79418664Y-76216591D01*
X79418664Y-75930877D02*
X80418664Y-75930877D01*
X80418664Y-75930877D02*
X80275807Y-76026115D01*
X80275807Y-76026115D02*
X80180569Y-76121353D01*
X80180569Y-76121353D02*
X80132950Y-76216591D01*
X80418664Y-75311829D02*
X80418664Y-74692782D01*
X80418664Y-74692782D02*
X80037712Y-75026115D01*
X80037712Y-75026115D02*
X80037712Y-74883258D01*
X80037712Y-74883258D02*
X79990093Y-74788020D01*
X79990093Y-74788020D02*
X79942474Y-74740401D01*
X79942474Y-74740401D02*
X79847236Y-74692782D01*
X79847236Y-74692782D02*
X79609141Y-74692782D01*
X79609141Y-74692782D02*
X79513903Y-74740401D01*
X79513903Y-74740401D02*
X79466284Y-74788020D01*
X79466284Y-74788020D02*
X79418664Y-74883258D01*
X79418664Y-74883258D02*
X79418664Y-75168972D01*
X79418664Y-75168972D02*
X79466284Y-75264210D01*
X79466284Y-75264210D02*
X79513903Y-75311829D01*
X82361188Y-77073734D02*
X82361188Y-76597544D01*
X82075473Y-77168972D02*
X83075473Y-76835639D01*
X83075473Y-76835639D02*
X82075473Y-76502306D01*
X82075473Y-75645163D02*
X82075473Y-76216591D01*
X82075473Y-75930877D02*
X83075473Y-75930877D01*
X83075473Y-75930877D02*
X82932616Y-76026115D01*
X82932616Y-76026115D02*
X82837378Y-76121353D01*
X82837378Y-76121353D02*
X82789759Y-76216591D01*
X82980235Y-75264210D02*
X83027854Y-75216591D01*
X83027854Y-75216591D02*
X83075473Y-75121353D01*
X83075473Y-75121353D02*
X83075473Y-74883258D01*
X83075473Y-74883258D02*
X83027854Y-74788020D01*
X83027854Y-74788020D02*
X82980235Y-74740401D01*
X82980235Y-74740401D02*
X82884997Y-74692782D01*
X82884997Y-74692782D02*
X82789759Y-74692782D01*
X82789759Y-74692782D02*
X82646902Y-74740401D01*
X82646902Y-74740401D02*
X82075473Y-75311829D01*
X82075473Y-75311829D02*
X82075473Y-74692782D01*
X102576601Y-77073734D02*
X102576601Y-76597544D01*
X102290886Y-77168972D02*
X103290886Y-76835639D01*
X103290886Y-76835639D02*
X102290886Y-76502306D01*
X102957553Y-75740401D02*
X102290886Y-75740401D01*
X103338506Y-75978496D02*
X102624220Y-76216591D01*
X102624220Y-76216591D02*
X102624220Y-75597544D01*
X84811188Y-77073734D02*
X84811188Y-76597544D01*
X84525473Y-77168972D02*
X85525473Y-76835639D01*
X85525473Y-76835639D02*
X84525473Y-76502306D01*
X84525473Y-75645163D02*
X84525473Y-76216591D01*
X84525473Y-75930877D02*
X85525473Y-75930877D01*
X85525473Y-75930877D02*
X85382616Y-76026115D01*
X85382616Y-76026115D02*
X85287378Y-76121353D01*
X85287378Y-76121353D02*
X85239759Y-76216591D01*
X84525473Y-74692782D02*
X84525473Y-75264210D01*
X84525473Y-74978496D02*
X85525473Y-74978496D01*
X85525473Y-74978496D02*
X85382616Y-75073734D01*
X85382616Y-75073734D02*
X85287378Y-75168972D01*
X85287378Y-75168972D02*
X85239759Y-75264210D01*
X97590181Y-77073734D02*
X97590181Y-76597544D01*
X97304466Y-77168972D02*
X98304466Y-76835639D01*
X98304466Y-76835639D02*
X97304466Y-76502306D01*
X98304466Y-75740401D02*
X98304466Y-75930877D01*
X98304466Y-75930877D02*
X98256847Y-76026115D01*
X98256847Y-76026115D02*
X98209228Y-76073734D01*
X98209228Y-76073734D02*
X98066371Y-76168972D01*
X98066371Y-76168972D02*
X97875895Y-76216591D01*
X97875895Y-76216591D02*
X97494943Y-76216591D01*
X97494943Y-76216591D02*
X97399705Y-76168972D01*
X97399705Y-76168972D02*
X97352086Y-76121353D01*
X97352086Y-76121353D02*
X97304466Y-76026115D01*
X97304466Y-76026115D02*
X97304466Y-75835639D01*
X97304466Y-75835639D02*
X97352086Y-75740401D01*
X97352086Y-75740401D02*
X97399705Y-75692782D01*
X97399705Y-75692782D02*
X97494943Y-75645163D01*
X97494943Y-75645163D02*
X97733038Y-75645163D01*
X97733038Y-75645163D02*
X97828276Y-75692782D01*
X97828276Y-75692782D02*
X97875895Y-75740401D01*
X97875895Y-75740401D02*
X97923514Y-75835639D01*
X97923514Y-75835639D02*
X97923514Y-76026115D01*
X97923514Y-76026115D02*
X97875895Y-76121353D01*
X97875895Y-76121353D02*
X97828276Y-76168972D01*
X97828276Y-76168972D02*
X97733038Y-76216591D01*
X69711169Y-77073734D02*
X69711169Y-76597544D01*
X69425454Y-77168972D02*
X70425454Y-76835639D01*
X70425454Y-76835639D02*
X69425454Y-76502306D01*
X70330216Y-76216591D02*
X70377835Y-76168972D01*
X70377835Y-76168972D02*
X70425454Y-76073734D01*
X70425454Y-76073734D02*
X70425454Y-75835639D01*
X70425454Y-75835639D02*
X70377835Y-75740401D01*
X70377835Y-75740401D02*
X70330216Y-75692782D01*
X70330216Y-75692782D02*
X70234978Y-75645163D01*
X70234978Y-75645163D02*
X70139740Y-75645163D01*
X70139740Y-75645163D02*
X69996883Y-75692782D01*
X69996883Y-75692782D02*
X69425454Y-76264210D01*
X69425454Y-76264210D02*
X69425454Y-75645163D01*
X100083391Y-77073734D02*
X100083391Y-76597544D01*
X99797676Y-77168972D02*
X100797676Y-76835639D01*
X100797676Y-76835639D02*
X99797676Y-76502306D01*
X100797676Y-75692782D02*
X100797676Y-76168972D01*
X100797676Y-76168972D02*
X100321486Y-76216591D01*
X100321486Y-76216591D02*
X100369105Y-76168972D01*
X100369105Y-76168972D02*
X100416724Y-76073734D01*
X100416724Y-76073734D02*
X100416724Y-75835639D01*
X100416724Y-75835639D02*
X100369105Y-75740401D01*
X100369105Y-75740401D02*
X100321486Y-75692782D01*
X100321486Y-75692782D02*
X100226248Y-75645163D01*
X100226248Y-75645163D02*
X99988153Y-75645163D01*
X99988153Y-75645163D02*
X99892915Y-75692782D01*
X99892915Y-75692782D02*
X99845296Y-75740401D01*
X99845296Y-75740401D02*
X99797676Y-75835639D01*
X99797676Y-75835639D02*
X99797676Y-76073734D01*
X99797676Y-76073734D02*
X99845296Y-76168972D01*
X99845296Y-76168972D02*
X99892915Y-76216591D01*
X87598823Y-77073734D02*
X87598823Y-76597544D01*
X87313108Y-77168972D02*
X88313108Y-76835639D01*
X88313108Y-76835639D02*
X87313108Y-76502306D01*
X87313108Y-75645163D02*
X87313108Y-76216591D01*
X87313108Y-75930877D02*
X88313108Y-75930877D01*
X88313108Y-75930877D02*
X88170251Y-76026115D01*
X88170251Y-76026115D02*
X88075013Y-76121353D01*
X88075013Y-76121353D02*
X88027394Y-76216591D01*
X88313108Y-75026115D02*
X88313108Y-74930877D01*
X88313108Y-74930877D02*
X88265489Y-74835639D01*
X88265489Y-74835639D02*
X88217870Y-74788020D01*
X88217870Y-74788020D02*
X88122632Y-74740401D01*
X88122632Y-74740401D02*
X87932156Y-74692782D01*
X87932156Y-74692782D02*
X87694061Y-74692782D01*
X87694061Y-74692782D02*
X87503585Y-74740401D01*
X87503585Y-74740401D02*
X87408347Y-74788020D01*
X87408347Y-74788020D02*
X87360728Y-74835639D01*
X87360728Y-74835639D02*
X87313108Y-74930877D01*
X87313108Y-74930877D02*
X87313108Y-75026115D01*
X87313108Y-75026115D02*
X87360728Y-75121353D01*
X87360728Y-75121353D02*
X87408347Y-75168972D01*
X87408347Y-75168972D02*
X87503585Y-75216591D01*
X87503585Y-75216591D02*
X87694061Y-75264210D01*
X87694061Y-75264210D02*
X87932156Y-75264210D01*
X87932156Y-75264210D02*
X88122632Y-75216591D01*
X88122632Y-75216591D02*
X88217870Y-75168972D01*
X88217870Y-75168972D02*
X88265489Y-75121353D01*
X88265489Y-75121353D02*
X88313108Y-75026115D01*
M02*
